SplineFontDB: 3.0
FontName: skydoor
FullName: Skydoor
FamilyName: skydoor
Weight: Regular
Copyright: Copyright 1997 Terrence Curran 1997-2015 http://www.grilledcheese.com
Version: v2016-04-26
ItalicAngle: 0
UnderlinePosition: -113
UnderlineWidth: 20
Ascent: 800
Descent: 200
InvalidEm: 0
sfntRevision: 0x00010000
LayerCount: 2
Layer: 0 0 "Back" 1
Layer: 1 0 "Fore" 0
XUID: [1021 295 1029477607 15301289]
FSType: 4
OS2Version: 3
OS2_WeightWidthSlopeOnly: 0
OS2_UseTypoMetrics: 1
CreationTime: 1461793456
ModificationTime: 1461868244
PfmFamily: 81
TTFWeight: 400
TTFWidth: 5
LineGap: 0
VLineGap: 0
Panose: 0 0 0 0 0 0 0 0 0 0
OS2TypoAscent: 800
OS2TypoAOffset: 0
OS2TypoDescent: -200
OS2TypoDOffset: 0
OS2TypoLinegap: 0
OS2WinAscent: 1098
OS2WinAOffset: 0
OS2WinDescent: 263
OS2WinDOffset: 0
HheadAscent: 800
HheadAOffset: 0
HheadDescent: -200
HheadDOffset: 0
OS2SubXSize: 700
OS2SubYSize: 650
OS2SubXOff: 0
OS2SubYOff: 140
OS2SupXSize: 700
OS2SupYSize: 650
OS2SupXOff: 0
OS2SupYOff: 477
OS2StrikeYSize: 50
OS2StrikeYPos: 250
OS2CapHeight: 0
OS2XHeight: 0
OS2Vendor: 'pyrs'
OS2CodePages: 00000001.00000000
OS2UnicodeRanges: 8000002f.0000004a.00000000.00000000
MarkAttachClasses: 1
DEI: 91125
TtTable: prep
PUSHW_1
 0
CALL
SVTCA[y-axis]
PUSHW_3
 1
 3
 2
CALL
SVTCA[x-axis]
PUSHW_3
 4
 5
 2
CALL
SVTCA[x-axis]
PUSHW_8
 4
 158
 129
 100
 72
 43
 0
 8
CALL
PUSHW_8
 5
 275
 225
 175
 125
 75
 0
 8
CALL
PUSHW_8
 6
 79
 61
 47
 35
 21
 0
 8
CALL
PUSHW_8
 7
 70
 61
 47
 35
 21
 0
 8
CALL
PUSHW_8
 8
 67
 61
 47
 35
 21
 0
 8
CALL
SVTCA[y-axis]
PUSHW_8
 1
 88
 72
 56
 35
 21
 0
 8
CALL
PUSHW_8
 2
 158
 129
 100
 72
 43
 0
 8
CALL
PUSHW_8
 3
 79
 61
 47
 35
 21
 0
 8
CALL
SVTCA[y-axis]
PUSHW_3
 9
 3
 7
CALL
PUSHW_1
 0
DUP
RCVT
RDTG
ROUND[Black]
RTG
WCVTP
EndTTInstrs
TtTable: fpgm
PUSHW_1
 0
FDEF
MPPEM
PUSHW_1
 9
LT
IF
PUSHB_2
 1
 1
INSTCTRL
EIF
PUSHW_1
 511
SCANCTRL
PUSHW_1
 68
SCVTCI
PUSHW_2
 9
 3
SDS
SDB
ENDF
PUSHW_1
 1
FDEF
DUP
DUP
RCVT
ROUND[Black]
WCVTP
PUSHB_1
 1
ADD
ENDF
PUSHW_1
 2
FDEF

StartChar: .notdef
Encoding: 256 -1 0
Width: 272
Flags: HW
LayerCount: 2
Back
Fore
SplineSet
144 579 m 2
 220 579 l 1
 220 520 l 1
 160 520 l 1
 160 427 l 2
 160 405.666666667 167 395 181 395 c 2
 234 395 l 1
 234 338 l 1
 160 338 l 1
 160 22 l 2
 160 14.6666666667 157.666666667 9.1666666667 153 5.5 c 128
 148.333333333 1.83333333333 142.666666666 -3.33362966861e-12 136 0 c 2
 91 0 l 1
 91 304 l 2
 91 326.666666667 82.3333333333 338 65 338 c 2
 31 338 l 1
 31 395 l 1
 91 395 l 1
 91 527 l 2
 91 561.666666667 108.666666667 579 144 579 c 2
EndSplineSet
Validated: 524289
EndChar

StartChar: Thorn
Encoding: 11 11 8
Width: 1161
Flags: HW
LayerCount: 2
Back
Fore
SplineSet
727 652 m 2
 727 367 l 2
 727 359 724 351.666666667 718 345 c 128
 712 338.333333333 704.666666667 332.833333333 696 328.5 c 128
 687.333333333 324.166666667 677.833333333 320.666666667 667.5 318 c 128
 657.166666667 315.333333333 647.666666667 314 639 314 c 2
 529 314 l 1
 529 240 l 2
 529.666666667 234.666666667 527.5 229.666666667 522.5 225 c 128
 517.5 220.333333333 511.333333333 218 504 218 c 2
 459 218 l 1
 459 774 l 2
 459 780.666666667 460.833333333 786.166666667 464.5 790.5 c 128
 468.166666667 794.833333333 475.666666667 797 487 797 c 2
 529 797 l 1
 529 719 l 1
 619 719 l 2
 654.333333333 719 681.166666667 712 699.5 698 c 128
 717.833333333 684 727 668.666666667 727 652 c 2
656 393 m 2
 656 634 l 2
 656 647.333333333 650.5 657.833333333 639.5 665.5 c 128
 628.5 673.166666667 611 677 587 677 c 2
 529 677 l 1
 529 357 l 1
 587 357 l 2
 611.666666667 357 629.333333333 359.833333333 640 365.5 c 128
 650.666666667 371.166666667 656 380.333333333 656 393 c 2
75 56 m 1
 95 56 l 2
 111 56 119 60 119 68 c 2
 119 102 l 1
 119 109 l 2
 119 119 111 124 95 124 c 2
 75 124 l 1
 75 56 l 1
106 139 m 2
 118.666666667 139 128.166666667 136.5 134.5 131.5 c 128
 140.833333333 126.5 144 121 144 115 c 2
 144 105 l 1
 144 59 l 2
 144 53.6666666667 140.5 49.3333333333 133.5 46 c 128
 126.5 42.6666666667 119.666666667 41 113 41 c 2
 75 41 l 1
 75 8 l 2
 75 2.66666666667 72 0 66 0 c 2
 50 0 l 1
 50 195 l 2
 50 200.333333333 53.3333333333 203 60 203 c 2
 75 203 l 1
 75 139 l 1
 106 139 l 2
1065 492 m 256
 1065 424 1052.66666667 360 1028 300 c 128
 1003.33333333 240 969.833333333 187.833333333 927.5 143.5 c 128
 885.166666667 99.1666666667 835.333333333 64 778 38 c 128
 720.666666667 12 659.666666667 -1 595 -1 c 0
 533 -1 474.666666667 11.1666666667 420 35.5 c 128
 365.333333333 59.8333333333 317 92.3333333333 275 133 c 1
 335 183 l 1
 369.666666667 148.333333333 409.333333333 121.333333333 454 102 c 128
 498.666666667 82.6666666667 546.333333333 73 597 73 c 0
 650.333333333 73 700.333333333 84 747 106 c 128
 793.666666667 128 834.5 158 869.5 196 c 128
 904.5 234 932 278.333333333 952 329 c 128
 972 379.666666667 982 434 982 492 c 256
 982 550 972 604.5 952 655.5 c 128
 932 706.5 904.5 751 869.5 789 c 128
 834.5 827 793.666666667 857 747 879 c 128
 700.333333333 901 650.333333333 912 597 912 c 0
 531 912 470.333333333 895.666666667 415 863 c 128
 359.666666667 830.333333333 314.333333333 787 279 733 c 1
 227 772 l 1
 211.666666667 751.333333333 200.333333333 733.333333333 193 718 c 128
 185.666666667 702.666666667 180.333333333 692.333333333 177 687 c 1
 159 697 l 1
 165.666666667 713 174.333333333 728.833333333 185 744.5 c 128
 195.666666667 760.166666667 206.666666667 775.666666667 218 791 c 0
 240 820.333333333 264.833333333 847 292.5 871 c 128
 320.166666667 895 350 915.5 382 932.5 c 128
 414 949.5 448 962.666666667 484 972 c 128
 520 981.333333333 557 986 595 986 c 0
 659.666666667 986 720.666666667 973 778 947 c 128
 835.333333333 921 885.166666667 885.666666667 927.5 841 c 128
 969.833333333 796.333333333 1003.33333333 744 1028 684 c 128
 1052.66666667 624 1065 560 1065 492 c 256
224 846 m 1
 210 830.666666667 196.5 814.166666667 183.5 796.5 c 128
 170.5 778.833333333 158.333333333 760.333333333 147 741 c 128
 135.666666667 721.666666667 126 701.333333333 118 680 c 128
 110 658.666666667 104 637 100 615 c 0
 94.6666666667 585 92.6666666667 555.333333333 94 526 c 128
 95.3333333333 496.666666667 99.3333333333 468 106 440 c 128
 112.666666667 412 122 385.166666667 134 359.5 c 128
 146 333.833333333 159.666666667 310 175 288 c 1
 107 245 l 1
 69 297.666666667 41 355.333333333 23 418 c 128
 5 480.666666667 2.33333333333 547.666666667 15 619 c 0
 19.6666666667 646.333333333 26.6666666667 673.333333333 36 700 c 128
 45.3333333333 726.666666667 56.5 752.333333333 69.5 777 c 128
 82.5 801.666666667 97 824.833333333 113 846.5 c 128
 129 868.166666667 146 888 164 906 c 1
 214 863 l 1
 218.666666667 869 223.333333333 874.333333333 228 879 c 128
 232.666666667 883.666666667 237.833333333 888.5 243.5 893.5 c 128
 249.166666667 898.5 255.5 903.666666667 262.5 909 c 128
 269.5 914.333333333 278 920.666666667 288 928 c 1
 302 916 l 1
 286.666666667 904 272 892.166666667 258 880.5 c 128
 244 868.833333333 233 857.333333333 225 846 c 1
 224 846 l 1
1501 249 m 1
 1115 249 l 1
 1115 -67 l 1
 208 -67 l 1
 208 364 l 1
 208 372 l 1
 227 371 l 1
 227 364 l 1
 227 -50 l 1
 1097 -50 l 1
 1097 266 l 1
 1501 266 l 1
 1509 266 l 1
 1509 249 l 1
 1501 249 l 1
EndSplineSet
Validated: 33
EndChar

StartChar: thorn
Encoding: 12 12 9
Width: 1161
Flags: HW
LayerCount: 2
Back
Fore
SplineSet
553 380 m 1
 611 380 l 2
 635 380 652.333333333 382.833333333 663 388.5 c 128
 673.666666667 394.166666667 679 403.333333333 679 416 c 2
 679 512 l 1
 679 532 l 2
 679 545.333333333 673.5 555.833333333 662.5 563.5 c 128
 651.5 571.166666667 634.333333333 575 611 575 c 2
 553 575 l 1
 553 380 l 1
642 617 m 2
 678 617 705.166666667 610 723.5 596 c 128
 741.833333333 582 751 566.666666667 751 550 c 2
 751 522 l 1
 751 389 l 2
 751 381 748 373.833333333 742 367.5 c 128
 736 361.166666667 728.5 355.666666667 719.5 351 c 128
 710.5 346.333333333 700.833333333 342.833333333 690.5 340.5 c 128
 680.166666667 338.166666667 670.666666667 337 662 337 c 2
 553 337 l 1
 552 243 l 2
 552 237.666666667 549.833333333 232.666666667 545.5 228 c 128
 541.166666667 223.333333333 535 221 527 221 c 2
 483 221 l 1
 482 777 l 2
 482 783 484 788.333333333 488 793 c 128
 492 797.666666667 499.333333333 800 510 800 c 2
 552 800 l 1
 553 617 l 1
 642 617 l 2
143 152 m 2
 143 52 l 2
 143 46.6666666667 139.333333333 42.3333333333 132 39 c 128
 124.666666667 35.6666666667 118 34 112 34 c 2
 74 34 l 1
 74 8 l 2
 74 2.66666666667 71 0 65 0 c 2
 49 0 l 1
 49 195 l 2
 49 200.333333333 52.3333333333 203 59 203 c 2
 74 203 l 1
 74 175 l 1
 89 175 l 1
 99 175 l 2
 102.333333333 175 104.333333333 175.333333333 105 176 c 0
 117.666666667 175.333333333 127.166666667 172.666666667 133.5 168 c 128
 139.833333333 163.333333333 143 158 143 152 c 2
118 61 m 2
 118 146 l 2
 118 156 110 161 94 161 c 2
 74 161 l 1
 74 49 l 1
 94 49 l 2
 110 49 118 53 118 61 c 2
1065 492 m 256
 1065 424 1052.66666667 360 1028 300 c 128
 1003.33333333 240 969.833333333 187.833333333 927.5 143.5 c 128
 885.166666667 99.1666666667 835.333333333 64 778 38 c 128
 720.666666667 12 659.666666667 -1 595 -1 c 0
 533 -1 474.666666667 11.1666666667 420 35.5 c 128
 365.333333333 59.8333333333 317 92.3333333333 275 133 c 1
 335 183 l 1
 369.666666667 148.333333333 409.333333333 121.333333333 454 102 c 128
 498.666666667 82.6666666667 546.333333333 73 597 73 c 0
 650.333333333 73 700.333333333 84 747 106 c 128
 793.666666667 128 834.5 158 869.5 196 c 128
 904.5 234 932 278.333333333 952 329 c 128
 972 379.666666667 982 434 982 492 c 256
 982 550 972 604.5 952 655.5 c 128
 932 706.5 904.5 751 869.5 789 c 128
 834.5 827 793.666666667 857 747 879 c 128
 700.333333333 901 650.333333333 912 597 912 c 0
 531 912 470.333333333 895.666666667 415 863 c 128
 359.666666667 830.333333333 314.333333333 787 279 733 c 1
 227 772 l 1
 211.666666667 751.333333333 200.333333333 733.333333333 193 718 c 128
 185.666666667 702.666666667 180.333333333 692.333333333 177 687 c 1
 159 697 l 1
 165.666666667 713 174.333333333 728.833333333 185 744.5 c 128
 195.666666667 760.166666667 206.666666667 775.666666667 218 791 c 0
 240 820.333333333 264.833333333 847 292.5 871 c 128
 320.166666667 895 350 915.5 382 932.5 c 128
 414 949.5 448 962.666666667 484 972 c 128
 520 981.333333333 557 986 595 986 c 0
 659.666666667 986 720.666666667 973 778 947 c 128
 835.333333333 921 885.166666667 885.666666667 927.5 841 c 128
 969.833333333 796.333333333 1003.33333333 744 1028 684 c 128
 1052.66666667 624 1065 560 1065 492 c 256
224 846 m 1
 210 830.666666667 196.5 814.166666667 183.5 796.5 c 128
 170.5 778.833333333 158.333333333 760.333333333 147 741 c 128
 135.666666667 721.666666667 126 701.333333333 118 680 c 128
 110 658.666666667 104 637 100 615 c 0
 94.6666666667 585 92.6666666667 555.333333333 94 526 c 128
 95.3333333333 496.666666667 99.3333333333 468 106 440 c 128
 112.666666667 412 122 385.166666667 134 359.5 c 128
 146 333.833333333 159.666666667 310 175 288 c 1
 107 245 l 1
 69 297.666666667 41 355.333333333 23 418 c 128
 5 480.666666667 2.33333333333 547.666666667 15 619 c 0
 19.6666666667 646.333333333 26.6666666667 673.333333333 36 700 c 128
 45.3333333333 726.666666667 56.5 752.333333333 69.5 777 c 128
 82.5 801.666666667 97 824.833333333 113 846.5 c 128
 129 868.166666667 146 888 164 906 c 1
 214 863 l 1
 218.666666667 869 223.333333333 874.333333333 228 879 c 128
 232.666666667 883.666666667 237.833333333 888.5 243.5 893.5 c 128
 249.166666667 898.5 255.5 903.666666667 262.5 909 c 128
 269.5 914.333333333 278 920.666666667 288 928 c 1
 302 916 l 1
 286.666666667 904 272 892.166666667 258 880.5 c 128
 244 868.833333333 233 857.333333333 225 846 c 1
 224 846 l 1
1501 249 m 1
 1115 249 l 1
 1115 -67 l 1
 208 -67 l 1
 208 364 l 1
 208 372 l 1
 227 371 l 1
 227 364 l 1
 227 -50 l 1
 1097 -50 l 1
 1097 266 l 1
 1501 266 l 1
 1509 266 l 1
 1509 249 l 1
 1501 249 l 1
EndSplineSet
Validated: 33
EndChar

StartChar: onehalf
Encoding: 21 21 12
Width: 1161
Flags: HW
LayerCount: 2
Back
Fore
SplineSet
685 593 m 1
 685 550 l 2
 685 547.333333333 684.166666667 544.833333333 682.5 542.5 c 128
 680.833333333 540.166666667 678 539 674 539 c 2
 515 539 l 1
 494 539 l 1
 494 581 l 2
 494 585 494.666666667 588 496 590 c 128
 497.333333333 592 501.333333333 593 508 593 c 2
 565 593 l 1
 565 811 l 2
 565 817.666666667 561.333333333 821 554 821 c 2
 534 821 l 1
 513 821 l 1
 513 864 l 1
 606 864 l 2
 612.666666667 864 616 860.666666667 616 854 c 2
 616 602 l 2
 616 596 618.666666667 593 624 593 c 2
 664 593 l 1
 685 593 l 1
680 142 m 1
 508 142 l 1
 508 318 l 1
 632 318 l 1
 632 411 l 2
 632 416.333333333 631.666666667 420.666666667 631 424 c 128
 630.333333333 427.333333333 627.333333333 429 622 429 c 2
 555 429 l 1
 555 412 l 2
 555 404.666666667 550.666666667 401 542 401 c 2
 508 401 l 1
 508 454 l 2
 508 463.333333333 512.666666667 468 522 468 c 2
 680 468 l 1
 680 306 l 2
 680 296 677.833333333 288.333333333 673.5 283 c 128
 669.166666667 277.666666667 660.333333333 275 647 275 c 2
 551 275 l 1
 551 200 l 2
 551 190.666666667 555.333333333 186 564 186 c 2
 680 186 l 1
 680 142 l 1
719 500 m 1
 720.333333333 486.666666667 712.666666667 480 696 480 c 2
 478 480 l 1
 478 495 l 2
 478 501 478.833333333 506 480.5 510 c 128
 482.166666667 514 487.666666667 516 497 516 c 2
 719 516 l 1
 719 500 l 1
1065 492 m 256
 1065 424 1052.66666667 360 1028 300 c 128
 1003.33333333 240 969.833333333 187.833333333 927.5 143.5 c 128
 885.166666667 99.1666666667 835.333333333 64 778 38 c 128
 720.666666667 12 659.666666667 -1 595 -1 c 0
 533 -1 474.666666667 11.1666666667 420 35.5 c 128
 365.333333333 59.8333333333 317 92.3333333333 275 133 c 1
 335 183 l 1
 369.666666667 148.333333333 409.333333333 121.333333333 454 102 c 128
 498.666666667 82.6666666667 546.333333333 73 597 73 c 0
 650.333333333 73 700.333333333 84 747 106 c 128
 793.666666667 128 834.5 158 869.5 196 c 128
 904.5 234 932 278.333333333 952 329 c 128
 972 379.666666667 982 434 982 492 c 256
 982 550 972 604.5 952 655.5 c 128
 932 706.5 904.5 751 869.5 789 c 128
 834.5 827 793.666666667 857 747 879 c 128
 700.333333333 901 650.333333333 912 597 912 c 0
 531 912 470.333333333 895.666666667 415 863 c 128
 359.666666667 830.333333333 314.333333333 787 279 733 c 1
 227 772 l 1
 211.666666667 751.333333333 200.333333333 733.333333333 193 718 c 128
 185.666666667 702.666666667 180.333333333 692.333333333 177 687 c 1
 159 697 l 1
 165.666666667 713 174.333333333 728.833333333 185 744.5 c 128
 195.666666667 760.166666667 206.666666667 775.666666667 218 791 c 0
 240 820.333333333 264.833333333 847 292.5 871 c 128
 320.166666667 895 350 915.5 382 932.5 c 128
 414 949.5 448 962.666666667 484 972 c 128
 520 981.333333333 557 986 595 986 c 0
 659.666666667 986 720.666666667 973 778 947 c 128
 835.333333333 921 885.166666667 885.666666667 927.5 841 c 128
 969.833333333 796.333333333 1003.33333333 744 1028 684 c 128
 1052.66666667 624 1065 560 1065 492 c 256
224 846 m 1
 210 830.666666667 196.5 814.166666667 183.5 796.5 c 128
 170.5 778.833333333 158.333333333 760.333333333 147 741 c 128
 135.666666667 721.666666667 126 701.333333333 118 680 c 128
 110 658.666666667 104 637 100 615 c 0
 94.6666666667 585 92.6666666667 555.333333333 94 526 c 128
 95.3333333333 496.666666667 99.3333333333 468 106 440 c 128
 112.666666667 412 122 385.166666667 134 359.5 c 128
 146 333.833333333 159.666666667 310 175 288 c 1
 107 245 l 1
 69 297.666666667 41 355.333333333 23 418 c 128
 5 480.666666667 2.33333333333 547.666666667 15 619 c 0
 19.6666666667 646.333333333 26.6666666667 673.333333333 36 700 c 128
 45.3333333333 726.666666667 56.5 752.333333333 69.5 777 c 128
 82.5 801.666666667 97 824.833333333 113 846.5 c 128
 129 868.166666667 146 888 164 906 c 1
 214 863 l 1
 218.666666667 869 223.333333333 874.333333333 228 879 c 128
 232.666666667 883.666666667 237.833333333 888.5 243.5 893.5 c 128
 249.166666667 898.5 255.5 903.666666667 262.5 909 c 128
 269.5 914.333333333 278 920.666666667 288 928 c 1
 302 916 l 1
 286.666666667 904 272 892.166666667 258 880.5 c 128
 244 868.833333333 233 857.333333333 225 846 c 1
 224 846 l 1
1501 249 m 1
 1115 249 l 1
 1115 -67 l 1
 208 -67 l 1
 208 364 l 1
 208 372 l 1
 227 371 l 1
 227 364 l 1
 227 -50 l 1
 1097 -50 l 1
 1097 266 l 1
 1501 266 l 1
 1509 266 l 1
 1509 249 l 1
 1501 249 l 1
EndSplineSet
Validated: 33
EndChar

StartChar: onequarter
Encoding: 22 22 13
Width: 1161
Flags: HW
LayerCount: 2
Back
Fore
SplineSet
681 594 m 1
 681 551 l 2
 681 548.333333333 680 545.833333333 678 543.5 c 128
 676 541.166666667 673.333333333 540 670 540 c 2
 511 540 l 1
 490 540 l 1
 490 582 l 2
 490 586 490.666666667 589 492 591 c 128
 493.333333333 593 497 594 503 594 c 2
 560 594 l 1
 561 812 l 2
 561 819.333333333 557.333333333 823 550 823 c 2
 530 823 l 1
 508 823 l 1
 508 866 l 1
 601 866 l 2
 607.666666667 866 611 862.333333333 611 855 c 2
 611 604 l 2
 611 600.666666667 611.5 598.166666667 612.5 596.5 c 128
 613.5 594.833333333 616 594 620 594 c 2
 660 594 l 1
 681 594 l 1
686 144 m 1
 649 143 l 1
 649 292 l 1
 566 292 l 2
 554.666666667 292 546.166666667 293.666666667 540.5 297 c 128
 534.833333333 300.333333333 530.666666667 304.166666667 528 308.5 c 128
 525.333333333 312.833333333 523.833333333 317.166666667 523.5 321.5 c 128
 523.166666667 325.833333333 523 329.333333333 523 332 c 2
 523 452 l 2
 523 455.333333333 523.833333333 459 525.5 463 c 128
 527.166666667 467 530.333333333 469 535 469 c 2
 556 469 l 1
 556 340 l 1
 648 340 l 1
 649 469 l 1
 686 469 l 1
 686 144 l 1
718 507 m 2
 718 493.666666667 710 487 694 487 c 2
 477 487 l 1
 477 501 l 2
 477 507 477.666666667 512 479 516 c 128
 480.333333333 520 485.666666667 522 495 522 c 2
 718 522 l 1
 718 507 l 2
1065 492 m 256
 1065 424 1052.66666667 360 1028 300 c 128
 1003.33333333 240 969.833333333 187.833333333 927.5 143.5 c 128
 885.166666667 99.1666666667 835.333333333 64 778 38 c 128
 720.666666667 12 659.666666667 -1 595 -1 c 0
 533 -1 474.666666667 11.1666666667 420 35.5 c 128
 365.333333333 59.8333333333 317 92.3333333333 275 133 c 1
 335 183 l 1
 369.666666667 148.333333333 409.333333333 121.333333333 454 102 c 128
 498.666666667 82.6666666667 546.333333333 73 597 73 c 0
 650.333333333 73 700.333333333 84 747 106 c 128
 793.666666667 128 834.5 158 869.5 196 c 128
 904.5 234 932 278.333333333 952 329 c 128
 972 379.666666667 982 434 982 492 c 256
 982 550 972 604.5 952 655.5 c 128
 932 706.5 904.5 751 869.5 789 c 128
 834.5 827 793.666666667 857 747 879 c 128
 700.333333333 901 650.333333333 912 597 912 c 0
 531 912 470.333333333 895.666666667 415 863 c 128
 359.666666667 830.333333333 314.333333333 787 279 733 c 1
 227 772 l 1
 211.666666667 751.333333333 200.333333333 733.333333333 193 718 c 128
 185.666666667 702.666666667 180.333333333 692.333333333 177 687 c 1
 159 697 l 1
 165.666666667 713 174.333333333 728.833333333 185 744.5 c 128
 195.666666667 760.166666667 206.666666667 775.666666667 218 791 c 0
 240 820.333333333 264.833333333 847 292.5 871 c 128
 320.166666667 895 350 915.5 382 932.5 c 128
 414 949.5 448 962.666666667 484 972 c 128
 520 981.333333333 557 986 595 986 c 0
 659.666666667 986 720.666666667 973 778 947 c 128
 835.333333333 921 885.166666667 885.666666667 927.5 841 c 128
 969.833333333 796.333333333 1003.33333333 744 1028 684 c 128
 1052.66666667 624 1065 560 1065 492 c 256
224 846 m 1
 210 830.666666667 196.5 814.166666667 183.5 796.5 c 128
 170.5 778.833333333 158.333333333 760.333333333 147 741 c 128
 135.666666667 721.666666667 126 701.333333333 118 680 c 128
 110 658.666666667 104 637 100 615 c 0
 94.6666666667 585 92.6666666667 555.333333333 94 526 c 128
 95.3333333333 496.666666667 99.3333333333 468 106 440 c 128
 112.666666667 412 122 385.166666667 134 359.5 c 128
 146 333.833333333 159.666666667 310 175 288 c 1
 107 245 l 1
 69 297.666666667 41 355.333333333 23 418 c 128
 5 480.666666667 2.33333333333 547.666666667 15 619 c 0
 19.6666666667 646.333333333 26.6666666667 673.333333333 36 700 c 128
 45.3333333333 726.666666667 56.5 752.333333333 69.5 777 c 128
 82.5 801.666666667 97 824.833333333 113 846.5 c 128
 129 868.166666667 146 888 164 906 c 1
 214 863 l 1
 218.666666667 869 223.333333333 874.333333333 228 879 c 128
 232.666666667 883.666666667 237.833333333 888.5 243.5 893.5 c 128
 249.166666667 898.5 255.5 903.666666667 262.5 909 c 128
 269.5 914.333333333 278 920.666666667 288 928 c 1
 302 916 l 1
 286.666666667 904 272 892.166666667 258 880.5 c 128
 244 868.833333333 233 857.333333333 225 846 c 1
 224 846 l 1
1501 249 m 1
 1115 249 l 1
 1115 -67 l 1
 208 -67 l 1
 208 364 l 1
 208 372 l 1
 227 371 l 1
 227 364 l 1
 227 -50 l 1
 1097 -50 l 1
 1097 266 l 1
 1501 266 l 1
 1509 266 l 1
 1509 249 l 1
 1501 249 l 1
EndSplineSet
Validated: 33
EndChar

StartChar: onesuperior
Encoding: 23 23 14
Width: 679
Flags: HW
LayerCount: 2
Back
Fore
SplineSet
487 583 m 1
 487 548 l 2
 487 546 486.333333333 544 485 542 c 128
 483.666666667 540 481.333333333 539 478 539 c 2
 351 539 l 1
 334 539 l 1
 334 573 l 2
 334 576.333333333 334.5 578.833333333 335.5 580.5 c 128
 336.5 582.166666667 339.666666667 583 345 583 c 2
 391 583 l 1
 391 757 l 2
 391 763 388 766 382 766 c 2
 366 766 l 1
 349 766 l 1
 349 800 l 1
 423 800 l 2
 428.333333333 800 431 797 431 791 c 2
 431 590 l 2
 431 585.333333333 433.333333333 583 438 583 c 2
 470 583 l 1
 487 583 l 1
620 777 m 1
 632.666666667 758.333333333 641.666666667 739.5 647 720.5 c 128
 652.333333333 701.5 655 680.333333333 655 657 c 0
 655 623.666666667 648.333333333 592.5 635 563.5 c 128
 621.666666667 534.5 603.5 509.333333333 580.5 488 c 128
 557.5 466.666666667 530.5 449.666666667 499.5 437 c 128
 468.5 424.333333333 435.333333333 418 400 418 c 0
 385.333333333 418 369.166666667 420 351.5 424 c 128
 333.833333333 428 318.333333333 432 305 436 c 0
 278.333333333 445.333333333 254.833333333 458.333333333 234.5 475 c 128
 214.166666667 491.666666667 196.666666667 511.333333333 182 534 c 1
 167 534 l 1
 169.666666667 528.666666667 172.166666667 524.166666667 174.5 520.5 c 128
 176.833333333 516.833333333 179.666666667 512.666666667 183 508 c 0
 205.666666667 476 234.666666667 452.333333333 270 437 c 1
 260 421 l 1
 240 429 222.666666667 439 208 451 c 128
 193.333333333 463 179.666666667 478.333333333 167 497 c 0
 159 507.666666667 152 520 146 534 c 1
 62 534 l 1
 62 654 l 1
 48 654 l 1
 39 654 l 1
 39 665 l 1
 47 665 l 1
 129 665 l 1
 133.666666667 699 145.166666667 731 163.5 761 c 128
 181.833333333 791 207 817 239 839 c 0
 275.666666667 865 315 880 357 884 c 128
 399 888 439 882.666666667 477 868 c 1
 494 891 l 1
 503 903 l 1
 527 884 l 1
 518 872 l 1
 489 835 l 1
 480 823 l 1
 456 842 l 1
 466 855 l 1
 430.666666667 869.666666667 394.666666667 875 358 871 c 128
 321.333333333 867 285 852.666666667 249 828 c 0
 219 807.333333333 195.666666667 783 179 755 c 128
 162.333333333 727 151.666666667 697 147 665 c 1
 202 665 l 1
 211 665 l 1
 211 654 l 1
 204 654 l 1
 145 654 l 1
 142.333333333 634.666666667 142.5 616.5 145.5 599.5 c 128
 148.5 582.5 154.333333333 564.666666667 163 546 c 1
 225 546 l 1
 233 546 l 1
 233 534 l 1
 227 534 l 1
 204 534 l 1
 225.333333333 502.666666667 253 478 287 460 c 128
 321 442 359.333333333 433 402 433 c 0
 434.666666667 433 465.333333333 438.833333333 494 450.5 c 128
 522.666666667 462.166666667 547.833333333 478.166666667 569.5 498.5 c 128
 591.166666667 518.833333333 608.166666667 542.5 620.5 569.5 c 128
 632.833333333 596.5 639 625.666666667 639 657 c 0
 639 697.666666667 628.333333333 735.333333333 607 770 c 1
 620 778 l 1
 620 777 l 1
141 546 m 1
 133.666666667 564.666666667 128.666666667 582.5 126 599.5 c 128
 123.333333333 616.5 123.666666667 634.666666667 127 654 c 1
 73 654 l 1
 73 546 l 1
 141 546 l 1
78 669 m 1
 65 669 l 1
 63.6666666667 672.333333333 61.5 675.5 58.5 678.5 c 128
 55.5 681.5 51.6666666667 683.333333333 47 684 c 0
 41.6666666667 684 36.6666666667 682 32 678 c 128
 27.3333333333 674 25 669.333333333 25 664 c 256
 25 658.666666667 27 653.5 31 648.5 c 128
 35 643.5 40 641 46 641 c 0
 50 641 54 641.666666667 58 643 c 1
 58 631 l 2
 56 630.333333333 54.1666666667 629.833333333 52.5 629.5 c 128
 50.8333333333 629.166666667 49 629 47 629 c 0
 37.6666666667 629 29.8333333333 632 23.5 638 c 128
 17.1666666667 644 14 651.666666667 14 661 c 256
 14 670.333333333 17.1666666667 678 23.5 684 c 128
 29.8333333333 690 37.6666666667 693 47 693 c 0
 54.3333333333 693 60.6666666667 690.666666667 66 686 c 128
 71.3333333333 681.333333333 75.3333333333 675.666666667 78 669 c 1
EndSplineSet
Validated: 33
EndChar

StartChar: threequarters
Encoding: 24 24 15
Width: 1161
Flags: HW
LayerCount: 2
Back
Fore
SplineSet
689 528 m 1
 686 528 l 1
 517 528 l 2
 509.666666667 528 505.166666667 530.5 503.5 535.5 c 128
 501.833333333 540.5 501 545 501 549 c 2
 501 596 l 1
 548 596 l 1
 548 570 l 1
 640 570 l 1
 640 590 l 1
 640 618 l 2
 640 627.333333333 640.166666667 635.833333333 640.5 643.5 c 2
 641 655 l 2
 641 663.666666667 637.666666667 670.166666667 631 674.5 c 128
 624.333333333 678.833333333 617 681 609 681 c 2
 544 681 l 1
 544 723 l 1
 638 724 l 1
 638 797 l 2
 638 804.333333333 635.333333333 808.833333333 630 810.5 c 128
 624.666666667 812.166666667 619.333333333 813 614 813 c 2
 550 813 l 1
 550 778 l 1
 504 778 l 1
 504 853 l 1
 593 853 l 1
 687 853 l 1
 687 743 l 2
 687 725.666666667 683.166666667 715.166666667 675.5 711.5 c 128
 667.833333333 707.833333333 655.333333333 706 638 706 c 1
 642.666666667 706 648 705 654 703 c 128
 660 701 665.5 698.333333333 670.5 695 c 128
 675.5 691.666666667 679.833333333 687.833333333 683.5 683.5 c 128
 687.166666667 679.166666667 689 674.666666667 689 670 c 2
 689 528 l 1
691 124 m 1
 653 124 l 1
 653 273 l 1
 570 273 l 2
 559.333333333 273 551 274.5 545 277.5 c 128
 539 280.5 534.666666667 284.166666667 532 288.5 c 128
 529.333333333 292.833333333 527.833333333 297.333333333 527.5 302 c 128
 527.166666667 306.666666667 527 310.333333333 527 313 c 2
 527 433 l 2
 527 436.333333333 527.833333333 440 529.5 444 c 128
 531.166666667 448 534.333333333 450 539 450 c 2
 560 450 l 1
 560 320 l 1
 653 320 l 1
 653 450 l 1
 691 450 l 1
 691 124 l 1
728 494 m 2
 728 480.666666667 720.333333333 474 705 474 c 2
 487 474 l 1
 487 489 l 2
 487 495 487.833333333 500 489.5 504 c 128
 491.166666667 508 496.666666667 510 506 510 c 2
 728 509 l 1
 728 494 l 2
1065 492 m 256
 1065 424 1052.66666667 360 1028 300 c 128
 1003.33333333 240 969.833333333 187.833333333 927.5 143.5 c 128
 885.166666667 99.1666666667 835.333333333 64 778 38 c 128
 720.666666667 12 659.666666667 -1 595 -1 c 0
 533 -1 474.666666667 11.1666666667 420 35.5 c 128
 365.333333333 59.8333333333 317 92.3333333333 275 133 c 1
 335 183 l 1
 369.666666667 148.333333333 409.333333333 121.333333333 454 102 c 128
 498.666666667 82.6666666667 546.333333333 73 597 73 c 0
 650.333333333 73 700.333333333 84 747 106 c 128
 793.666666667 128 834.5 158 869.5 196 c 128
 904.5 234 932 278.333333333 952 329 c 128
 972 379.666666667 982 434 982 492 c 256
 982 550 972 604.5 952 655.5 c 128
 932 706.5 904.5 751 869.5 789 c 128
 834.5 827 793.666666667 857 747 879 c 128
 700.333333333 901 650.333333333 912 597 912 c 0
 531 912 470.333333333 895.666666667 415 863 c 128
 359.666666667 830.333333333 314.333333333 787 279 733 c 1
 227 772 l 1
 211.666666667 751.333333333 200.333333333 733.333333333 193 718 c 128
 185.666666667 702.666666667 180.333333333 692.333333333 177 687 c 1
 159 697 l 1
 165.666666667 713 174.333333333 728.833333333 185 744.5 c 128
 195.666666667 760.166666667 206.666666667 775.666666667 218 791 c 0
 240 820.333333333 264.833333333 847 292.5 871 c 128
 320.166666667 895 350 915.5 382 932.5 c 128
 414 949.5 448 962.666666667 484 972 c 128
 520 981.333333333 557 986 595 986 c 0
 659.666666667 986 720.666666667 973 778 947 c 128
 835.333333333 921 885.166666667 885.666666667 927.5 841 c 128
 969.833333333 796.333333333 1003.33333333 744 1028 684 c 128
 1052.66666667 624 1065 560 1065 492 c 256
224 846 m 1
 210 830.666666667 196.5 814.166666667 183.5 796.5 c 128
 170.5 778.833333333 158.333333333 760.333333333 147 741 c 128
 135.666666667 721.666666667 126 701.333333333 118 680 c 128
 110 658.666666667 104 637 100 615 c 0
 94.6666666667 585 92.6666666667 555.333333333 94 526 c 128
 95.3333333333 496.666666667 99.3333333333 468 106 440 c 128
 112.666666667 412 122 385.166666667 134 359.5 c 128
 146 333.833333333 159.666666667 310 175 288 c 1
 107 245 l 1
 69 297.666666667 41 355.333333333 23 418 c 128
 5 480.666666667 2.33333333333 547.666666667 15 619 c 0
 19.6666666667 646.333333333 26.6666666667 673.333333333 36 700 c 128
 45.3333333333 726.666666667 56.5 752.333333333 69.5 777 c 128
 82.5 801.666666667 97 824.833333333 113 846.5 c 128
 129 868.166666667 146 888 164 906 c 1
 214 863 l 1
 218.666666667 869 223.333333333 874.333333333 228 879 c 128
 232.666666667 883.666666667 237.833333333 888.5 243.5 893.5 c 128
 249.166666667 898.5 255.5 903.666666667 262.5 909 c 128
 269.5 914.333333333 278 920.666666667 288 928 c 1
 302 916 l 1
 286.666666667 904 272 892.166666667 258 880.5 c 128
 244 868.833333333 233 857.333333333 225 846 c 1
 224 846 l 1
1501 249 m 1
 1115 249 l 1
 1115 -67 l 1
 208 -67 l 1
 208 364 l 1
 208 372 l 1
 227 371 l 1
 227 364 l 1
 227 -50 l 1
 1097 -50 l 1
 1097 266 l 1
 1501 266 l 1
 1509 266 l 1
 1509 249 l 1
 1501 249 l 1
EndSplineSet
Validated: 33
EndChar

StartChar: threesuperior
Encoding: 25 25 16
Width: 679
Flags: HW
LayerCount: 2
Back
Fore
SplineSet
468 539 m 1
 465 539 l 1
 330 539 l 2
 324 539 320.333333333 541 319 545 c 128
 317.666666667 549 317 552.666666667 317 556 c 2
 317 594 l 1
 355 594 l 1
 355 573 l 1
 429 573 l 1
 429 641 l 2
 429 648.333333333 426.333333333 653.666666667 421 657 c 128
 415.666666667 660.333333333 410 662 404 662 c 2
 352 662 l 1
 352 696 l 1
 427 696 l 1
 426 755 l 2
 426 760.333333333 424 763.833333333 420 765.5 c 128
 416 767.166666667 411.666666667 768 407 768 c 2
 356 768 l 1
 356 739 l 1
 320 739 l 1
 320 800 l 1
 391 800 l 1
 465 800 l 1
 465 712 l 2
 465 698.666666667 462 690.333333333 456 687 c 128
 450 683.666666667 440.333333333 682 427 682 c 1
 434.333333333 682 443 679 453 673 c 128
 463 667 468 660.333333333 468 653 c 2
 468 539 l 1
620 777 m 1
 632.666666667 758.333333333 641.666666667 739.5 647 720.5 c 128
 652.333333333 701.5 655 680.333333333 655 657 c 0
 655 623.666666667 648.333333333 592.5 635 563.5 c 128
 621.666666667 534.5 603.5 509.333333333 580.5 488 c 128
 557.5 466.666666667 530.5 449.666666667 499.5 437 c 128
 468.5 424.333333333 435.333333333 418 400 418 c 0
 385.333333333 418 369.166666667 420 351.5 424 c 128
 333.833333333 428 318.333333333 432 305 436 c 0
 278.333333333 445.333333333 254.833333333 458.333333333 234.5 475 c 128
 214.166666667 491.666666667 196.666666667 511.333333333 182 534 c 1
 167 534 l 1
 169.666666667 528.666666667 172.166666667 524.166666667 174.5 520.5 c 128
 176.833333333 516.833333333 179.666666667 512.666666667 183 508 c 0
 205.666666667 476 234.666666667 452.333333333 270 437 c 1
 260 421 l 1
 240 429 222.666666667 439 208 451 c 128
 193.333333333 463 179.666666667 478.333333333 167 497 c 0
 159 507.666666667 152 520 146 534 c 1
 62 534 l 1
 62 654 l 1
 48 654 l 1
 39 654 l 1
 39 665 l 1
 47 665 l 1
 129 665 l 1
 133.666666667 699 145.166666667 731 163.5 761 c 128
 181.833333333 791 207 817 239 839 c 0
 275.666666667 865 315 880 357 884 c 128
 399 888 439 882.666666667 477 868 c 1
 494 891 l 1
 503 903 l 1
 527 884 l 1
 518 872 l 1
 489 835 l 1
 480 823 l 1
 456 842 l 1
 466 855 l 1
 430.666666667 869.666666667 394.666666667 875 358 871 c 128
 321.333333333 867 285 852.666666667 249 828 c 0
 219 807.333333333 195.666666667 783 179 755 c 128
 162.333333333 727 151.666666667 697 147 665 c 1
 202 665 l 1
 211 665 l 1
 211 654 l 1
 204 654 l 1
 145 654 l 1
 142.333333333 634.666666667 142.5 616.5 145.5 599.5 c 128
 148.5 582.5 154.333333333 564.666666667 163 546 c 1
 225 546 l 1
 233 546 l 1
 233 534 l 1
 227 534 l 1
 204 534 l 1
 225.333333333 502.666666667 253 478 287 460 c 128
 321 442 359.333333333 433 402 433 c 0
 434.666666667 433 465.333333333 438.833333333 494 450.5 c 128
 522.666666667 462.166666667 547.833333333 478.166666667 569.5 498.5 c 128
 591.166666667 518.833333333 608.166666667 542.5 620.5 569.5 c 128
 632.833333333 596.5 639 625.666666667 639 657 c 0
 639 697.666666667 628.333333333 735.333333333 607 770 c 1
 620 778 l 1
 620 777 l 1
141 546 m 1
 133.666666667 564.666666667 128.666666667 582.5 126 599.5 c 128
 123.333333333 616.5 123.666666667 634.666666667 127 654 c 1
 73 654 l 1
 73 546 l 1
 141 546 l 1
78 669 m 1
 65 669 l 1
 63.6666666667 672.333333333 61.5 675.5 58.5 678.5 c 128
 55.5 681.5 51.6666666667 683.333333333 47 684 c 0
 41.6666666667 684 36.6666666667 682 32 678 c 128
 27.3333333333 674 25 669.333333333 25 664 c 256
 25 658.666666667 27 653.5 31 648.5 c 128
 35 643.5 40 641 46 641 c 0
 50 641 54 641.666666667 58 643 c 1
 58 631 l 2
 56 630.333333333 54.1666666667 629.833333333 52.5 629.5 c 128
 50.8333333333 629.166666667 49 629 47 629 c 0
 37.6666666667 629 29.8333333333 632 23.5 638 c 128
 17.1666666667 644 14 651.666666667 14 661 c 256
 14 670.333333333 17.1666666667 678 23.5 684 c 128
 29.8333333333 690 37.6666666667 693 47 693 c 0
 54.3333333333 693 60.6666666667 690.666666667 66 686 c 128
 71.3333333333 681.333333333 75.3333333333 675.666666667 78 669 c 1
EndSplineSet
Validated: 33
EndChar

StartChar: twosuperior
Encoding: 26 26 17
Width: 679
Flags: HW
LayerCount: 2
Back
Fore
SplineSet
467 540 m 1
 329 540 l 1
 329 681 l 1
 428 681 l 1
 428 755 l 2
 428 759 427.666666667 762.333333333 427 765 c 128
 426.333333333 767.666666667 424 769 420 769 c 2
 367 769 l 1
 367 756 l 2
 367 750 363.333333333 747 356 747 c 2
 329 747 l 1
 329 789 l 2
 329 796.333333333 332.666666667 800 340 800 c 2
 467 800 l 1
 467 671 l 2
 467 663 465.166666667 656.833333333 461.5 652.5 c 128
 457.833333333 648.166666667 450.666666667 646 440 646 c 2
 363 646 l 1
 363 586 l 2
 363 578.666666667 366.666666667 575 374 575 c 2
 467 575 l 1
 467 540 l 1
620 777 m 1
 632.666666667 758.333333333 641.666666667 739.5 647 720.5 c 128
 652.333333333 701.5 655 680.333333333 655 657 c 0
 655 623.666666667 648.333333333 592.5 635 563.5 c 128
 621.666666667 534.5 603.5 509.333333333 580.5 488 c 128
 557.5 466.666666667 530.5 449.666666667 499.5 437 c 128
 468.5 424.333333333 435.333333333 418 400 418 c 0
 385.333333333 418 369.166666667 420 351.5 424 c 128
 333.833333333 428 318.333333333 432 305 436 c 0
 278.333333333 445.333333333 254.833333333 458.333333333 234.5 475 c 128
 214.166666667 491.666666667 196.666666667 511.333333333 182 534 c 1
 167 534 l 1
 169.666666667 528.666666667 172.166666667 524.166666667 174.5 520.5 c 128
 176.833333333 516.833333333 179.666666667 512.666666667 183 508 c 0
 205.666666667 476 234.666666667 452.333333333 270 437 c 1
 260 421 l 1
 240 429 222.666666667 439 208 451 c 128
 193.333333333 463 179.666666667 478.333333333 167 497 c 0
 159 507.666666667 152 520 146 534 c 1
 62 534 l 1
 62 654 l 1
 48 654 l 1
 39 654 l 1
 39 665 l 1
 47 665 l 1
 129 665 l 1
 133.666666667 699 145.166666667 731 163.5 761 c 128
 181.833333333 791 207 817 239 839 c 0
 275.666666667 865 315 880 357 884 c 128
 399 888 439 882.666666667 477 868 c 1
 494 891 l 1
 503 903 l 1
 527 884 l 1
 518 872 l 1
 489 835 l 1
 480 823 l 1
 456 842 l 1
 466 855 l 1
 430.666666667 869.666666667 394.666666667 875 358 871 c 128
 321.333333333 867 285 852.666666667 249 828 c 0
 219 807.333333333 195.666666667 783 179 755 c 128
 162.333333333 727 151.666666667 697 147 665 c 1
 202 665 l 1
 211 665 l 1
 211 654 l 1
 204 654 l 1
 145 654 l 1
 142.333333333 634.666666667 142.5 616.5 145.5 599.5 c 128
 148.5 582.5 154.333333333 564.666666667 163 546 c 1
 225 546 l 1
 233 546 l 1
 233 534 l 1
 227 534 l 1
 204 534 l 1
 225.333333333 502.666666667 253 478 287 460 c 128
 321 442 359.333333333 433 402 433 c 0
 434.666666667 433 465.333333333 438.833333333 494 450.5 c 128
 522.666666667 462.166666667 547.833333333 478.166666667 569.5 498.5 c 128
 591.166666667 518.833333333 608.166666667 542.5 620.5 569.5 c 128
 632.833333333 596.5 639 625.666666667 639 657 c 0
 639 697.666666667 628.333333333 735.333333333 607 770 c 1
 620 778 l 1
 620 777 l 1
141 546 m 1
 133.666666667 564.666666667 128.666666667 582.5 126 599.5 c 128
 123.333333333 616.5 123.666666667 634.666666667 127 654 c 1
 73 654 l 1
 73 546 l 1
 141 546 l 1
78 669 m 1
 65 669 l 1
 63.6666666667 672.333333333 61.5 675.5 58.5 678.5 c 128
 55.5 681.5 51.6666666667 683.333333333 47 684 c 0
 41.6666666667 684 36.6666666667 682 32 678 c 128
 27.3333333333 674 25 669.333333333 25 664 c 256
 25 658.666666667 27 653.5 31 648.5 c 128
 35 643.5 40 641 46 641 c 0
 50 641 54 641.666666667 58 643 c 1
 58 631 l 2
 56 630.333333333 54.1666666667 629.833333333 52.5 629.5 c 128
 50.8333333333 629.166666667 49 629 47 629 c 0
 37.6666666667 629 29.8333333333 632 23.5 638 c 128
 17.1666666667 644 14 651.666666667 14 661 c 256
 14 670.333333333 17.1666666667 678 23.5 684 c 128
 29.8333333333 690 37.6666666667 693 47 693 c 0
 54.3333333333 693 60.6666666667 690.666666667 66 686 c 128
 71.3333333333 681.333333333 75.3333333333 675.666666667 78 669 c 1
EndSplineSet
Validated: 33
EndChar

StartChar: brokenbar
Encoding: 27 27 18
Width: 555
Flags: HW
LayerCount: 2
Back
Fore
SplineSet
12 262 m 1
 204 262 l 1
 205 375 l 1
 224 374 l 1
 224 137 l 1
 204 137 l 1
 204 247 l 1
 11 247 l 1
 3 247 l 1
 3 262 l 1
 12 262 l 1
805 263 m 1
 813 263 l 1
 813 248 l 1
 805 248 l 1
 367 248 l 1
 367 137 l 1
 347 138 l 1
 347 375 l 1
 367 375 l 1
 367 263 l 1
 805 263 l 1
321 938 m 1
 321 569 l 2
 321 550.333333333 317.666666667 536 311 526 c 128
 304.333333333 516 296 511 286 511 c 2
 247 511 l 1
 246 876 l 2
 246 917.333333333 258.333333333 938 283 938 c 2
 321 938 l 1
322 435 m 1
 322 66 l 2
 322 47.3333333333 318.666666667 33 312 23 c 128
 305.333333333 13 297 8 287 8 c 2
 247 8 l 1
 247 373 l 2
 247 414.333333333 259.333333333 435 284 435 c 2
 322 435 l 1
EndSplineSet
Validated: 1
EndChar

StartChar: minus
Encoding: 28 28 19
Width: 472
Flags: HW
LayerCount: 2
Back
Fore
SplineSet
461 297 m 2
 461 286.333333333 458 277.666666667 452 271 c 128
 446 264.333333333 437 261 425 261 c 2
 100 261 l 1
 99 288 l 2
 99 298.666666667 100.166666667 307.5 102.5 314.5 c 128
 104.833333333 321.5 113 325 127 325 c 2
 461 324 l 1
 461 297 l 2
EndSplineSet
Validated: 1
EndChar

StartChar: multiply
Encoding: 29 29 20
Width: 521
Flags: HW
LayerCount: 2
Back
Fore
SplineSet
521 109 m 1
 495 84 l 2
 488.333333333 76.6666666667 479.666666667 72.8333333333 469 72.5 c 128
 458.333333333 72.1666666667 449.333333333 76 442 84 c 2
 301 226 l 1
 132 57 l 1
 105 84 l 2
 89 100.666666667 89 117 105 133 c 2
 248 277 l 1
 81 444 l 1
 108 471 l 2
 114.666666667 478.333333333 122.333333333 482.5 131 483.5 c 128
 139.666666667 484.5 149 480 159 470 c 2
 300 330 l 1
 470 499 l 1
 496 473 l 2
 504.666666667 463.666666667 508.666666667 454.666666667 508 446 c 128
 507.333333333 437.333333333 503.333333333 429.333333333 496 422 c 2
 352 277 l 1
 521 109 l 1
805 263 m 1
 813 263 l 1
 813 248 l 1
 805 248 l 1
 491 249 l 1
 491 177 l 1
 471 177 l 1
 471 335 l 1
 491 335 l 1
 491 263 l 1
 805 263 l 1
EndSplineSet
Validated: 33
EndChar

StartChar: exclam
Encoding: 33 33 21
Width: 1161
Flags: HW
LayerCount: 2
Back
Fore
SplineSet
616 780 m 2
 615 373 l 1
 553 373 l 2
 543.666666667 373 537.833333333 374.333333333 535.5 377 c 128
 533.166666667 379.666666667 532.333333333 385.666666667 533 395 c 2
 532 800 l 1
 593 800 l 2
 608.333333333 800 616 793.333333333 616 780 c 2
615 221 m 1
 554 221 l 2
 543.333333333 221 537 222.333333333 535 225 c 128
 533 227.666666667 532 233.666666667 532 243 c 2
 532 304 l 1
 598 304 l 2
 609.333333333 304 615 297.666666667 615 285 c 2
 615 221 l 1
112 196 m 2
 112 53 l 1
 90 53 l 2
 85.3333333333 53 83 55.6666666667 83 61 c 2
 83 203 l 1
 104 203 l 2
 109.333333333 203 112 200.666666667 112 196 c 2
112 0 m 1
 90 0 l 2
 86.6666666667 0 84.6666666667 0.5 84 1.5 c 128
 83.3333333333 2.5 83 4.66666666667 83 8 c 2
 83 29 l 1
 106 29 l 2
 110 29 112 26.6666666667 112 22 c 2
 112 0 l 1
1065 492 m 256
 1065 424 1052.66666667 360 1028 300 c 128
 1003.33333333 240 969.833333333 187.833333333 927.5 143.5 c 128
 885.166666667 99.1666666667 835.333333333 64 778 38 c 128
 720.666666667 12 659.666666667 -1 595 -1 c 0
 533 -1 474.666666667 11.1666666667 420 35.5 c 128
 365.333333333 59.8333333333 317 92.3333333333 275 133 c 1
 335 183 l 1
 369.666666667 148.333333333 409.333333333 121.333333333 454 102 c 128
 498.666666667 82.6666666667 546.333333333 73 597 73 c 0
 650.333333333 73 700.333333333 84 747 106 c 128
 793.666666667 128 834.5 158 869.5 196 c 128
 904.5 234 932 278.333333333 952 329 c 128
 972 379.666666667 982 434 982 492 c 256
 982 550 972 604.5 952 655.5 c 128
 932 706.5 904.5 751 869.5 789 c 128
 834.5 827 793.666666667 857 747 879 c 128
 700.333333333 901 650.333333333 912 597 912 c 0
 531 912 470.333333333 895.666666667 415 863 c 128
 359.666666667 830.333333333 314.333333333 787 279 733 c 1
 227 772 l 1
 211.666666667 751.333333333 200.333333333 733.333333333 193 718 c 128
 185.666666667 702.666666667 180.333333333 692.333333333 177 687 c 1
 159 697 l 1
 165.666666667 713 174.333333333 728.833333333 185 744.5 c 128
 195.666666667 760.166666667 206.666666667 775.666666667 218 791 c 0
 240 820.333333333 264.833333333 847 292.5 871 c 128
 320.166666667 895 350 915.5 382 932.5 c 128
 414 949.5 448 962.666666667 484 972 c 128
 520 981.333333333 557 986 595 986 c 0
 659.666666667 986 720.666666667 973 778 947 c 128
 835.333333333 921 885.166666667 885.666666667 927.5 841 c 128
 969.833333333 796.333333333 1003.33333333 744 1028 684 c 128
 1052.66666667 624 1065 560 1065 492 c 256
224 846 m 1
 210 830.666666667 196.5 814.166666667 183.5 796.5 c 128
 170.5 778.833333333 158.333333333 760.333333333 147 741 c 128
 135.666666667 721.666666667 126 701.333333333 118 680 c 128
 110 658.666666667 104 637 100 615 c 0
 94.6666666667 585 92.6666666667 555.333333333 94 526 c 128
 95.3333333333 496.666666667 99.3333333333 468 106 440 c 128
 112.666666667 412 122 385.166666667 134 359.5 c 128
 146 333.833333333 159.666666667 310 175 288 c 1
 107 245 l 1
 69 297.666666667 41 355.333333333 23 418 c 128
 5 480.666666667 2.33333333333 547.666666667 15 619 c 0
 19.6666666667 646.333333333 26.6666666667 673.333333333 36 700 c 128
 45.3333333333 726.666666667 56.5 752.333333333 69.5 777 c 128
 82.5 801.666666667 97 824.833333333 113 846.5 c 128
 129 868.166666667 146 888 164 906 c 1
 214 863 l 1
 218.666666667 869 223.333333333 874.333333333 228 879 c 128
 232.666666667 883.666666667 237.833333333 888.5 243.5 893.5 c 128
 249.166666667 898.5 255.5 903.666666667 262.5 909 c 128
 269.5 914.333333333 278 920.666666667 288 928 c 1
 302 916 l 1
 286.666666667 904 272 892.166666667 258 880.5 c 128
 244 868.833333333 233 857.333333333 225 846 c 1
 224 846 l 1
1501 249 m 1
 1115 249 l 1
 1115 -67 l 1
 208 -67 l 1
 208 364 l 1
 208 372 l 1
 227 371 l 1
 227 364 l 1
 227 -50 l 1
 1097 -50 l 1
 1097 266 l 1
 1501 266 l 1
 1509 266 l 1
 1509 249 l 1
 1501 249 l 1
EndSplineSet
Validated: 33
EndChar

StartChar: quotedbl
Encoding: 34 34 22
Width: 663
Flags: HW
LayerCount: 2
Back
Fore
SplineSet
620 777 m 1
 632.666666667 758.333333333 641.666666667 739.5 647 720.5 c 128
 652.333333333 701.5 655 680.333333333 655 657 c 0
 655 623.666666667 648.333333333 592.5 635 563.5 c 128
 621.666666667 534.5 603.5 509.333333333 580.5 488 c 128
 557.5 466.666666667 530.5 449.666666667 499.5 437 c 128
 468.5 424.333333333 435.333333333 418 400 418 c 0
 385.333333333 418 371.833333333 418.833333333 359.5 420.5 c 128
 347.166666667 422.166666667 334.333333333 425 321 429 c 1
 321 362 l 1
 333 362 344.666666667 359.333333333 356 354 c 128
 367.333333333 348.666666667 377.166666667 341.166666667 385.5 331.5 c 128
 393.833333333 321.833333333 400.5 310.833333333 405.5 298.5 c 128
 410.5 286.166666667 413 273 413 259 c 2
 413 254 l 1
 936 254 l 1
 943 254 l 1
 943 239 l 1
 936 239 l 1
 410 239 l 1
 405.333333333 215.666666667 394 196.333333333 376 181 c 128
 358 165.666666667 336.666666667 158 312 158 c 0
 298 158 284.833333333 160.666666667 272.5 166 c 128
 260.166666667 171.333333333 249.5 178.5 240.5 187.5 c 128
 231.5 196.5 224.333333333 207.166666667 219 219.5 c 128
 213.666666667 231.833333333 211 245 211 259 c 0
 211 286.333333333 219.833333333 309.666666667 237.5 329 c 128
 255.166666667 348.333333333 277.666666667 358.666666667 305 360 c 1
 305 434 l 1
 277.666666667 444 254 457.5 234 474.5 c 128
 214 491.5 196.666666667 511.333333333 182 534 c 1
 167 534 l 1
 169.666666667 528.666666667 172.166666667 524.166666667 174.5 520.5 c 128
 176.833333333 516.833333333 179.666666667 512.666666667 183 508 c 0
 205.666666667 476 234.666666667 452.333333333 270 437 c 1
 260 421 l 1
 240 429 222.666666667 439 208 451 c 128
 193.333333333 463 179.666666667 478.333333333 167 497 c 0
 159 507.666666667 152 520 146 534 c 1
 62 534 l 1
 62 654 l 1
 48 654 l 1
 39 654 l 1
 39 665 l 1
 47 665 l 1
 129 665 l 1
 133.666666667 699 145.166666667 731 163.5 761 c 128
 181.833333333 791 207 817 239 839 c 0
 275.666666667 865 315 880 357 884 c 128
 399 888 439 882.666666667 477 868 c 1
 494 891 l 1
 503 903 l 1
 527 884 l 1
 518 872 l 1
 489 835 l 1
 480 823 l 1
 456 842 l 1
 466 855 l 1
 430.666666667 869.666666667 394.666666667 875 358 871 c 128
 321.333333333 867 285 852.666666667 249 828 c 0
 219 807.333333333 195.666666667 783 179 755 c 128
 162.333333333 727 151.666666667 697 147 665 c 1
 202 665 l 1
 211 665 l 1
 211 654 l 1
 204 654 l 1
 145 654 l 1
 142.333333333 634.666666667 142.5 616.5 145.5 599.5 c 128
 148.5 582.5 154.333333333 564.666666667 163 546 c 1
 225 546 l 1
 233 546 l 1
 233 534 l 1
 227 534 l 1
 204 534 l 1
 225.333333333 502.666666667 253 478 287 460 c 128
 321 442 359.333333333 433 402 433 c 0
 434.666666667 433 465.333333333 438.833333333 494 450.5 c 128
 522.666666667 462.166666667 547.833333333 478.166666667 569.5 498.5 c 128
 591.166666667 518.833333333 608.166666667 542.5 620.5 569.5 c 128
 632.833333333 596.5 639 625.666666667 639 657 c 0
 639 697.666666667 628.333333333 735.333333333 607 770 c 1
 620 778 l 1
 620 777 l 1
141 546 m 1
 133.666666667 564.666666667 128.666666667 582.5 126 599.5 c 128
 123.333333333 616.5 123.666666667 634.666666667 127 654 c 1
 73 654 l 1
 73 546 l 1
 141 546 l 1
78 669 m 1
 65 669 l 1
 63.6666666667 672.333333333 61.5 675.5 58.5 678.5 c 128
 55.5 681.5 51.6666666667 683.333333333 47 684 c 0
 41.6666666667 684 36.6666666667 682 32 678 c 128
 27.3333333333 674 25 669.333333333 25 664 c 256
 25 658.666666667 27 653.5 31 648.5 c 128
 35 643.5 40 641 46 641 c 0
 50 641 54 641.666666667 58 643 c 1
 58 631 l 2
 56 630.333333333 54.1666666667 629.833333333 52.5 629.5 c 128
 50.8333333333 629.166666667 49 629 47 629 c 0
 37.6666666667 629 29.8333333333 632 23.5 638 c 128
 17.1666666667 644 14 651.666666667 14 661 c 256
 14 670.333333333 17.1666666667 678 23.5 684 c 128
 29.8333333333 690 37.6666666667 693 47 693 c 0
 54.3333333333 693 60.6666666667 690.666666667 66 686 c 128
 71.3333333333 681.333333333 75.3333333333 675.666666667 78 669 c 1
272 239 m 1
 265 239 l 1
 265 254 l 1
 305 254 l 1
 305 270 l 1
 305 340 l 1
 281.666666667 340 263 332.666666667 249 318 c 128
 235 303.333333333 228 284.666666667 228 262 c 0
 228 238.666666667 236 218.666666667 252 202 c 128
 268 185.333333333 287.333333333 177 310 177 c 0
 329.333333333 177 346.5 182.833333333 361.5 194.5 c 128
 376.5 206.166666667 386 221 390 239 c 1
 272 239 l 1
392 259 m 2
 392 279.666666667 385.166666667 297.666666667 371.5 313 c 128
 357.833333333 328.333333333 341 337.666666667 321 341 c 1
 321 269 l 1
 321 254 l 1
 392 254 l 1
 392 259 l 2
391 694 m 1
 391 661 l 1
 391 513 l 1
 381.666666667 513 375.333333333 512.666666667 372 512 c 128
 368.666666667 511.333333333 363.333333333 511.666666667 356 513 c 0
 351.333333333 513 346.333333333 517.166666667 341 525.5 c 128
 335.666666667 533.833333333 330.833333333 543.666666667 326.5 555 c 128
 322.166666667 566.333333333 318.5 577.666666667 315.5 589 c 128
 312.5 600.333333333 311 609.333333333 311 616 c 0
 311 629.333333333 310.666666667 642.666666667 310 656 c 128
 309.333333333 669.333333333 309 687.333333333 309 710 c 2
 309 782 l 1
 336 785 l 2
 358 785 372.666666667 781.166666667 380 773.5 c 128
 387.333333333 765.833333333 391 754.333333333 391 739 c 2
 391 694 l 1
500 677 m 1
 500 635 l 1
 500 512 l 1
 490.666666667 512 484.333333333 511.666666667 481 511 c 128
 477.666666667 510.333333333 472.333333333 510.666666667 465 512 c 0
 460.333333333 512 455.333333333 516.166666667 450 524.5 c 128
 444.666666667 532.833333333 439.5 542.666666667 434.5 554 c 128
 429.5 565.333333333 425.333333333 576.666666667 422 588 c 128
 418.666666667 599.333333333 417 608.333333333 417 615 c 2
 417 709 l 1
 417 781 l 1
 451 780 l 2
 473 780 486.666666667 777.166666667 492 771.5 c 128
 497.333333333 765.833333333 500 755.333333333 500 740 c 2
 500 677 l 1
EndSplineSet
Validated: 33
EndChar

StartChar: numbersign
Encoding: 35 35 23
Width: 1161
Flags: HW
LayerCount: 2
Back
Fore
SplineSet
829 411 m 1
 712 411 l 1
 712 265 l 2
 712 255.666666667 708.833333333 247.833333333 702.5 241.5 c 128
 696.166666667 235.166666667 689.666666667 232 683 232 c 2
 654 232 l 1
 654 411 l 1
 503 411 l 1
 503 263 l 2
 503 253.666666667 500 246.166666667 494 240.5 c 128
 488 234.833333333 481.666666667 232 475 232 c 2
 446 232 l 1
 446 411 l 1
 357 411 l 2
 349 411 342.333333333 414.5 337 421.5 c 128
 331.666666667 428.5 329 435.666666667 329 443 c 2
 329 476 l 1
 446 476 l 1
 446 584 l 1
 358 584 l 2
 350 584 343.166666667 587.666666667 337.5 595 c 128
 331.833333333 602.333333333 329 609.666666667 329 617 c 2
 329 649 l 1
 446 649 l 1
 446 768 l 2
 446 789.333333333 455.333333333 800 474 800 c 2
 503 800 l 1
 503 649 l 1
 654 649 l 1
 654 768 l 2
 654 789.333333333 663.333333333 800 682 800 c 2
 711 800 l 1
 712 649 l 1
 800 649 l 2
 819.333333333 649 829 638.333333333 829 617 c 2
 829 584 l 1
 712 584 l 1
 712 476 l 1
 800 476 l 2
 819.333333333 476 829 465.333333333 829 444 c 2
 829 411 l 1
654 476 m 1
 654 584 l 1
 503 584 l 1
 503 476 l 1
 654 476 l 1
195 63 m 1
 154 62 l 1
 154 12 l 2
 154 8.66666666667 152.833333333 5.83333333333 150.5 3.5 c 128
 148.166666667 1.16666666667 146 0 144 0 c 2
 134 0 l 1
 134 62 l 1
 81 62 l 1
 81 11 l 2
 81 3.66666666667 77.6666666667 0 71 0 c 2
 61 0 l 1
 61 62 l 1
 30 62 l 2
 26.6666666667 62 24.1666666667 63.3333333333 22.5 66 c 128
 20.8333333333 68.6666666667 20 71.3333333333 20 74 c 2
 20 85 l 1
 61 85 l 1
 61 123 l 1
 30 123 l 2
 27.3333333333 123 25 124.166666667 23 126.5 c 128
 21 128.833333333 20 131.666666667 20 135 c 2
 20 146 l 1
 61 146 l 1
 61 187 l 2
 61 195 64.3333333333 199 71 199 c 2
 81 199 l 1
 81 146 l 1
 134 146 l 1
 134 187 l 2
 134 195 137.333333333 199 144 199 c 2
 154 199 l 1
 154 146 l 1
 185 146 l 2
 191.666666667 146 195 142.333333333 195 135 c 2
 195 123 l 1
 154 123 l 1
 154 85 l 1
 185 85 l 2
 191.666666667 85 195 81.3333333333 195 74 c 2
 195 63 l 1
134 85 m 1
 134 123 l 1
 81 123 l 1
 81 85 l 1
 134 85 l 1
1065 492 m 256
 1065 424 1052.66666667 360 1028 300 c 128
 1003.33333333 240 969.833333333 187.833333333 927.5 143.5 c 128
 885.166666667 99.1666666667 835.333333333 64 778 38 c 128
 720.666666667 12 659.666666667 -1 595 -1 c 0
 533 -1 474.666666667 11.1666666667 420 35.5 c 128
 365.333333333 59.8333333333 317 92.3333333333 275 133 c 1
 335 183 l 1
 369.666666667 148.333333333 409.333333333 121.333333333 454 102 c 128
 498.666666667 82.6666666667 546.333333333 73 597 73 c 0
 650.333333333 73 700.333333333 84 747 106 c 128
 793.666666667 128 834.5 158 869.5 196 c 128
 904.5 234 932 278.333333333 952 329 c 128
 972 379.666666667 982 434 982 492 c 256
 982 550 972 604.5 952 655.5 c 128
 932 706.5 904.5 751 869.5 789 c 128
 834.5 827 793.666666667 857 747 879 c 128
 700.333333333 901 650.333333333 912 597 912 c 0
 531 912 470.333333333 895.666666667 415 863 c 128
 359.666666667 830.333333333 314.333333333 787 279 733 c 1
 227 772 l 1
 211.666666667 751.333333333 200.333333333 733.333333333 193 718 c 128
 185.666666667 702.666666667 180.333333333 692.333333333 177 687 c 1
 159 697 l 1
 165.666666667 713 174.333333333 728.833333333 185 744.5 c 128
 195.666666667 760.166666667 206.666666667 775.666666667 218 791 c 0
 240 820.333333333 264.833333333 847 292.5 871 c 128
 320.166666667 895 350 915.5 382 932.5 c 128
 414 949.5 448 962.666666667 484 972 c 128
 520 981.333333333 557 986 595 986 c 0
 659.666666667 986 720.666666667 973 778 947 c 128
 835.333333333 921 885.166666667 885.666666667 927.5 841 c 128
 969.833333333 796.333333333 1003.33333333 744 1028 684 c 128
 1052.66666667 624 1065 560 1065 492 c 256
224 846 m 1
 210 830.666666667 196.5 814.166666667 183.5 796.5 c 128
 170.5 778.833333333 158.333333333 760.333333333 147 741 c 128
 135.666666667 721.666666667 126 701.333333333 118 680 c 128
 110 658.666666667 104 637 100 615 c 0
 94.6666666667 585 92.6666666667 555.333333333 94 526 c 128
 95.3333333333 496.666666667 99.3333333333 468 106 440 c 128
 112.666666667 412 122 385.166666667 134 359.5 c 128
 146 333.833333333 159.666666667 310 175 288 c 1
 107 245 l 1
 69 297.666666667 41 355.333333333 23 418 c 128
 5 480.666666667 2.33333333333 547.666666667 15 619 c 0
 19.6666666667 646.333333333 26.6666666667 673.333333333 36 700 c 128
 45.3333333333 726.666666667 56.5 752.333333333 69.5 777 c 128
 82.5 801.666666667 97 824.833333333 113 846.5 c 128
 129 868.166666667 146 888 164 906 c 1
 214 863 l 1
 218.666666667 869 223.333333333 874.333333333 228 879 c 128
 232.666666667 883.666666667 237.833333333 888.5 243.5 893.5 c 128
 249.166666667 898.5 255.5 903.666666667 262.5 909 c 128
 269.5 914.333333333 278 920.666666667 288 928 c 1
 302 916 l 1
 286.666666667 904 272 892.166666667 258 880.5 c 128
 244 868.833333333 233 857.333333333 225 846 c 1
 224 846 l 1
1501 249 m 1
 1115 249 l 1
 1115 -67 l 1
 208 -67 l 1
 208 364 l 1
 208 372 l 1
 227 371 l 1
 227 364 l 1
 227 -50 l 1
 1097 -50 l 1
 1097 266 l 1
 1501 266 l 1
 1509 266 l 1
 1509 249 l 1
 1501 249 l 1
EndSplineSet
Validated: 33
EndChar

StartChar: dollar
Encoding: 36 36 24
Width: 1161
Flags: HW
LayerCount: 2
Back
Fore
SplineSet
746 293 m 1
 746 221 l 1
 610 221 l 1
 608.666666667 212.333333333 604.333333333 205.166666667 597 199.5 c 128
 589.666666667 193.833333333 582.333333333 191 575 191 c 2
 538 191 l 1
 537 221 l 1
 454 221 l 2
 438 221 425 225 415 233 c 128
 405 241 400 252 400 266 c 2
 400 395 l 1
 400 405 l 1
 473 405 l 2
 484.333333333 405 491.333333333 402.333333333 494 397 c 128
 496.666666667 391.666666667 498 384.666666667 498 376 c 2
 498 357 l 1
 498 297 l 1
 500.666666667 297 504 296.833333333 508 296.5 c 128
 512 296.166666667 516.333333333 296 521 296 c 2
 537 296 l 1
 537 517 l 1
 400 517 l 1
 400 740 l 1
 400 767.5 l 2
 400 775.166666667 401.333333333 781.333333333 404 786 c 128
 406.666666667 790.666666667 411.166666667 794.166666667 417.5 796.5 c 128
 423.833333333 798.833333333 433.333333333 800 446 800 c 2
 537 800 l 1
 537 823.333333333 549.333333333 835 574 835 c 2
 611 835 l 1
 611 800 l 1
 746 800 l 1
 746 689 l 1
 746 667 l 1
 660 667 l 1
 660 690 l 2
 659.333333333 703.333333333 655.5 711.833333333 648.5 715.5 c 128
 641.5 719.166666667 633.333333333 721.333333333 624 722 c 2
 611 722 l 1
 611 589 l 1
 662 589 l 1
 690 589 l 2
 707.333333333 589 721 586.333333333 731 581 c 128
 741 575.666666667 746 564.666666667 746 548 c 2
 746 379 l 1
 746 293 l 1
537 722 m 1
 499 722 l 1
 499 633 l 2
 499 621.666666667 502.5 612.5 509.5 605.5 c 128
 516.5 598.5 525.666666667 593.666666667 537 591 c 1
 537 722 l 1
654 345 m 2
 654 517 l 1
 611 517 l 1
 611 296 l 1
 625.666666667 296 636.5 301.166666667 643.5 311.5 c 128
 650.5 321.833333333 654 333 654 345 c 2
155 25 m 1
 155 0 l 1
 108 0 l 1
 105.333333333 -7.33333333333 101 -11 95 -11 c 2
 82 -11 l 1
 82 0 l 1
 53 0 l 2
 40.3333333333 0 34 5.33333333333 34 16 c 2
 34 61 l 1
 34 65 l 1
 60 65 l 2
 64 65 66.3333333333 64 67 62 c 128
 67.6666666667 60 68 57.3333333333 68 54 c 2
 68 48 l 1
 68 26 l 1
 82 26 l 1
 82 104 l 1
 34 104 l 1
 34 182 l 2
 34 189.333333333 34.3333333333 194.666666667 35 198 c 128
 35.6666666667 201.333333333 40.6666666667 203 50 203 c 2
 82 203 l 1
 82 211 86.3333333333 215 95 215 c 2
 108 215 l 1
 108 203 l 1
 155 203 l 1
 155 164 l 1
 155 156 l 1
 125 156 l 1
 125 164 l 2
 125 171.333333333 120.666666667 175 112 175 c 2
 108 175 l 1
 108 129 l 1
 135 129 l 2
 148.333333333 129 155 124.333333333 155 115 c 2
 155 55 l 1
 155 25 l 1
82 175 m 1
 69 175 l 1
 69 144 l 2
 69 136 73.3333333333 131.333333333 82 130 c 1
 82 175 l 1
123 43 m 2
 123 104 l 1
 108 104 l 1
 108 26 l 1
 113.333333333 26 117.166666667 27.8333333333 119.5 31.5 c 128
 121.833333333 35.1666666667 123 39 123 43 c 2
1065 492 m 256
 1065 424 1052.66666667 360 1028 300 c 128
 1003.33333333 240 969.833333333 187.833333333 927.5 143.5 c 128
 885.166666667 99.1666666667 835.333333333 64 778 38 c 128
 720.666666667 12 659.666666667 -1 595 -1 c 0
 533 -1 474.666666667 11.1666666667 420 35.5 c 128
 365.333333333 59.8333333333 317 92.3333333333 275 133 c 1
 335 183 l 1
 369.666666667 148.333333333 409.333333333 121.333333333 454 102 c 128
 498.666666667 82.6666666667 546.333333333 73 597 73 c 0
 650.333333333 73 700.333333333 84 747 106 c 128
 793.666666667 128 834.5 158 869.5 196 c 128
 904.5 234 932 278.333333333 952 329 c 128
 972 379.666666667 982 434 982 492 c 256
 982 550 972 604.5 952 655.5 c 128
 932 706.5 904.5 751 869.5 789 c 128
 834.5 827 793.666666667 857 747 879 c 128
 700.333333333 901 650.333333333 912 597 912 c 0
 531 912 470.333333333 895.666666667 415 863 c 128
 359.666666667 830.333333333 314.333333333 787 279 733 c 1
 227 772 l 1
 211.666666667 751.333333333 200.333333333 733.333333333 193 718 c 128
 185.666666667 702.666666667 180.333333333 692.333333333 177 687 c 1
 159 697 l 1
 165.666666667 713 174.333333333 728.833333333 185 744.5 c 128
 195.666666667 760.166666667 206.666666667 775.666666667 218 791 c 0
 240 820.333333333 264.833333333 847 292.5 871 c 128
 320.166666667 895 350 915.5 382 932.5 c 128
 414 949.5 448 962.666666667 484 972 c 128
 520 981.333333333 557 986 595 986 c 0
 659.666666667 986 720.666666667 973 778 947 c 128
 835.333333333 921 885.166666667 885.666666667 927.5 841 c 128
 969.833333333 796.333333333 1003.33333333 744 1028 684 c 128
 1052.66666667 624 1065 560 1065 492 c 256
224 846 m 1
 210 830.666666667 196.5 814.166666667 183.5 796.5 c 128
 170.5 778.833333333 158.333333333 760.333333333 147 741 c 128
 135.666666667 721.666666667 126 701.333333333 118 680 c 128
 110 658.666666667 104 637 100 615 c 0
 94.6666666667 585 92.6666666667 555.333333333 94 526 c 128
 95.3333333333 496.666666667 99.3333333333 468 106 440 c 128
 112.666666667 412 122 385.166666667 134 359.5 c 128
 146 333.833333333 159.666666667 310 175 288 c 1
 107 245 l 1
 69 297.666666667 41 355.333333333 23 418 c 128
 5 480.666666667 2.33333333333 547.666666667 15 619 c 0
 19.6666666667 646.333333333 26.6666666667 673.333333333 36 700 c 128
 45.3333333333 726.666666667 56.5 752.333333333 69.5 777 c 128
 82.5 801.666666667 97 824.833333333 113 846.5 c 128
 129 868.166666667 146 888 164 906 c 1
 214 863 l 1
 218.666666667 869 223.333333333 874.333333333 228 879 c 128
 232.666666667 883.666666667 237.833333333 888.5 243.5 893.5 c 128
 249.166666667 898.5 255.5 903.666666667 262.5 909 c 128
 269.5 914.333333333 278 920.666666667 288 928 c 1
 302 916 l 1
 286.666666667 904 272 892.166666667 258 880.5 c 128
 244 868.833333333 233 857.333333333 225 846 c 1
 224 846 l 1
1501 249 m 1
 1115 249 l 1
 1115 -67 l 1
 208 -67 l 1
 208 364 l 1
 208 372 l 1
 227 371 l 1
 227 364 l 1
 227 -50 l 1
 1097 -50 l 1
 1097 266 l 1
 1501 266 l 1
 1509 266 l 1
 1509 249 l 1
 1501 249 l 1
EndSplineSet
Validated: 33
EndChar

StartChar: percent
Encoding: 37 37 25
Width: 1161
Flags: HW
LayerCount: 2
Back
Fore
SplineSet
856 746 m 1
 281 171 l 1
 255 197 l 2
 237.666666667 214.333333333 237.666666667 231.666666667 255 249 c 2
 804 798 l 1
 856 746 l 1
194 185 m 1
 21 -7 l 1
 13 2 l 2
 7.66666666667 7.33333333333 7.66666666667 13 13 19 c 2
 179 202 l 1
 194 185 l 1
1065 492 m 256
 1065 424 1052.66666667 360 1028 300 c 128
 1003.33333333 240 969.833333333 187.833333333 927.5 143.5 c 128
 885.166666667 99.1666666667 835.333333333 64 778 38 c 128
 720.666666667 12 659.666666667 -1 595 -1 c 0
 533 -1 474.666666667 11.1666666667 420 35.5 c 128
 365.333333333 59.8333333333 317 92.3333333333 275 133 c 1
 335 183 l 1
 369.666666667 148.333333333 409.333333333 121.333333333 454 102 c 128
 498.666666667 82.6666666667 546.333333333 73 597 73 c 0
 650.333333333 73 700.333333333 84 747 106 c 128
 793.666666667 128 834.5 158 869.5 196 c 128
 904.5 234 932 278.333333333 952 329 c 128
 972 379.666666667 982 434 982 492 c 256
 982 550 972 604.5 952 655.5 c 128
 932 706.5 904.5 751 869.5 789 c 128
 834.5 827 793.666666667 857 747 879 c 128
 700.333333333 901 650.333333333 912 597 912 c 0
 531 912 470.333333333 895.666666667 415 863 c 128
 359.666666667 830.333333333 314.333333333 787 279 733 c 1
 227 772 l 1
 211.666666667 751.333333333 200.333333333 733.333333333 193 718 c 128
 185.666666667 702.666666667 180.333333333 692.333333333 177 687 c 1
 159 697 l 1
 165.666666667 713 174.333333333 728.833333333 185 744.5 c 128
 195.666666667 760.166666667 206.666666667 775.666666667 218 791 c 0
 240 820.333333333 264.833333333 847 292.5 871 c 128
 320.166666667 895 350 915.5 382 932.5 c 128
 414 949.5 448 962.666666667 484 972 c 128
 520 981.333333333 557 986 595 986 c 0
 659.666666667 986 720.666666667 973 778 947 c 128
 835.333333333 921 885.166666667 885.666666667 927.5 841 c 128
 969.833333333 796.333333333 1003.33333333 744 1028 684 c 128
 1052.66666667 624 1065 560 1065 492 c 256
224 846 m 1
 210 830.666666667 196.5 814.166666667 183.5 796.5 c 128
 170.5 778.833333333 158.333333333 760.333333333 147 741 c 128
 135.666666667 721.666666667 126 701.333333333 118 680 c 128
 110 658.666666667 104 637 100 615 c 0
 94.6666666667 585 92.6666666667 555.333333333 94 526 c 128
 95.3333333333 496.666666667 99.3333333333 468 106 440 c 128
 112.666666667 412 122 385.166666667 134 359.5 c 128
 146 333.833333333 159.666666667 310 175 288 c 1
 107 245 l 1
 69 297.666666667 41 355.333333333 23 418 c 128
 5 480.666666667 2.33333333333 547.666666667 15 619 c 0
 19.6666666667 646.333333333 26.6666666667 673.333333333 36 700 c 128
 45.3333333333 726.666666667 56.5 752.333333333 69.5 777 c 128
 82.5 801.666666667 97 824.833333333 113 846.5 c 128
 129 868.166666667 146 888 164 906 c 1
 214 863 l 1
 218.666666667 869 223.333333333 874.333333333 228 879 c 128
 232.666666667 883.666666667 237.833333333 888.5 243.5 893.5 c 128
 249.166666667 898.5 255.5 903.666666667 262.5 909 c 128
 269.5 914.333333333 278 920.666666667 288 928 c 1
 302 916 l 1
 286.666666667 904 272 892.166666667 258 880.5 c 128
 244 868.833333333 233 857.333333333 225 846 c 1
 224 846 l 1
1501 249 m 1
 1115 249 l 1
 1115 -67 l 1
 208 -67 l 1
 208 364 l 1
 208 372 l 1
 227 371 l 1
 227 364 l 1
 227 -50 l 1
 1097 -50 l 1
 1097 266 l 1
 1501 266 l 1
 1509 266 l 1
 1509 249 l 1
 1501 249 l 1
527 562 m 2
 527 556.666666667 525.833333333 550.5 523.5 543.5 c 128
 521.166666667 536.5 517.833333333 530 513.5 524 c 128
 509.166666667 518 504 513 498 509 c 128
 492 505 485.333333333 503 478 503 c 2
 378 503 l 2
 370.666666667 503 364 505 358 509 c 128
 352 513 347 518 343 524 c 128
 339 530 335.833333333 536.5 333.5 543.5 c 128
 331.166666667 550.5 330 556.666666667 330 562 c 2
 330 733 l 2
 330 738.333333333 331.166666667 744.5 333.5 751.5 c 128
 335.833333333 758.5 339 765 343 771 c 128
 347 777 352 782 358 786 c 128
 364 790 370.666666667 792 378 792 c 2
 478 792 l 2
 485.333333333 792 492 790 498 786 c 128
 504 782 509 777 513 771 c 128
 517 765 520.166666667 758.5 522.5 751.5 c 128
 524.833333333 744.5 526 738.333333333 526 733 c 0
 526 720.333333333 526.166666667 708.333333333 526.5 697 c 128
 526.833333333 685.666666667 527 671 527 653 c 2
 527 562 l 2
487 653 m 1
 487 726 l 1
 487 738 l 1
 406 540 l 1
 433 540 l 1
 456 540 l 2
 465.333333333 540 472.833333333 543.333333333 478.5 550 c 128
 484.166666667 556.666666667 487 562.666666667 487 568 c 2
 487 653 l 1
444 756 m 1
 435 756 l 1
 401 756 l 2
 391.666666667 756 384.166666667 752.333333333 378.5 745 c 128
 372.833333333 737.666666667 370 731.333333333 370 726 c 2
 370 653 l 1
 370 570 l 1
 444 756 l 1
789 249 m 2
 789 243.666666667 787.833333333 237.5 785.5 230.5 c 128
 783.166666667 223.5 779.833333333 217 775.5 211 c 128
 771.166666667 205 766 200 760 196 c 128
 754 192 747.333333333 190 740 190 c 2
 640 190 l 2
 632.666666667 190 626 192 620 196 c 128
 614 200 609 205 605 211 c 128
 601 217 597.833333333 223.5 595.5 230.5 c 128
 593.166666667 237.5 592 243.666666667 592 249 c 2
 592 420 l 2
 592 425.333333333 593.166666667 431.5 595.5 438.5 c 128
 597.833333333 445.5 601 452 605 458 c 128
 609 464 614 469 620 473 c 128
 626 477 632.666666667 479 640 479 c 2
 740 479 l 2
 747.333333333 479 754 477 760 473 c 128
 766 469 771 464 775 458 c 128
 779 452 782.166666667 445.5 784.5 438.5 c 128
 786.833333333 431.5 788 425.333333333 788 420 c 0
 788 407.333333333 788.166666667 395.333333333 788.5 384 c 128
 788.833333333 372.666666667 789 358 789 340 c 2
 789 249 l 2
749 340 m 1
 749 413 l 1
 749 425 l 1
 668 227 l 1
 695 227 l 1
 718 227 l 2
 727.333333333 227 734.833333333 230.333333333 740.5 237 c 128
 746.166666667 243.666666667 749 249.666666667 749 255 c 2
 749 340 l 1
706 443 m 1
 697 443 l 1
 663 443 l 2
 653.666666667 443 646.166666667 439.333333333 640.5 432 c 128
 634.833333333 424.666666667 632 418.333333333 632 413 c 2
 632 340 l 1
 632 257 l 1
 706 443 l 1
95 124 m 2
 95 120 93.6666666667 115.666666667 91 111 c 128
 88.3333333333 106.333333333 84.6666666667 104 80 104 c 2
 50 104 l 2
 45.3333333333 104 41.6666666667 106.333333333 39 111 c 128
 36.3333333333 115.666666667 35 120 35 124 c 2
 35 181 l 2
 35 184.333333333 36.3333333333 188.5 39 193.5 c 128
 41.6666666667 198.5 45.3333333333 201 50 201 c 2
 80 201 l 2
 84.6666666667 201 88.3333333333 198.5 91 193.5 c 128
 93.6666666667 188.5 95 184.333333333 95 181 c 2
 95 154 l 1
 95 124 l 2
83 154 m 1
 83 178 l 1
 83 183 l 1
 58 116 l 1
 67 116 l 1
 73 116 l 2
 76.3333333333 116 78.8333333333 117.166666667 80.5 119.5 c 128
 82.1666666667 121.833333333 83 124 83 126 c 2
 83 154 l 1
70 188 m 1
 67 188 l 1
 57 188 l 2
 53.6666666667 188 51.1666666667 186.833333333 49.5 184.5 c 128
 47.8333333333 182.166666667 47 180 47 178 c 2
 47 154 l 1
 47 126 l 1
 70 188 l 1
174 19 m 2
 174 15 172.666666667 10.6666666667 170 6 c 128
 167.333333333 1.33333333333 163.666666667 -1 159 -1 c 2
 129 -1 l 2
 124.333333333 -1 120.666666667 1.33333333333 118 6 c 128
 115.333333333 10.6666666667 114 15 114 19 c 2
 114 76 l 2
 114 79.3333333333 115.333333333 83.5 118 88.5 c 128
 120.666666667 93.5 124.333333333 96 129 96 c 2
 159 96 l 2
 163.666666667 96 167.333333333 93.5 170 88.5 c 128
 172.666666667 83.5 174 79.3333333333 174 76 c 2
 174 49 l 1
 174 19 l 2
162 49 m 1
 162 73 l 1
 162 78 l 1
 137 11 l 1
 146 11 l 1
 152 11 l 2
 155.333333333 11 157.833333333 12.1666666667 159.5 14.5 c 128
 161.166666667 16.8333333333 162 19 162 21 c 2
 162 49 l 1
149 83 m 1
 146 83 l 1
 136 83 l 2
 132.666666667 83 130.166666667 81.8333333333 128.5 79.5 c 128
 126.833333333 77.1666666667 126 75 126 73 c 2
 126 49 l 1
 126 21 l 1
 149 83 l 1
EndSplineSet
Validated: 33
EndChar

StartChar: ampersand
Encoding: 38 38 26
Width: 1161
Flags: HW
LayerCount: 2
Back
Fore
SplineSet
788 371 m 1
 733 371 l 1
 732 251 l 2
 732 242.333333333 728.666666667 235.166666667 722 229.5 c 128
 715.333333333 223.833333333 708.333333333 221 701 221 c 2
 492 221 l 2
 482.666666667 221 475.833333333 224.666666667 471.5 232 c 128
 467.166666667 239.333333333 465 247 465 255 c 2
 465 767 l 2
 465 789 475.333333333 800 496 800 c 2
 658 800 l 1
 658 487 l 2
 658 481.666666667 654.333333333 477.166666667 647 473.5 c 128
 639.666666667 469.833333333 631.666666667 468 623 468 c 2
 588 468 l 1
 588 686 l 1
 528 687 l 1
 529 322 l 1
 669 322 l 1
 670 371 l 1
 620 370 l 2
 612 370 606.5 373.5 603.5 380.5 c 128
 600.5 387.5 599.333333333 395.666666667 600 405 c 2
 599 440 l 1
 761 440 l 2
 769 440 775.5 437.166666667 780.5 431.5 c 128
 785.5 425.833333333 788 417.333333333 788 406 c 2
 788 371 l 1
169 52 m 1
 149 52 l 1
 149 11 l 2
 149 3.66666666667 145.333333333 0 138 0 c 2
 65 0 l 2
 61.6666666667 0 59.3333333333 1.16666666667 58 3.5 c 128
 56.6666666667 5.83333333333 56 8.66666666667 56 12 c 2
 56 191 l 2
 56 199 59.6666666667 203 67 203 c 2
 123 203 l 1
 123 93 l 2
 123 91 121.833333333 89.5 119.5 88.5 c 128
 117.166666667 87.5 114.333333333 86.6666666667 111 86 c 2
 99 86 l 1
 99 163 l 1
 78 163 l 1
 78 36 l 1
 127 36 l 1
 127 52 l 1
 110 52 l 2
 107.333333333 52 105.5 53.1666666667 104.5 55.5 c 128
 103.5 57.8333333333 103 60.6666666667 103 64 c 2
 103 77 l 1
 160 77 l 2
 166 77 169 73 169 65 c 2
 169 52 l 1
1065 492 m 256
 1065 424 1052.66666667 360 1028 300 c 128
 1003.33333333 240 969.833333333 187.833333333 927.5 143.5 c 128
 885.166666667 99.1666666667 835.333333333 64 778 38 c 128
 720.666666667 12 659.666666667 -1 595 -1 c 0
 533 -1 474.666666667 11.1666666667 420 35.5 c 128
 365.333333333 59.8333333333 317 92.3333333333 275 133 c 1
 335 183 l 1
 369.666666667 148.333333333 409.333333333 121.333333333 454 102 c 128
 498.666666667 82.6666666667 546.333333333 73 597 73 c 0
 650.333333333 73 700.333333333 84 747 106 c 128
 793.666666667 128 834.5 158 869.5 196 c 128
 904.5 234 932 278.333333333 952 329 c 128
 972 379.666666667 982 434 982 492 c 256
 982 550 972 604.5 952 655.5 c 128
 932 706.5 904.5 751 869.5 789 c 128
 834.5 827 793.666666667 857 747 879 c 128
 700.333333333 901 650.333333333 912 597 912 c 0
 531 912 470.333333333 895.666666667 415 863 c 128
 359.666666667 830.333333333 314.333333333 787 279 733 c 1
 227 772 l 1
 211.666666667 751.333333333 200.333333333 733.333333333 193 718 c 128
 185.666666667 702.666666667 180.333333333 692.333333333 177 687 c 1
 159 697 l 1
 165.666666667 713 174.333333333 728.833333333 185 744.5 c 128
 195.666666667 760.166666667 206.666666667 775.666666667 218 791 c 0
 240 820.333333333 264.833333333 847 292.5 871 c 128
 320.166666667 895 350 915.5 382 932.5 c 128
 414 949.5 448 962.666666667 484 972 c 128
 520 981.333333333 557 986 595 986 c 0
 659.666666667 986 720.666666667 973 778 947 c 128
 835.333333333 921 885.166666667 885.666666667 927.5 841 c 128
 969.833333333 796.333333333 1003.33333333 744 1028 684 c 128
 1052.66666667 624 1065 560 1065 492 c 256
224 846 m 1
 210 830.666666667 196.5 814.166666667 183.5 796.5 c 128
 170.5 778.833333333 158.333333333 760.333333333 147 741 c 128
 135.666666667 721.666666667 126 701.333333333 118 680 c 128
 110 658.666666667 104 637 100 615 c 0
 94.6666666667 585 92.6666666667 555.333333333 94 526 c 128
 95.3333333333 496.666666667 99.3333333333 468 106 440 c 128
 112.666666667 412 122 385.166666667 134 359.5 c 128
 146 333.833333333 159.666666667 310 175 288 c 1
 107 245 l 1
 69 297.666666667 41 355.333333333 23 418 c 128
 5 480.666666667 2.33333333333 547.666666667 15 619 c 0
 19.6666666667 646.333333333 26.6666666667 673.333333333 36 700 c 128
 45.3333333333 726.666666667 56.5 752.333333333 69.5 777 c 128
 82.5 801.666666667 97 824.833333333 113 846.5 c 128
 129 868.166666667 146 888 164 906 c 1
 214 863 l 1
 218.666666667 869 223.333333333 874.333333333 228 879 c 128
 232.666666667 883.666666667 237.833333333 888.5 243.5 893.5 c 128
 249.166666667 898.5 255.5 903.666666667 262.5 909 c 128
 269.5 914.333333333 278 920.666666667 288 928 c 1
 302 916 l 1
 286.666666667 904 272 892.166666667 258 880.5 c 128
 244 868.833333333 233 857.333333333 225 846 c 1
 224 846 l 1
1501 249 m 1
 1115 249 l 1
 1115 -67 l 1
 208 -67 l 1
 208 364 l 1
 208 372 l 1
 227 371 l 1
 227 364 l 1
 227 -50 l 1
 1097 -50 l 1
 1097 266 l 1
 1501 266 l 1
 1509 266 l 1
 1509 249 l 1
 1501 249 l 1
EndSplineSet
Validated: 33
EndChar

StartChar: quotesingle
Encoding: 39 39 27
Width: 668
Flags: HW
LayerCount: 2
Back
Fore
SplineSet
404 577 m 1
 404 551.5 l 2
 404 545.833333333 403.833333333 541.333333333 403.5 538 c 128
 403.166666667 534.666666667 403 531.333333333 403 528 c 2
 403 513 l 258
 403 506.333333333 402.333333333 499 401 491 c 128
 399.666666667 483 397.833333333 475.5 395.5 468.5 c 128
 393.166666667 461.5 390.166666667 455.5 386.5 450.5 c 128
 382.833333333 445.5 378.666666667 443 374 443 c 2
 360 443 l 1
 360 615 l 2
 360 625.666666667 361.333333333 634 364 640 c 128
 366.666666667 646 373 649 383 649 c 2
 404 649 l 1
 404 577 l 1
620 667 m 1
 632.666666667 648.333333333 641.666666667 629.5 647 610.5 c 128
 652.333333333 591.5 655 570.333333333 655 547 c 0
 655 513.666666667 648.333333333 482.5 635 453.5 c 128
 621.666666667 424.5 603.5 399.333333333 580.5 378 c 128
 557.5 356.666666667 530.5 339.666666667 499.5 327 c 128
 468.5 314.333333333 435.333333333 308 400 308 c 0
 385.333333333 308 369.166666667 310 351.5 314 c 128
 333.833333333 318 318.333333333 322 305 326 c 0
 278.333333333 335.333333333 254.833333333 348.333333333 234.5 365 c 128
 214.166666667 381.666666667 196.666666667 401.333333333 182 424 c 1
 167 424 l 1
 169.666666667 418.666666667 172.166666667 414.166666667 174.5 410.5 c 128
 176.833333333 406.833333333 179.666666667 402.666666667 183 398 c 0
 205.666666667 366 234.666666667 342.333333333 270 327 c 1
 260 311 l 1
 240 319 222.666666667 329 208 341 c 128
 193.333333333 353 179.666666667 368.333333333 167 387 c 0
 159 397.666666667 152 410 146 424 c 1
 62 424 l 1
 62 544 l 1
 48 544 l 1
 39 544 l 1
 39 555 l 1
 47 555 l 1
 129 555 l 1
 133.666666667 589 145.166666667 621 163.5 651 c 128
 181.833333333 681 207 707 239 729 c 0
 275.666666667 755 315 770 357 774 c 128
 399 778 439 772.666666667 477 758 c 1
 494 781 l 1
 503 793 l 1
 527 774 l 1
 518 762 l 1
 489 725 l 1
 480 713 l 1
 456 732 l 1
 466 745 l 1
 430.666666667 759.666666667 394.666666667 765 358 761 c 128
 321.333333333 757 285 742.666666667 249 718 c 0
 219 697.333333333 195.666666667 673 179 645 c 128
 162.333333333 617 151.666666667 587 147 555 c 1
 202 555 l 1
 211 555 l 1
 211 544 l 1
 204 544 l 1
 145 544 l 1
 142.333333333 524.666666667 142.5 506.5 145.5 489.5 c 128
 148.5 472.5 154.333333333 454.666666667 163 436 c 1
 225 436 l 1
 233 436 l 1
 233 424 l 1
 227 424 l 1
 204 424 l 1
 225.333333333 392.666666667 253 368 287 350 c 128
 321 332 359.333333333 323 402 323 c 0
 434.666666667 323 465.333333333 328.833333333 494 340.5 c 128
 522.666666667 352.166666667 547.833333333 368.166666667 569.5 388.5 c 128
 591.166666667 408.833333333 608.166666667 432.5 620.5 459.5 c 128
 632.833333333 486.5 639 515.666666667 639 547 c 0
 639 587.666666667 628.333333333 625.333333333 607 660 c 1
 620 668 l 1
 620 667 l 1
141 436 m 1
 133.666666667 454.666666667 128.666666667 472.5 126 489.5 c 128
 123.333333333 506.5 123.666666667 524.666666667 127 544 c 1
 73 544 l 1
 73 436 l 1
 141 436 l 1
78 559 m 1
 65 559 l 1
 63.6666666667 562.333333333 61.5 565.5 58.5 568.5 c 128
 55.5 571.5 51.6666666667 573.333333333 47 574 c 0
 41.6666666667 574 36.6666666667 572 32 568 c 128
 27.3333333333 564 25 559.333333333 25 554 c 256
 25 548.666666667 27 543.5 31 538.5 c 128
 35 533.5 40 531 46 531 c 0
 50 531 54 531.666666667 58 533 c 1
 58 521 l 2
 56 520.333333333 54.1666666667 519.833333333 52.5 519.5 c 128
 50.8333333333 519.166666667 49 519 47 519 c 0
 37.6666666667 519 29.8333333333 522 23.5 528 c 128
 17.1666666667 534 14 541.666666667 14 551 c 256
 14 560.333333333 17.1666666667 568 23.5 574 c 128
 29.8333333333 580 37.6666666667 583 47 583 c 0
 54.3333333333 583 60.6666666667 580.666666667 66 576 c 128
 71.3333333333 571.333333333 75.3333333333 565.666666667 78 559 c 1
EndSplineSet
Validated: 33
EndChar

StartChar: parenleft
Encoding: 40 40 28
Width: 534
Flags: HW
LayerCount: 2
Back
Fore
SplineSet
213 434 m 1
 191.666666667 432.666666667 171.666666667 427.166666667 153 417.5 c 128
 134.333333333 407.833333333 118 395 104 379 c 128
 90 363 79 344.666666667 71 324 c 128
 63 303.333333333 59 281.333333333 59 258 c 0
 59 233.333333333 63.3333333333 210.166666667 72 188.5 c 128
 80.6666666667 166.833333333 92.5 148 107.5 132 c 128
 122.5 116 140.166666667 103.5 160.5 94.5 c 128
 180.833333333 85.5 202.333333333 81 225 81 c 0
 248.333333333 81 269 85.3333333333 287 94 c 1
 267 145.333333333 250.5 199.166666667 237.5 255.5 c 128
 224.5 311.833333333 216.333333333 371.333333333 213 434 c 1
441 -3 m 0
 449 -17 450.666666667 -29.8333333333 446 -41.5 c 128
 441.333333333 -53.1666666667 433.833333333 -62 423.5 -68 c 128
 413.166666667 -74 401.666666667 -76 389 -74 c 128
 376.333333333 -72 366 -64.3333333333 358 -51 c 0
 338.666666667 -16.3333333333 319.666666667 21.3333333333 301 62 c 1
 276.333333333 51.3333333333 251 46 225 46 c 0
 197 46 170.833333333 51.6666666667 146.5 63 c 128
 122.166666667 74.3333333333 100.833333333 89.5 82.5 108.5 c 128
 64.1666666667 127.5 49.8333333333 149.833333333 39.5 175.5 c 128
 29.1666666667 201.166666667 24 228.666666667 24 258 c 0
 24 294 31.6666666667 327.166666667 47 357.5 c 128
 62.3333333333 387.833333333 83 412.666666667 109 432 c 1
 109 1025 l 1
 347 1025 l 1
 351 1033.66666667 354.833333333 1041.5 358.5 1048.5 c 128
 362.166666667 1055.5 366.333333333 1063 371 1071 c 0
 379 1085 389.166666667 1093 401.5 1095 c 128
 413.833333333 1097 425.166666667 1095.16666667 435.5 1089.5 c 128
 445.833333333 1083.83333333 453.5 1075.16666667 458.5 1063.5 c 128
 463.5 1051.83333333 462 1039 454 1025 c 1
 532 1026 l 1
 540 1026 l 1
 540 1011 l 1
 532 1011 l 1
 446 1011 l 1
 392.666666667 906.333333333 355.666666667 807.333333333 335 714 c 128
 314.333333333 620.666666667 305.666666667 532.666666667 309 450 c 1
 343 433.333333333 370.666666667 408.5 392 375.5 c 128
 413.333333333 342.5 424.666666667 305.333333333 426 264 c 1
 829 264 l 1
 829 249 l 1
 425 249 l 1
 423.666666667 225.666666667 419 203.166666667 411 181.5 c 128
 403 159.833333333 392.333333333 140.333333333 379 123 c 1
 388.333333333 100.333333333 398.166666667 78.5 408.5 57.5 c 128
 418.833333333 36.5 429.666666667 16.3333333333 441 -3 c 0
311 409 m 1
 314.333333333 364.333333333 320.666666667 321.5 330 280.5 c 128
 339.333333333 239.5 350.666666667 200 364 162 c 1
 371.333333333 175.333333333 377.5 190.166666667 382.5 206.5 c 128
 387.5 222.833333333 390.333333333 239 391 255 c 0
 389.666666667 289.666666667 381.833333333 320.166666667 367.5 346.5 c 128
 353.166666667 372.833333333 334.333333333 393.666666667 311 409 c 1
123 1009 m 1
 123 441 l 1
 149.666666667 457.666666667 179.333333333 467 212 469 c 1
 210.666666667 551.666666667 219.833333333 637.833333333 239.5 727.5 c 128
 259.166666667 817.166666667 292.666666667 911 340 1009 c 1
 123 1009 l 1
EndSplineSet
Validated: 33
EndChar

StartChar: parenright
Encoding: 41 41 29
Width: 534
Flags: HW
LayerCount: 2
Back
Fore
SplineSet
195 93 m 1
 205 88.3333333333 214.666666667 85.1666666667 224 83.5 c 128
 233.333333333 81.8333333333 243.666666667 81 255 81 c 0
 277.666666667 81 299.166666667 85.5 319.5 94.5 c 128
 339.833333333 103.5 357.5 116 372.5 132 c 128
 387.5 148 399.333333333 166.833333333 408 188.5 c 128
 416.666666667 210.166666667 421 233.333333333 421 258 c 0
 421 280.666666667 417.666666667 301.833333333 411 321.5 c 128
 404.333333333 341.166666667 395 358.833333333 383 374.5 c 128
 371 390.166666667 356.5 403 339.5 413 c 128
 322.5 423 304 429.333333333 284 432 c 1
 280.666666667 368.666666667 271 309.333333333 255 254 c 128
 239 198.666666667 219 145 195 93 c 1
110 1071 m 0
 115.333333333 1062.33333333 119.666666667 1054.33333333 123 1047 c 128
 126.333333333 1039.66666667 130 1032 134 1024 c 1
 371 1024 l 1
 371 435 l 1
 397.666666667 417 418.333333333 393 433 363 c 128
 447.666666667 333 455.333333333 299.666666667 456 263 c 1
 896 263 l 1
 896 249 l 1
 889 249 l 1
 456 249 l 1
 455.333333333 221 449.666666667 194.666666667 439 170 c 128
 428.333333333 145.333333333 414 123.833333333 396 105.5 c 128
 378 87.1666666667 356.833333333 72.6666666667 332.5 62 c 128
 308.166666667 51.3333333333 282.333333333 46 255 46 c 0
 240.333333333 46 227.333333333 47.5 216 50.5 c 128
 204.666666667 53.5 193 57.6666666667 181 63 c 1
 163 24.3333333333 143 -13.6666666667 121 -51 c 0
 113 -64.3333333333 102.833333333 -72 90.5 -74 c 128
 78.1666666667 -76 66.8333333333 -74 56.5 -68 c 128
 46.1666666667 -62 38.6666666667 -53.1666666667 34 -41.5 c 128
 29.3333333333 -29.8333333333 31 -17 39 -3 c 0
 51 17.6666666667 62.1666666667 37.6666666667 72.5 57 c 128
 82.8333333333 76.3333333333 93 97 103 119 c 1
 70.3333333333 156.333333333 54 202.666666667 54 258 c 0
 54 281.333333333 57.3333333333 303.666666667 64 325 c 128
 70.6666666667 346.333333333 80 365.833333333 92 383.5 c 128
 104 401.166666667 118.333333333 416.333333333 135 429 c 128
 151.666666667 441.666666667 170.333333333 451.333333333 191 458 c 1
 193 498 191.666666667 538.833333333 187 580.5 c 128
 182.333333333 622.166666667 174 665.666666667 162 711 c 128
 150 756.333333333 133.666666667 803.666666667 113 853 c 128
 92.3333333333 902.333333333 66.6666666667 954.333333333 36 1009 c 1
 -51 1009 l 1
 -58 1009 l 1
 -58 1024 l 1
 -51 1024 l 1
 28 1024 l 1
 20 1038 18.3333333333 1050.83333333 23 1062.5 c 128
 27.6666666667 1074.16666667 35.1666666667 1082.83333333 45.5 1088.5 c 128
 55.8333333333 1094.16666667 67.1666666667 1096 79.5 1094 c 128
 91.8333333333 1092 102 1084.33333333 110 1071 c 0
143 1009 m 1
 197.666666667 904.333333333 235.666666667 807.666666667 257 719 c 128
 278.333333333 630.333333333 287.666666667 546.333333333 285 467 c 1
 299 465 311.5 462 322.5 458 c 128
 333.5 454 344.666666667 448.666666667 356 442 c 1
 356 1009 l 1
 143 1009 l 1
89 258 m 0
 89 237.333333333 91.6666666667 218.666666667 97 202 c 128
 102.333333333 185.333333333 110 169.333333333 120 154 c 1
 138 196 153.333333333 239.166666667 166 283.5 c 128
 178.666666667 327.833333333 187 374.666666667 191 424 c 1
 160.333333333 410.666666667 135.666666667 389.166666667 117 359.5 c 128
 98.3333333333 329.833333333 89 296 89 258 c 0
EndSplineSet
Validated: 33
EndChar

StartChar: asterisk
Encoding: 42 42 30
Width: 606
Flags: HWO
LayerCount: 2
Back
Fore
SplineSet
491 679 m 1
 522 679 l 1
 522 449 l 1
 273 449 l 1
 273 378 l 1
 273 370 l 1
 245.666666667 368.666666667 223.166666667 358.166666667 205.5 338.5 c 128
 187.833333333 318.833333333 179 295.333333333 179 268 c 2
 179 263 l 1
 -17 264 l 1
 -17 249 l 1
 -10 249 l 1
 181 249 l 1
 184.333333333 225 195.333333333 205.333333333 214 190 c 128
 232.666666667 174.666666667 254.666666667 167 280 167 c 0
 304.666666667 167 326.166666667 174.833333333 344.5 190.5 c 128
 362.833333333 206.166666667 374.333333333 225.666666667 379 249 c 1
 399 249 l 1
 399 83 l 1
 477 83 l 1
 477 301 l 1
 522 301 l 1
 522 261 l 1
 522 248 l 1
 790 249 l 1
 797 249 l 1
 797 264 l 1
 790 264 l 1
 537 263 l 1
 537 316 l 1
 462 316 l 1
 462 98 l 1
 414 98 l 1
 414 257 l 1
 414 264 l 1
 400 264 l 1
 381 264 l 1
 381 268 l 2
 381 282 378.5 295.166666667 373.5 307.5 c 128
 368.5 319.833333333 361.666666667 330.666666667 353 340 c 128
 344.333333333 349.333333333 334.333333333 356.666666667 323 362 c 128
 311.666666667 367.333333333 300 370 288 370 c 1
 288 378 l 1
 288 434 l 1
 537 434 l 1
 537 694 l 1
 491 694 l 1
 480 694 l 1
 478 701.333007812 473 708 465 714 c 128
 457 720 447.333007812 723 436 723 c 0
 422.666992188 723 411.666992188 718.5 403 709.5 c 128
 394.333007812 700.5 390 689.333007812 390 676 c 256
 390 662.666992188 394.333007812 651.5 403 642.5 c 128
 411.666992188 633.5 422.666992188 629 436 629 c 0
 448.666992188 629 459.666992188 633.5 469 642.5 c 128
 478.333007812 651.5 483 662.666992188 483 676 c 0
 483 678.732421875 483 679 483 679 c 1
 491 679 l 1
521 540 m 1
 505 517.333333333 489.166666667 504.833333333 473.5 502.5 c 128
 457.833333333 500.166666667 441 504 423 514 c 1
 295 614 l 1
 259 392 l 1
 250.333333333 392.666666667 241.833333333 395.333333333 233.5 400 c 128
 225.166666667 404.666666667 217.833333333 410.333333333 211.5 417 c 128
 205.166666667 423.666666667 200.333333333 431.166666667 197 439.5 c 128
 193.666666667 447.833333333 192.666666667 456.333333333 194 465 c 2
 228 629 l 1
 20 608 l 1
 14.6666666667 625.333333333 16.6666666667 642.166666667 26 658.5 c 128
 35.3333333333 674.833333333 48.6666666667 686.333333333 66 693 c 1
 223 710 l 1
 154 900 l 1
 173.333333333 907.333333333 191.333333333 909.5 208 906.5 c 128
 224.666666667 903.5 235.666666667 895 241 881 c 2
 294 733 l 1
 485 858 l 1
 496.333333333 840.666666667 501.333333333 823 500 805 c 128
 498.666666667 787 490 772.666666667 474 762 c 2
 339 670 l 1
 521 540 l 1
362 271 m 2
 362 263 l 1
 291 263 l 1
 291 353 l 1
 311 349.666666667 327.833333333 340.333333333 341.5 325 c 128
 355.166666667 309.666666667 362 291.666666667 362 271 c 2
279 185 m 0
 259 185 241.833333333 191 227.5 203 c 128
 213.166666667 215 203.666666667 230.333333333 199 249 c 1
 360 249 l 1
 356 231 346.333333333 215.833333333 331 203.5 c 128
 315.666666667 191.166666667 298.333333333 185 279 185 c 0
273 263 m 1
 197 263 l 2
 197 264.333333333 196.833333333 265.5 196.5 266.5 c 128
 196.166666667 267.5 196 268.666666667 196 270 c 0
 196 293.333333333 203.166666667 312.833333333 217.5 328.5 c 128
 231.833333333 344.166666667 250.333333333 352 273 352 c 1
 273 263 l 1
EndSplineSet
Validated: 524329
EndChar

StartChar: plus
Encoding: 43 43 31
Width: 1161
Flags: HW
LayerCount: 2
Back
Fore
SplineSet
727 536 m 1
 726 496 l 2
 726 485.333333333 722.833333333 477 716.5 471 c 128
 710.166666667 465 702.333333333 462 693 462 c 2
 588 462 l 1
 588 318 l 1
 550 318 l 2
 537.333333333 318 528.166666667 321.666666667 522.5 329 c 128
 516.833333333 336.333333333 514 344.666666667 514 354 c 2
 514 462 l 1
 376 462 l 1
 376 500 l 2
 375.333333333 513.333333333 378 522.666666667 384 528 c 128
 390 533.333333333 399 536 411 536 c 2
 515 536 l 1
 514 659 l 1
 548 659 l 2
 561.333333333 659 571.333333333 656.166666667 578 650.5 c 128
 584.666666667 644.833333333 588 634.666666667 588 620 c 2
 588 536 l 1
 727 536 l 1
1065 492 m 256
 1065 424 1052.66666667 360 1028 300 c 128
 1003.33333333 240 969.833333333 187.833333333 927.5 143.5 c 128
 885.166666667 99.1666666667 835.333333333 64 778 38 c 128
 720.666666667 12 659.666666667 -1 595 -1 c 0
 533 -1 474.666666667 11.1666666667 420 35.5 c 128
 365.333333333 59.8333333333 317 92.3333333333 275 133 c 1
 335 183 l 1
 369.666666667 148.333333333 409.333333333 121.333333333 454 102 c 128
 498.666666667 82.6666666667 546.333333333 73 597 73 c 0
 650.333333333 73 700.333333333 84 747 106 c 128
 793.666666667 128 834.5 158 869.5 196 c 128
 904.5 234 932 278.333333333 952 329 c 128
 972 379.666666667 982 434 982 492 c 256
 982 550 972 604.5 952 655.5 c 128
 932 706.5 904.5 751 869.5 789 c 128
 834.5 827 793.666666667 857 747 879 c 128
 700.333333333 901 650.333333333 912 597 912 c 0
 531 912 470.333333333 895.666666667 415 863 c 128
 359.666666667 830.333333333 314.333333333 787 279 733 c 1
 227 772 l 1
 211.666666667 751.333333333 200.333333333 733.333333333 193 718 c 128
 185.666666667 702.666666667 180.333333333 692.333333333 177 687 c 1
 159 697 l 1
 165.666666667 713 174.333333333 728.833333333 185 744.5 c 128
 195.666666667 760.166666667 206.666666667 775.666666667 218 791 c 0
 240 820.333333333 264.833333333 847 292.5 871 c 128
 320.166666667 895 350 915.5 382 932.5 c 128
 414 949.5 448 962.666666667 484 972 c 128
 520 981.333333333 557 986 595 986 c 0
 659.666666667 986 720.666666667 973 778 947 c 128
 835.333333333 921 885.166666667 885.666666667 927.5 841 c 128
 969.833333333 796.333333333 1003.33333333 744 1028 684 c 128
 1052.66666667 624 1065 560 1065 492 c 256
224 846 m 1
 210 830.666666667 196.5 814.166666667 183.5 796.5 c 128
 170.5 778.833333333 158.333333333 760.333333333 147 741 c 128
 135.666666667 721.666666667 126 701.333333333 118 680 c 128
 110 658.666666667 104 637 100 615 c 0
 94.6666666667 585 92.6666666667 555.333333333 94 526 c 128
 95.3333333333 496.666666667 99.3333333333 468 106 440 c 128
 112.666666667 412 122 385.166666667 134 359.5 c 128
 146 333.833333333 159.666666667 310 175 288 c 1
 107 245 l 1
 69 297.666666667 41 355.333333333 23 418 c 128
 5 480.666666667 2.33333333333 547.666666667 15 619 c 0
 19.6666666667 646.333333333 26.6666666667 673.333333333 36 700 c 128
 45.3333333333 726.666666667 56.5 752.333333333 69.5 777 c 128
 82.5 801.666666667 97 824.833333333 113 846.5 c 128
 129 868.166666667 146 888 164 906 c 1
 214 863 l 1
 218.666666667 869 223.333333333 874.333333333 228 879 c 128
 232.666666667 883.666666667 237.833333333 888.5 243.5 893.5 c 128
 249.166666667 898.5 255.5 903.666666667 262.5 909 c 128
 269.5 914.333333333 278 920.666666667 288 928 c 1
 302 916 l 1
 286.666666667 904 272 892.166666667 258 880.5 c 128
 244 868.833333333 233 857.333333333 225 846 c 1
 224 846 l 1
1501 249 m 1
 1115 249 l 1
 1115 -67 l 1
 208 -67 l 1
 208 364 l 1
 208 372 l 1
 227 371 l 1
 227 364 l 1
 227 -50 l 1
 1097 -50 l 1
 1097 266 l 1
 1501 266 l 1
 1509 266 l 1
 1509 249 l 1
 1501 249 l 1
EndSplineSet
Validated: 33
EndChar

StartChar: comma
Encoding: 44 44 32
Width: 233
Flags: HW
LayerCount: 2
Back
Fore
SplineSet
175 63 m 1
 175 -9 l 2
 175 -14.3333333333 173 -19 169 -23 c 128
 165 -27 160.333333333 -29 155 -29 c 2
 132 -28 l 1
 83 -29 l 2
 77.6666666667 -29 73 -27 69 -23 c 128
 65 -19 63 -14.3333333333 63 -9 c 2
 63 -8 l 2
 63 -2.66666666667 65 2 69 6 c 128
 73 10 77.6666666667 12 83 12 c 2
 106 11 l 1
 107 65 l 1
 56 65 l 2
 50.6666666667 65 46.1666666667 67.1666666667 42.5 71.5 c 128
 38.8333333333 75.8333333333 37 80.6666666667 37 86 c 2
 37 188 l 2
 37 193.333333333 39 198 43 202 c 128
 47 206 51.6666666667 208 57 208 c 2
 163 208 l 2
 168.333333333 208 173.666666667 206.166666667 179 202.5 c 128
 184.333333333 198.833333333 187 194.333333333 187 189 c 2
 187 128 l 1
 187 81 l 2
 187 74.3333333333 183.333333333 68.6666666667 176 64 c 2
 175 63 l 1
EndSplineSet
Validated: 1
EndChar

StartChar: hyphen
Encoding: 45 45 33
Width: 279
Flags: HW
LayerCount: 2
Back
Fore
SplineSet
267 296 m 2
 267 286 265.5 277.666666667 262.5 271 c 128
 259.5 264.333333333 255.333333333 261 250 261 c 2
 100 261 l 1
 100 287 l 2
 100 297.666666667 100.5 306.5 101.5 313.5 c 128
 102.5 320.5 106 324 112 324 c 2
 267 324 l 1
 267 296 l 2
EndSplineSet
Validated: 1
EndChar

StartChar: period
Encoding: 46 46 34
Width: 380
Flags: HW
LayerCount: 2
Back
Fore
SplineSet
257 0 m 1
 128 0 l 1
 128 129 l 1
 257 129 l 1
 257 0 l 1
190 240 m 256
 214.666666667 240 238 235.333333333 260 226 c 128
 282 216.666666667 301.333333333 203.666666667 318 187 c 128
 334.666666667 170.333333333 347.833333333 151 357.5 129 c 128
 367.166666667 107 372 83 372 57 c 0
 372 31.6666666667 367.333333333 7.66666666667 358 -15 c 128
 348.666666667 -37.6666666667 336 -57.5 320 -74.5 c 128
 304 -91.5 285 -104.833333333 263 -114.5 c 128
 241 -124.166666667 217.666666667 -129 193 -129 c 256
 168.333333333 -129 145.166666667 -124.166666667 123.5 -114.5 c 128
 101.833333333 -104.833333333 82.8333333333 -91.5 66.5 -74.5 c 128
 50.1666666667 -57.5 37.3333333333 -37.6666666667 28 -15 c 128
 18.6666666667 7.66666666667 14 31.6666666667 14 57 c 256
 14 82.3333333333 18.5 106.166666667 27.5 128.5 c 128
 36.5 150.833333333 49 170.166666667 65 186.5 c 128
 81 202.833333333 99.6666666667 215.833333333 121 225.5 c 128
 142.333333333 235.166666667 165.333333333 240 190 240 c 256
190 205 m 0
 170.666666667 205 152.333333333 201.166666667 135 193.5 c 128
 117.666666667 185.833333333 102.666666667 175.5 90 162.5 c 128
 77.3333333333 149.5 67.3333333333 133.833333333 60 115.5 c 128
 52.6666666667 97.1666666667 49 77.6666666667 49 57 c 0
 49 35.6666666667 52.8333333333 15.8333333333 60.5 -2.5 c 128
 68.1666666667 -20.8333333333 78.5 -36.6666666667 91.5 -50 c 128
 104.5 -63.3333333333 119.666666667 -74 137 -82 c 128
 154.333333333 -90 173 -94 193 -94 c 256
 213 -94 231.666666667 -90 249 -82 c 128
 266.333333333 -74 281.5 -63.3333333333 294.5 -50 c 128
 307.5 -36.6666666667 317.833333333 -20.8333333333 325.5 -2.5 c 128
 333.166666667 15.8333333333 337 35.6666666667 337 57 c 0
 337 77.6666666667 333.166666667 97 325.5 115 c 128
 317.833333333 133 307.166666667 148.666666667 293.5 162 c 128
 279.833333333 175.333333333 264.166666667 185.833333333 246.5 193.5 c 128
 228.833333333 201.166666667 210 205 190 205 c 0
EndSplineSet
Validated: 1
EndChar

StartChar: slash
Encoding: 47 47 35
Width: 538
Flags: HW
LayerCount: 2
Back
Fore
SplineSet
89 272 m 2
 87.6666666667 276.666666667 87.1666666667 280.833333333 87.5 284.5 c 128
 87.8333333333 288.166666667 88 292.666666667 88 298 c 0
 88 320 92 340.666666667 100 360 c 128
 108 379.333333333 119 396.333333333 133 411 c 128
 147 425.666666667 163.5 437.166666667 182.5 445.5 c 128
 201.5 453.833333333 222 458 244 458 c 0
 248 458 250.333333333 458.333333333 251 459 c 128
 251.666666667 459.666666667 254.333333333 459.333333333 259 458 c 1
 428 795 l 1
 532 795 l 1
 342 422 l 1
 380.666666667 390.666666667 400 349.333333333 400 298 c 0
 400 292 399.5 286.333333333 398.5 281 c 128
 397.5 275.666666667 396.333333333 270 395 264 c 1
 869 264 l 1
 869 249 l 1
 391 249 l 1
 381.666666667 216.333333333 363.666666667 189.666666667 337 169 c 128
 310.333333333 148.333333333 279.333333333 138 244 138 c 0
 234.666666667 138 227.166666667 138.166666667 221.5 138.5 c 128
 215.833333333 138.833333333 209 140.333333333 201 143 c 1
 117 -23 l 1
 15 -23 l 1
 125 195 l 1
 116.333333333 204.333333333 109.5 213.833333333 104.5 223.5 c 128
 99.5 233.166666667 95.3333333333 244.333333333 92 257 c 2
 89 272 l 2
143 230 m 1
 240 422 l 1
 223.333333333 422 207.833333333 418.833333333 193.5 412.5 c 128
 179.166666667 406.166666667 166.833333333 397.5 156.5 386.5 c 128
 146.166666667 375.5 138 362.333333333 132 347 c 128
 126 331.666666667 123 315.333333333 123 298 c 0
 123 284 124.5 271.833333333 127.5 261.5 c 128
 130.5 251.166666667 135.666666667 240.666666667 143 230 c 1
365 298 m 0
 365 318 362 335.5 356 350.5 c 128
 350 365.5 340 378.666666667 326 390 c 1
 218 177 l 1
 223.333333333 175 227.333333333 173.833333333 230 173.5 c 128
 232.666666667 173.166666667 237.333333333 173 244 173 c 0
 260.666666667 173 276.333333333 176.166666667 291 182.5 c 128
 305.666666667 188.833333333 318.5 197.666666667 329.5 209 c 128
 340.5 220.333333333 349.166666667 233.666666667 355.5 249 c 128
 361.833333333 264.333333333 365 280.666666667 365 298 c 0
EndSplineSet
Validated: 1
EndChar

StartChar: colon
Encoding: 58 58 46
Width: 422
Flags: HW
LayerCount: 2
Back
Fore
SplineSet
224 99 m 1
 272 98 l 1
 272 447 l 1
 224 447 l 1
 224 406 l 2
 224 400.666666667 222 396 218 392 c 128
 214 388 209.333333333 386 204 386 c 2
 97 386 l 2
 91.6666666667 386 87 388 83 392 c 128
 79 396 77 400.666666667 77 406 c 2
 78 509 l 2
 78 514.333333333 80 519 84 523 c 128
 88 527 92.6666666667 529 98 529 c 2
 204 529 l 2
 209.333333333 529 214 527 218 523 c 128
 222 519 224 514.333333333 224 509 c 2
 224 456 l 1
 272 456 l 1
 272 487 l 2
 272 495.666666667 274.666666667 502 280 506 c 128
 285.333333333 510 291.166666667 512 297.5 512 c 128
 303.833333333 512 309.666666667 509.833333333 315 505.5 c 128
 320.333333333 501.166666667 323 495 323 487 c 2
 323 263 l 1
 691 264 l 1
 699 264 l 1
 699 248 l 1
 692 248 l 1
 323 248 l 1
 323 51 l 2
 323 43 320.333333333 36.8333333333 315 32.5 c 128
 309.666666667 28.1666666667 303.833333333 26 297.5 26 c 128
 291.166666667 26 285.333333333 28.1666666667 280 32.5 c 128
 274.666666667 36.8333333333 272 43 272 51 c 2
 272 88 l 1
 224 88 l 1
 224 41 l 2
 224 35.6666666667 221.833333333 31.1666666667 217.5 27.5 c 128
 213.166666667 23.8333333333 208.333333333 22 203 22 c 2
 97 22 l 2
 91.6666666667 22 87 24 83 28 c 128
 79 32 77 36.6666666667 77 42 c 2
 77 146 l 2
 77 151.333333333 79 156 83 160 c 128
 87 164 91.6666666667 166 97 166 c 2
 204 166 l 2
 209.333333333 166 214 164 218 160 c 128
 222 156 224 151.333333333 224 146 c 2
 223 99 l 1
 224 99 l 1
EndSplineSet
Validated: 1
EndChar

StartChar: semicolon
Encoding: 59 59 47
Width: 422
Flags: HW
LayerCount: 2
Back
Fore
SplineSet
272 99 m 1
 272 447 l 1
 224 447 l 1
 224 406 l 2
 224 400.666666667 222 396 218 392 c 128
 214 388 209.333333333 386 204 386 c 2
 97 386 l 2
 91.6666666667 386 87 387.833333333 83 391.5 c 128
 79 395.166666667 77 399.666666667 77 405 c 2
 77 509 l 2
 77 514.333333333 79.1666666667 519 83.5 523 c 128
 87.8333333333 527 92.6666666667 529 98 529 c 2
 204 529 l 2
 209.333333333 529 214 527 218 523 c 128
 222 519 224 514.333333333 224 509 c 2
 224 456 l 1
 272 456 l 1
 272 487 l 2
 272 495.666666667 274.666666667 502 280 506 c 128
 285.333333333 510 291.166666667 512 297.5 512 c 128
 303.833333333 512 309.666666667 509.833333333 315 505.5 c 128
 320.333333333 501.166666667 323 495 323 487 c 2
 323 263 l 1
 691 264 l 1
 699 264 l 1
 699 248 l 1
 692 248 l 1
 322 248 l 1
 322 51 l 2
 322 43 319.333333333 36.8333333333 314 32.5 c 128
 308.666666667 28.1666666667 303 26 297 26 c 128
 291 26 285.333333333 28.1666666667 280 32.5 c 128
 274.666666667 36.8333333333 272 43 272 51 c 2
 272 87 l 1
 223 87 l 1
 223 42 l 2
 223 32.6666666667 219.333333333 26.3333333333 212 23 c 1
 212 -48 l 2
 212 -53.3333333333 210 -58 206 -62 c 128
 202 -66 197.333333333 -68 192 -68 c 2
 168 -68 l 1
 119 -68 l 2
 113.666666667 -68 109 -66 105 -62 c 128
 101 -58 99 -53.3333333333 99 -48 c 256
 99 -42.6666666667 101 -38 105 -34 c 128
 109 -30 113.666666667 -28 119 -28 c 2
 146 -27 l 1
 146 23 l 1
 96 23 l 2
 90.6666666667 23 86 25 82 29 c 128
 78 33 76 37.6666666667 76 43 c 2
 76 146 l 2
 76.6666666667 151.333333333 78.8333333333 156 82.5 160 c 128
 86.1666666667 164 90.6666666667 166 96 166 c 2
 203 166 l 2
 208.333333333 166 213 164 217 160 c 128
 221 156 223 151.333333333 223 146 c 2
 223 99 l 1
 272 99 l 1
EndSplineSet
Validated: 1
EndChar

StartChar: less
Encoding: 60 60 48
Width: 1161
Flags: HW
LayerCount: 2
Back
Fore
SplineSet
646 345 m 2
 653.333333333 337.666666667 656.5 329.833333333 655.5 321.5 c 128
 654.5 313.166666667 651.333333333 306.333333333 646 301 c 128
 640.666666667 295.666666667 633.666666667 292.5 625 291.5 c 128
 616.333333333 290.5 608.333333333 293.666666667 601 301 c 2
 386 517 l 1
 596 727 l 2
 603.333333333 734.333333333 611.333333333 737.5 620 736.5 c 128
 628.666666667 735.5 635.666666667 732.333333333 641 727 c 128
 646.333333333 721.666666667 649.5 714.833333333 650.5 706.5 c 128
 651.5 698.166666667 648.333333333 690.333333333 641 683 c 2
 475 517 l 1
 646 345 l 2
1065 492 m 256
 1065 424 1052.66666667 360 1028 300 c 128
 1003.33333333 240 969.833333333 187.833333333 927.5 143.5 c 128
 885.166666667 99.1666666667 835.333333333 64 778 38 c 128
 720.666666667 12 659.666666667 -1 595 -1 c 0
 533 -1 474.666666667 11.1666666667 420 35.5 c 128
 365.333333333 59.8333333333 317 92.3333333333 275 133 c 1
 335 183 l 1
 369.666666667 148.333333333 409.333333333 121.333333333 454 102 c 128
 498.666666667 82.6666666667 546.333333333 73 597 73 c 0
 650.333333333 73 700.333333333 84 747 106 c 128
 793.666666667 128 834.5 158 869.5 196 c 128
 904.5 234 932 278.333333333 952 329 c 128
 972 379.666666667 982 434 982 492 c 256
 982 550 972 604.5 952 655.5 c 128
 932 706.5 904.5 751 869.5 789 c 128
 834.5 827 793.666666667 857 747 879 c 128
 700.333333333 901 650.333333333 912 597 912 c 0
 531 912 470.333333333 895.666666667 415 863 c 128
 359.666666667 830.333333333 314.333333333 787 279 733 c 1
 227 772 l 1
 211.666666667 751.333333333 200.333333333 733.333333333 193 718 c 128
 185.666666667 702.666666667 180.333333333 692.333333333 177 687 c 1
 159 697 l 1
 165.666666667 713 174.333333333 728.833333333 185 744.5 c 128
 195.666666667 760.166666667 206.666666667 775.666666667 218 791 c 0
 240 820.333333333 264.833333333 847 292.5 871 c 128
 320.166666667 895 350 915.5 382 932.5 c 128
 414 949.5 448 962.666666667 484 972 c 128
 520 981.333333333 557 986 595 986 c 0
 659.666666667 986 720.666666667 973 778 947 c 128
 835.333333333 921 885.166666667 885.666666667 927.5 841 c 128
 969.833333333 796.333333333 1003.33333333 744 1028 684 c 128
 1052.66666667 624 1065 560 1065 492 c 256
224 846 m 1
 210 830.666666667 196.5 814.166666667 183.5 796.5 c 128
 170.5 778.833333333 158.333333333 760.333333333 147 741 c 128
 135.666666667 721.666666667 126 701.333333333 118 680 c 128
 110 658.666666667 104 637 100 615 c 0
 94.6666666667 585 92.6666666667 555.333333333 94 526 c 128
 95.3333333333 496.666666667 99.3333333333 468 106 440 c 128
 112.666666667 412 122 385.166666667 134 359.5 c 128
 146 333.833333333 159.666666667 310 175 288 c 1
 107 245 l 1
 69 297.666666667 41 355.333333333 23 418 c 128
 5 480.666666667 2.33333333333 547.666666667 15 619 c 0
 19.6666666667 646.333333333 26.6666666667 673.333333333 36 700 c 128
 45.3333333333 726.666666667 56.5 752.333333333 69.5 777 c 128
 82.5 801.666666667 97 824.833333333 113 846.5 c 128
 129 868.166666667 146 888 164 906 c 1
 214 863 l 1
 218.666666667 869 223.333333333 874.333333333 228 879 c 128
 232.666666667 883.666666667 237.833333333 888.5 243.5 893.5 c 128
 249.166666667 898.5 255.5 903.666666667 262.5 909 c 128
 269.5 914.333333333 278 920.666666667 288 928 c 1
 302 916 l 1
 286.666666667 904 272 892.166666667 258 880.5 c 128
 244 868.833333333 233 857.333333333 225 846 c 1
 224 846 l 1
1501 249 m 1
 1115 249 l 1
 1115 -67 l 1
 208 -67 l 1
 208 364 l 1
 208 372 l 1
 227 371 l 1
 227 364 l 1
 227 -50 l 1
 1097 -50 l 1
 1097 266 l 1
 1501 266 l 1
 1509 266 l 1
 1509 249 l 1
 1501 249 l 1
EndSplineSet
Validated: 33
EndChar

StartChar: equal
Encoding: 61 61 49
Width: 1161
Flags: HW
LayerCount: 2
Back
Fore
SplineSet
732 578 m 2
 732 552 l 1
 406 552 l 2
 394 552 385 555.166666667 379 561.5 c 128
 373 567.833333333 370.333333333 576.333333333 371 587 c 2
 371 615 l 1
 704 615 l 2
 718 615 726.166666667 611.5 728.5 604.5 c 128
 730.833333333 597.5 732 588.666666667 732 578 c 2
732 445 m 2
 732 434.333333333 729 425.833333333 723 419.5 c 128
 717 413.166666667 708 410 696 410 c 2
 371 410 l 1
 370 436 l 2
 370 446.666666667 371.166666667 455.5 373.5 462.5 c 128
 375.833333333 469.5 384 473 398 473 c 2
 732 473 l 1
 732 445 l 2
1065 492 m 256
 1065 424 1052.66666667 360 1028 300 c 128
 1003.33333333 240 969.833333333 187.833333333 927.5 143.5 c 128
 885.166666667 99.1666666667 835.333333333 64 778 38 c 128
 720.666666667 12 659.666666667 -1 595 -1 c 0
 533 -1 474.666666667 11.1666666667 420 35.5 c 128
 365.333333333 59.8333333333 317 92.3333333333 275 133 c 1
 335 183 l 1
 369.666666667 148.333333333 409.333333333 121.333333333 454 102 c 128
 498.666666667 82.6666666667 546.333333333 73 597 73 c 0
 650.333333333 73 700.333333333 84 747 106 c 128
 793.666666667 128 834.5 158 869.5 196 c 128
 904.5 234 932 278.333333333 952 329 c 128
 972 379.666666667 982 434 982 492 c 256
 982 550 972 604.5 952 655.5 c 128
 932 706.5 904.5 751 869.5 789 c 128
 834.5 827 793.666666667 857 747 879 c 128
 700.333333333 901 650.333333333 912 597 912 c 0
 531 912 470.333333333 895.666666667 415 863 c 128
 359.666666667 830.333333333 314.333333333 787 279 733 c 1
 227 772 l 1
 211.666666667 751.333333333 200.333333333 733.333333333 193 718 c 128
 185.666666667 702.666666667 180.333333333 692.333333333 177 687 c 1
 159 697 l 1
 165.666666667 713 174.333333333 728.833333333 185 744.5 c 128
 195.666666667 760.166666667 206.666666667 775.666666667 218 791 c 0
 240 820.333333333 264.833333333 847 292.5 871 c 128
 320.166666667 895 350 915.5 382 932.5 c 128
 414 949.5 448 962.666666667 484 972 c 128
 520 981.333333333 557 986 595 986 c 0
 659.666666667 986 720.666666667 973 778 947 c 128
 835.333333333 921 885.166666667 885.666666667 927.5 841 c 128
 969.833333333 796.333333333 1003.33333333 744 1028 684 c 128
 1052.66666667 624 1065 560 1065 492 c 256
224 846 m 1
 210 830.666666667 196.5 814.166666667 183.5 796.5 c 128
 170.5 778.833333333 158.333333333 760.333333333 147 741 c 128
 135.666666667 721.666666667 126 701.333333333 118 680 c 128
 110 658.666666667 104 637 100 615 c 0
 94.6666666667 585 92.6666666667 555.333333333 94 526 c 128
 95.3333333333 496.666666667 99.3333333333 468 106 440 c 128
 112.666666667 412 122 385.166666667 134 359.5 c 128
 146 333.833333333 159.666666667 310 175 288 c 1
 107 245 l 1
 69 297.666666667 41 355.333333333 23 418 c 128
 5 480.666666667 2.33333333333 547.666666667 15 619 c 0
 19.6666666667 646.333333333 26.6666666667 673.333333333 36 700 c 128
 45.3333333333 726.666666667 56.5 752.333333333 69.5 777 c 128
 82.5 801.666666667 97 824.833333333 113 846.5 c 128
 129 868.166666667 146 888 164 906 c 1
 214 863 l 1
 218.666666667 869 223.333333333 874.333333333 228 879 c 128
 232.666666667 883.666666667 237.833333333 888.5 243.5 893.5 c 128
 249.166666667 898.5 255.5 903.666666667 262.5 909 c 128
 269.5 914.333333333 278 920.666666667 288 928 c 1
 302 916 l 1
 286.666666667 904 272 892.166666667 258 880.5 c 128
 244 868.833333333 233 857.333333333 225 846 c 1
 224 846 l 1
1501 249 m 1
 1115 249 l 1
 1115 -67 l 1
 208 -67 l 1
 208 364 l 1
 208 372 l 1
 227 371 l 1
 227 364 l 1
 227 -50 l 1
 1097 -50 l 1
 1097 266 l 1
 1501 266 l 1
 1509 266 l 1
 1509 249 l 1
 1501 249 l 1
EndSplineSet
Validated: 33
EndChar

StartChar: greater
Encoding: 62 62 50
Width: 1161
Flags: HW
LayerCount: 2
Back
Fore
SplineSet
720 501 m 1
 504 285 l 2
 496.666666667 277.666666667 488.833333333 274.5 480.5 275.5 c 128
 472.166666667 276.5 465.333333333 279.666666667 460 285 c 128
 454.666666667 290.333333333 451.5 297.333333333 450.5 306 c 128
 449.5 314.666666667 452.666666667 322.666666667 460 330 c 2
 631 501 l 1
 465 667 l 2
 457.666666667 674.333333333 454.5 682.333333333 455.5 691 c 128
 456.5 699.666666667 459.666666667 706.666666667 465 712 c 128
 470.333333333 717.333333333 477.166666667 720.5 485.5 721.5 c 128
 493.833333333 722.5 501.666666667 719.333333333 509 712 c 2
 720 501 l 1
1065 492 m 256
 1065 424 1052.66666667 360 1028 300 c 128
 1003.33333333 240 969.833333333 187.833333333 927.5 143.5 c 128
 885.166666667 99.1666666667 835.333333333 64 778 38 c 128
 720.666666667 12 659.666666667 -1 595 -1 c 0
 533 -1 474.666666667 11.1666666667 420 35.5 c 128
 365.333333333 59.8333333333 317 92.3333333333 275 133 c 1
 335 183 l 1
 369.666666667 148.333333333 409.333333333 121.333333333 454 102 c 128
 498.666666667 82.6666666667 546.333333333 73 597 73 c 0
 650.333333333 73 700.333333333 84 747 106 c 128
 793.666666667 128 834.5 158 869.5 196 c 128
 904.5 234 932 278.333333333 952 329 c 128
 972 379.666666667 982 434 982 492 c 256
 982 550 972 604.5 952 655.5 c 128
 932 706.5 904.5 751 869.5 789 c 128
 834.5 827 793.666666667 857 747 879 c 128
 700.333333333 901 650.333333333 912 597 912 c 0
 531 912 470.333333333 895.666666667 415 863 c 128
 359.666666667 830.333333333 314.333333333 787 279 733 c 1
 227 772 l 1
 211.666666667 751.333333333 200.333333333 733.333333333 193 718 c 128
 185.666666667 702.666666667 180.333333333 692.333333333 177 687 c 1
 159 697 l 1
 165.666666667 713 174.333333333 728.833333333 185 744.5 c 128
 195.666666667 760.166666667 206.666666667 775.666666667 218 791 c 0
 240 820.333333333 264.833333333 847 292.5 871 c 128
 320.166666667 895 350 915.5 382 932.5 c 128
 414 949.5 448 962.666666667 484 972 c 128
 520 981.333333333 557 986 595 986 c 0
 659.666666667 986 720.666666667 973 778 947 c 128
 835.333333333 921 885.166666667 885.666666667 927.5 841 c 128
 969.833333333 796.333333333 1003.33333333 744 1028 684 c 128
 1052.66666667 624 1065 560 1065 492 c 256
224 846 m 1
 210 830.666666667 196.5 814.166666667 183.5 796.5 c 128
 170.5 778.833333333 158.333333333 760.333333333 147 741 c 128
 135.666666667 721.666666667 126 701.333333333 118 680 c 128
 110 658.666666667 104 637 100 615 c 0
 94.6666666667 585 92.6666666667 555.333333333 94 526 c 128
 95.3333333333 496.666666667 99.3333333333 468 106 440 c 128
 112.666666667 412 122 385.166666667 134 359.5 c 128
 146 333.833333333 159.666666667 310 175 288 c 1
 107 245 l 1
 69 297.666666667 41 355.333333333 23 418 c 128
 5 480.666666667 2.33333333333 547.666666667 15 619 c 0
 19.6666666667 646.333333333 26.6666666667 673.333333333 36 700 c 128
 45.3333333333 726.666666667 56.5 752.333333333 69.5 777 c 128
 82.5 801.666666667 97 824.833333333 113 846.5 c 128
 129 868.166666667 146 888 164 906 c 1
 214 863 l 1
 218.666666667 869 223.333333333 874.333333333 228 879 c 128
 232.666666667 883.666666667 237.833333333 888.5 243.5 893.5 c 128
 249.166666667 898.5 255.5 903.666666667 262.5 909 c 128
 269.5 914.333333333 278 920.666666667 288 928 c 1
 302 916 l 1
 286.666666667 904 272 892.166666667 258 880.5 c 128
 244 868.833333333 233 857.333333333 225 846 c 1
 224 846 l 1
1501 249 m 1
 1115 249 l 1
 1115 -67 l 1
 208 -67 l 1
 208 364 l 1
 208 372 l 1
 227 371 l 1
 227 364 l 1
 227 -50 l 1
 1097 -50 l 1
 1097 266 l 1
 1501 266 l 1
 1509 266 l 1
 1509 249 l 1
 1501 249 l 1
EndSplineSet
Validated: 33
EndChar

StartChar: question
Encoding: 63 63 51
Width: 1161
Flags: HW
LayerCount: 2
Back
Fore
SplineSet
611 408 m 1
 611 517 l 1
 760 517 l 1
 760 740 l 1
 760 767.5 l 2
 760 775.166666667 758.666666667 781.333333333 756 786 c 128
 753.333333333 790.666666667 749 794.166666667 743 796.5 c 128
 737 798.833333333 727.666666667 800 715 800 c 2
 577 800 l 1
 414 800 l 1
 414 689 l 1
 414 667 l 1
 500 667 l 1
 500 690 l 2
 500.666666667 703.333333333 504.5 711.833333333 511.5 715.5 c 128
 518.5 719.166666667 526.666666667 721.333333333 536 722 c 2
 583 722 l 1
 661 722 l 1
 661 633 l 2
 661 619 655.833333333 608.333333333 645.5 601 c 128
 635.166666667 593.666666667 622.333333333 589.666666667 607 589 c 0
 601 588.333333333 597.166666667 588 595.5 588 c 128
 593.833333333 588 592.666666667 588.166666667 592 588.5 c 128
 591.333333333 588.833333333 590 589 588 589 c 2
 575 589 l 2
 557.666666667 587.666666667 543.833333333 584.666666667 533.5 580 c 128
 523.166666667 575.333333333 518 564.666666667 518 548 c 2
 518 361 l 1
 611 361 l 1
 611 408 l 1
611 271 m 1
 611 238 l 2
 611 228.666666667 606.666666667 224 598 224 c 2
 530 224 l 2
 520.666666667 224 516 228.333333333 516 237 c 2
 517 304 l 2
 517 313.333333333 521.333333333 318 530 318 c 2
 598 318 l 2
 606.666666667 318 611 313.666666667 611 305 c 2
 611 271 l 1
1065 492 m 256
 1065 424 1052.66666667 360 1028 300 c 128
 1003.33333333 240 969.833333333 187.833333333 927.5 143.5 c 128
 885.166666667 99.1666666667 835.333333333 64 778 38 c 128
 720.666666667 12 659.666666667 -1 595 -1 c 0
 533 -1 474.666666667 11.1666666667 420 35.5 c 128
 365.333333333 59.8333333333 317 92.3333333333 275 133 c 1
 335 183 l 1
 369.666666667 148.333333333 409.333333333 121.333333333 454 102 c 128
 498.666666667 82.6666666667 546.333333333 73 597 73 c 0
 650.333333333 73 700.333333333 84 747 106 c 128
 793.666666667 128 834.5 158 869.5 196 c 128
 904.5 234 932 278.333333333 952 329 c 128
 972 379.666666667 982 434 982 492 c 256
 982 550 972 604.5 952 655.5 c 128
 932 706.5 904.5 751 869.5 789 c 128
 834.5 827 793.666666667 857 747 879 c 128
 700.333333333 901 650.333333333 912 597 912 c 0
 531 912 470.333333333 895.666666667 415 863 c 128
 359.666666667 830.333333333 314.333333333 787 279 733 c 1
 227 772 l 1
 211.666666667 751.333333333 200.333333333 733.333333333 193 718 c 128
 185.666666667 702.666666667 180.333333333 692.333333333 177 687 c 1
 159 697 l 1
 165.666666667 713 174.333333333 728.833333333 185 744.5 c 128
 195.666666667 760.166666667 206.666666667 775.666666667 218 791 c 0
 240 820.333333333 264.833333333 847 292.5 871 c 128
 320.166666667 895 350 915.5 382 932.5 c 128
 414 949.5 448 962.666666667 484 972 c 128
 520 981.333333333 557 986 595 986 c 0
 659.666666667 986 720.666666667 973 778 947 c 128
 835.333333333 921 885.166666667 885.666666667 927.5 841 c 128
 969.833333333 796.333333333 1003.33333333 744 1028 684 c 128
 1052.66666667 624 1065 560 1065 492 c 256
224 846 m 1
 210 830.666666667 196.5 814.166666667 183.5 796.5 c 128
 170.5 778.833333333 158.333333333 760.333333333 147 741 c 128
 135.666666667 721.666666667 126 701.333333333 118 680 c 128
 110 658.666666667 104 637 100 615 c 0
 94.6666666667 585 92.6666666667 555.333333333 94 526 c 128
 95.3333333333 496.666666667 99.3333333333 468 106 440 c 128
 112.666666667 412 122 385.166666667 134 359.5 c 128
 146 333.833333333 159.666666667 310 175 288 c 1
 107 245 l 1
 69 297.666666667 41 355.333333333 23 418 c 128
 5 480.666666667 2.33333333333 547.666666667 15 619 c 0
 19.6666666667 646.333333333 26.6666666667 673.333333333 36 700 c 128
 45.3333333333 726.666666667 56.5 752.333333333 69.5 777 c 128
 82.5 801.666666667 97 824.833333333 113 846.5 c 128
 129 868.166666667 146 888 164 906 c 1
 214 863 l 1
 218.666666667 869 223.333333333 874.333333333 228 879 c 128
 232.666666667 883.666666667 237.833333333 888.5 243.5 893.5 c 128
 249.166666667 898.5 255.5 903.666666667 262.5 909 c 128
 269.5 914.333333333 278 920.666666667 288 928 c 1
 302 916 l 1
 286.666666667 904 272 892.166666667 258 880.5 c 128
 244 868.833333333 233 857.333333333 225 846 c 1
 224 846 l 1
1501 249 m 1
 1115 249 l 1
 1115 -67 l 1
 208 -67 l 1
 208 364 l 1
 208 372 l 1
 227 371 l 1
 227 364 l 1
 227 -50 l 1
 1097 -50 l 1
 1097 266 l 1
 1501 266 l 1
 1509 266 l 1
 1509 249 l 1
 1501 249 l 1
EndSplineSet
Validated: 41
EndChar

StartChar: at
Encoding: 64 64 52
Width: 1161
Flags: HW
LayerCount: 2
Back
Fore
SplineSet
714 364 m 2
 714 350 709 342.666666667 699 342 c 2
 661 342 l 1
 661 363 l 2
 659.666666667 355 654.833333333 349.666666667 646.5 347 c 128
 638.166666667 344.333333333 631.333333333 343 626 343 c 2
 499 342 l 2
 486.333333333 342 477.166666667 344.166666667 471.5 348.5 c 128
 465.833333333 352.833333333 463 357.666666667 463 363 c 2
 463 487 l 2
 463 502.333333333 466.166666667 514.833333333 472.5 524.5 c 128
 478.833333333 534.166666667 489.666666667 539 505 539 c 2
 661 539 l 1
 661 607 l 2
 661 614.333333333 658.5 620.666666667 653.5 626 c 128
 648.5 631.333333333 642.333333333 634 635 634 c 2
 541 634 l 2
 533.666666667 634 528.833333333 632.5 526.5 629.5 c 128
 524.166666667 626.5 523 622.333333333 523 617 c 2
 523 582 l 1
 478 582 l 2
 475.333333333 582 472.666666667 583.5 470 586.5 c 128
 467.333333333 589.5 466 592.666666667 466 596 c 2
 466 641 l 2
 466 645.666666667 467.666666667 650.333333333 471 655 c 128
 474.333333333 659.666666667 478.5 664 483.5 668 c 128
 488.5 672 493.833333333 675.166666667 499.5 677.5 c 128
 505.166666667 679.833333333 510.666666667 681 516 681 c 2
 650 681 l 2
 666.666666667 681 681.5 676 694.5 666 c 128
 707.5 656 714 643 714 627 c 2
 714 364 l 2
660 415 m 2
 660 499 l 1
 543 499 l 2
 529.666666667 499 520.833333333 495 516.5 487 c 128
 512.166666667 479 510 471.666666667 510 465 c 2
 510 399 l 2
 510 389.666666667 513.333333333 383.833333333 520 381.5 c 128
 526.666666667 379.166666667 532.333333333 378 537 378 c 2
 614 378 l 2
 622 378 631.666666667 381.166666667 643 387.5 c 128
 654.333333333 393.833333333 660 403 660 415 c 2
843 338 m 2
 843 326.666666667 840 314.333333333 834 301 c 128
 828 287.666666667 819.333333333 275 808 263 c 128
 796.666666667 251 783.166666667 241 767.5 233 c 128
 751.833333333 225 734.666666667 221 716 221 c 2
 608 221 l 1
 458 221 l 2
 438.666666667 221 421.333333333 225 406 233 c 128
 390.666666667 241 377.5 251 366.5 263 c 128
 355.5 275 347 287.666666667 341 301 c 128
 335 314.333333333 332 326.666666667 332 338 c 2
 332 520 l 1
 332 684 l 2
 332 694.666666667 335 706.833333333 341 720.5 c 128
 347 734.166666667 355.5 746.833333333 366.5 758.5 c 128
 377.5 770.166666667 390.666666667 780 406 788 c 128
 421.333333333 796 438.666666667 800 458 800 c 2
 596 800 l 1
 716 800 l 2
 734.666666667 800 751.833333333 796 767.5 788 c 128
 783.166666667 780 796.666666667 770.166666667 808 758.5 c 128
 819.333333333 746.833333333 828 734.166666667 834 720.5 c 128
 840 706.833333333 843 694.666666667 843 684 c 2
 843 520 l 1
 843 338 l 2
739 354 m 2
 739 520 l 1
 739 669 l 2
 739 675 737 681.5 733 688.5 c 128
 729 695.5 723.5 702 716.5 708 c 128
 709.5 714 701.166666667 719.166666667 691.5 723.5 c 128
 681.833333333 727.833333333 671.333333333 730 660 730 c 2
 605 730 l 1
 516 730 l 2
 504 730 493.166666667 727.833333333 483.5 723.5 c 128
 473.833333333 719.166666667 465.333333333 714 458 708 c 128
 450.666666667 702 445 695.5 441 688.5 c 128
 437 681.5 435 675.333333333 435 670 c 2
 435 520 l 1
 435 354 l 2
 435 348 437 341.5 441 334.5 c 128
 445 327.5 450.5 321 457.5 315 c 128
 464.5 309 473 304 483 300 c 128
 493 296 503.666666667 294 515 294 c 2
 659 294 l 2
 670.333333333 294 681 296 691 300 c 128
 701 304 709.5 309 716.5 315 c 128
 723.5 321 729 327.5 733 334.5 c 128
 737 341.5 739 348 739 354 c 2
1065 492 m 256
 1065 424 1052.66666667 360 1028 300 c 128
 1003.33333333 240 969.833333333 187.833333333 927.5 143.5 c 128
 885.166666667 99.1666666667 835.333333333 64 778 38 c 128
 720.666666667 12 659.666666667 -1 595 -1 c 0
 533 -1 474.666666667 11.1666666667 420 35.5 c 128
 365.333333333 59.8333333333 317 92.3333333333 275 133 c 1
 335 183 l 1
 369.666666667 148.333333333 409.333333333 121.333333333 454 102 c 128
 498.666666667 82.6666666667 546.333333333 73 597 73 c 0
 650.333333333 73 700.333333333 84 747 106 c 128
 793.666666667 128 834.5 158 869.5 196 c 128
 904.5 234 932 278.333333333 952 329 c 128
 972 379.666666667 982 434 982 492 c 256
 982 550 972 604.5 952 655.5 c 128
 932 706.5 904.5 751 869.5 789 c 128
 834.5 827 793.666666667 857 747 879 c 128
 700.333333333 901 650.333333333 912 597 912 c 0
 531 912 470.333333333 895.666666667 415 863 c 128
 359.666666667 830.333333333 314.333333333 787 279 733 c 1
 227 772 l 1
 211.666666667 751.333333333 200.333333333 733.333333333 193 718 c 128
 185.666666667 702.666666667 180.333333333 692.333333333 177 687 c 1
 159 697 l 1
 165.666666667 713 174.333333333 728.833333333 185 744.5 c 128
 195.666666667 760.166666667 206.666666667 775.666666667 218 791 c 0
 240 820.333333333 264.833333333 847 292.5 871 c 128
 320.166666667 895 350 915.5 382 932.5 c 128
 414 949.5 448 962.666666667 484 972 c 128
 520 981.333333333 557 986 595 986 c 0
 659.666666667 986 720.666666667 973 778 947 c 128
 835.333333333 921 885.166666667 885.666666667 927.5 841 c 128
 969.833333333 796.333333333 1003.33333333 744 1028 684 c 128
 1052.66666667 624 1065 560 1065 492 c 256
224 846 m 1
 210 830.666666667 196.5 814.166666667 183.5 796.5 c 128
 170.5 778.833333333 158.333333333 760.333333333 147 741 c 128
 135.666666667 721.666666667 126 701.333333333 118 680 c 128
 110 658.666666667 104 637 100 615 c 0
 94.6666666667 585 92.6666666667 555.333333333 94 526 c 128
 95.3333333333 496.666666667 99.3333333333 468 106 440 c 128
 112.666666667 412 122 385.166666667 134 359.5 c 128
 146 333.833333333 159.666666667 310 175 288 c 1
 107 245 l 1
 69 297.666666667 41 355.333333333 23 418 c 128
 5 480.666666667 2.33333333333 547.666666667 15 619 c 0
 19.6666666667 646.333333333 26.6666666667 673.333333333 36 700 c 128
 45.3333333333 726.666666667 56.5 752.333333333 69.5 777 c 128
 82.5 801.666666667 97 824.833333333 113 846.5 c 128
 129 868.166666667 146 888 164 906 c 1
 214 863 l 1
 218.666666667 869 223.333333333 874.333333333 228 879 c 128
 232.666666667 883.666666667 237.833333333 888.5 243.5 893.5 c 128
 249.166666667 898.5 255.5 903.666666667 262.5 909 c 128
 269.5 914.333333333 278 920.666666667 288 928 c 1
 302 916 l 1
 286.666666667 904 272 892.166666667 258 880.5 c 128
 244 868.833333333 233 857.333333333 225 846 c 1
 224 846 l 1
1501 249 m 1
 1115 249 l 1
 1115 -67 l 1
 208 -67 l 1
 208 364 l 1
 208 372 l 1
 227 371 l 1
 227 364 l 1
 227 -50 l 1
 1097 -50 l 1
 1097 266 l 1
 1501 266 l 1
 1509 266 l 1
 1509 249 l 1
 1501 249 l 1
EndSplineSet
Validated: 33
EndChar

StartChar: bracketleft
Encoding: 91 91 79
Width: 447
Flags: HW
LayerCount: 2
Back
Fore
SplineSet
176 369 m 1
 190 369.666666667 203.5 367.333333333 216.5 362 c 128
 229.5 356.666666667 241 349.333333333 251 340 c 128
 261 330.666666667 269 319.833333333 275 307.5 c 128
 281 295.166666667 284 282 284 268 c 2
 284 263 l 1
 832 263 l 1
 840 263 l 1
 840 249 l 1
 832 249 l 1
 282 248 l 1
 277.333333333 224.666666667 265 205.333333333 245 190 c 128
 225 174.666666667 202 167 176 167 c 1
 176 89 l 1
 339 89 l 1
 339 10 l 1
 123 10 l 2
 109.666666667 10.6666666667 99 16 91 26 c 128
 83 36 78.3333333333 48 77 62 c 2
 77 997 l 1
 339 998 l 1
 339 922 l 1
 216 922 l 2
 204 921.333333333 195.333333333 918.666666667 190 914 c 128
 184.666666667 909.333333333 181 903.333333333 179 896 c 128
 177 888.666666667 176.166666667 880.833333333 176.5 872.5 c 128
 176.833333333 864.166666667 176.666666667 856.333333333 176 849 c 2
 176 369 l 1
176 263 m 1
 264 263 l 1
 264 268 l 2
 264 288.666666667 256.166666667 307.5 240.5 324.5 c 128
 224.833333333 341.5 203.333333333 350 176 350 c 1
 176 263 l 1
262 248 m 1
 175 249 l 1
 175 187 l 1
 194.333333333 187 212.5 192.666666667 229.5 204 c 128
 246.5 215.333333333 257.333333333 230 262 248 c 1
EndSplineSet
Validated: 33
EndChar

StartChar: backslash
Encoding: 92 92 80
Width: 538
Flags: HW
LayerCount: 2
Back
Fore
SplineSet
450 249 m 1
 447.333333333 236.333333333 443.5 225.166666667 438.5 215.5 c 128
 433.5 205.833333333 426.333333333 196.333333333 417 187 c 1
 527 -30 l 1
 426 -30 l 1
 341 136 l 1
 333.666666667 132.666666667 327 130.833333333 321 130.5 c 128
 315 130.166666667 307.666666667 130 299 130 c 0
 277 130 256.5 134.166666667 237.5 142.5 c 128
 218.5 150.833333333 202 162.333333333 188 177 c 128
 174 191.666666667 163 208.666666667 155 228 c 128
 147 247.333333333 143 268 143 290 c 0
 143 342.666666667 162 384 200 414 c 1
 11 788 l 1
 114 788 l 1
 284 451 l 1
 288 451.666666667 290.333333333 451.833333333 291 451.5 c 128
 291.666666667 451.166666667 294.333333333 451 299 451 c 0
 320.333333333 451 340.5 446.666666667 359.5 438 c 128
 378.5 429.333333333 395 417.833333333 409 403.5 c 128
 423 389.166666667 434.166666667 372.166666667 442.5 352.5 c 128
 450.833333333 332.833333333 455 312 455 290 c 2
 455 276.5 l 2
 455 272.833333333 454.333333333 268.666666667 453 264 c 1
 779 264 l 1
 779 249 l 1
 450 249 l 1
399 222 m 1
 406.333333333 232.666666667 411.666666667 243.166666667 415 253.5 c 128
 418.333333333 263.833333333 420 276 420 290 c 0
 420 307.333333333 417 323.666666667 411 339 c 128
 405 354.333333333 396.666666667 367.666666667 386 379 c 128
 375.333333333 390.333333333 362.833333333 399.166666667 348.5 405.5 c 128
 334.166666667 411.833333333 318.666666667 415 302 415 c 1
 399 222 l 1
178 290 m 0
 178 272.666666667 181.166666667 256.5 187.5 241.5 c 128
 193.833333333 226.5 202.5 213.333333333 213.5 202 c 128
 224.5 190.666666667 237.333333333 181.666666667 252 175 c 128
 266.666666667 168.333333333 282.333333333 165 299 165 c 0
 305 165 309.5 165.166666667 312.5 165.5 c 128
 315.5 165.833333333 319.666666667 167 325 169 c 1
 216 382 l 1
 202.666666667 370.666666667 193 357.5 187 342.5 c 128
 181 327.5 178 310 178 290 c 0
EndSplineSet
Validated: 1
EndChar

StartChar: bracketright
Encoding: 93 93 81
Width: 419
Flags: HW
LayerCount: 2
Back
Fore
SplineSet
199 167 m 1
 172.333333333 167 149.166666667 173.833333333 129.5 187.5 c 128
 109.833333333 201.166666667 97.6666666667 219.666666667 93 243 c 0
 93 244.333333333 92.6666666667 248.333333333 92 255 c 128
 91.3333333333 261.666666667 91 265.666666667 91 267 c 0
 91 281 94 294.333333333 100 307 c 128
 106 319.666666667 114 330.666666667 124 340 c 128
 134 349.333333333 145.5 356.5 158.5 361.5 c 128
 171.5 366.5 185 368.666666667 199 368 c 1
 199 848 l 2
 198.333333333 856 198.166666667 864.166666667 198.5 872.5 c 128
 198.833333333 880.833333333 198 888.5 196 895.5 c 128
 194 902.5 190.333333333 908.333333333 185 913 c 128
 179.666666667 917.666666667 171 920.333333333 159 921 c 2
 36 921 l 1
 36 997 l 1
 297 997 l 1
 297 62 l 2
 296.333333333 47.3333333333 291.833333333 35 283.5 25 c 128
 275.166666667 15 264.333333333 10 251 10 c 2
 35 10 l 1
 36 88 l 1
 198 88 l 1
 198 109 l 2
 198 112.333333333 198.166666667 115.5 198.5 118.5 c 128
 198.833333333 121.5 199 126.166666667 199 132.5 c 2
 199 167 l 1
198 353 m 1
 170.666666667 353 149.333333333 344.5 134 327.5 c 128
 118.666666667 310.5 111 291.666666667 111 271 c 2
 111 263 l 1
 198 263 l 1
 198 353 l 1
112 249 m 1
 116.666666667 231 127.333333333 216.166666667 144 204.5 c 128
 160.666666667 192.833333333 178.666666667 187 198 187 c 1
 198 249 l 1
 112 249 l 1
EndSplineSet
Validated: 33
EndChar

StartChar: asciicircum
Encoding: 94 94 82
Width: 593
Flags: HW
LayerCount: 2
Back
Fore
SplineSet
287 316 m 1
 277.666666667 318 268.833333333 324.166666667 260.5 334.5 c 128
 252.166666667 344.833333333 248 356.666666667 248 370 c 0
 248 385.333333333 253.5 398.5 264.5 409.5 c 128
 275.5 420.5 289 426 305 426 c 0
 320.333333333 426 333.666666667 420.5 345 409.5 c 128
 356.333333333 398.5 362 385.333333333 362 370 c 256
 362 354.666666667 356.833333333 341.666666667 346.5 331 c 128
 336.166666667 320.333333333 323 315 307 315 c 1
 307 263 l 1
 832 263 l 1
 840 263 l 1
 840 249 l 1
 832 249 l 1
 307 249 l 1
 307 211 l 1
 478 211 l 1
 488 211 l 1
 488 191 l 1
 478 191 l 1
 287 191 l 1
 287 249 l 1
 82 249 l 1
 21 249 l 1
 61 330 l 1
 299 811 l 1
 362 685 l 2
 378 653 390.5 628.333333333 399.5 611 c 128
 408.5 593.666666667 414.5 581.833333333 417.5 575.5 c 128
 420.5 569.166666667 422 565.833333333 422 565.5 c 128
 422 565.166666667 421.333333333 566.333333333 420 569 c 128
 418.666666667 571.666666667 418 572.833333333 418 572.5 c 128
 418 572.166666667 419.5 568.833333333 422.5 562.5 c 128
 425.5 556.166666667 431.5 544.333333333 440.5 527 c 128
 449.5 509.666666667 462 485 478 453 c 2
 541 327 l 1
 470 291 l 1
 452 327 l 1
 299 632 l 1
 133 294 l 1
 116 263 l 1
 287 263 l 1
 287 316 l 1
EndSplineSet
Validated: 1
EndChar

StartChar: underscore
Encoding: 95 95 83
Width: 514
Flags: HW
LayerCount: 2
Back
Fore
SplineSet
470 270 m 1
 470 263 l 1
 832 263 l 1
 840 263 l 1
 840 249 l 1
 832 249 l 1
 470 248 l 1
 470 1 l 1
 470 -7 l 1
 419 -7 l 1
 95 -7 l 1
 52 -7 l 1
 53 1 l 1
 53 367 l 1
 53 377 l 1
 73 377 l 1
 73 367 l 1
 72 38 l 1
 450 38 l 1
 450 260 l 1
 450 270 l 1
 470 270 l 1
EndSplineSet
Validated: 1
EndChar

StartChar: grave
Encoding: 96 96 84
Width: 362
Flags: HW
LayerCount: 2
Back
Fore
SplineSet
314 676 m 2
 322 672.666666667 327 667.833333333 329 661.5 c 128
 331 655.166666667 330.833333333 649.166666667 328.5 643.5 c 128
 326.166666667 637.833333333 322.166666667 633.166666667 316.5 629.5 c 128
 310.833333333 625.833333333 304 625.666666667 296 629 c 2
 64 717 l 2
 56 719.666666667 51 724.333333333 49 731 c 128
 47 737.666666667 47.1666666667 743.833333333 49.5 749.5 c 128
 51.8333333333 755.166666667 55.8333333333 759.666666667 61.5 763 c 128
 67.1666666667 766.333333333 74 766.666666667 82 764 c 2
 314 676 l 2
EndSplineSet
Validated: 1
EndChar

StartChar: braceleft
Encoding: 123 123 111
Width: 555
Flags: HW
LayerCount: 2
Back
Fore
SplineSet
217 125 m 2
 217 116.333333333 218.666666667 109 222 103 c 128
 225.333333333 97 229.5 92 234.5 88 c 128
 239.5 84 244.833333333 81.3333333333 250.5 80 c 128
 256.166666667 78.6666666667 261 78 265 78 c 2
 375 78 l 1
 375 1 l 1
 159 1 l 2
 145.666666667 1 135 5.66666666667 127 15 c 128
 119 24.3333333333 114.333333333 36 113 50 c 2
 113 268 l 2
 113 272 113.166666667 280.333333333 113.5 293 c 128
 113.833333333 305.666666667 113.833333333 320.5 113.5 337.5 c 128
 113.166666667 354.5 112 372.666666667 110 392 c 128
 108 411.333333333 105 429.5 101 446.5 c 128
 97 463.5 91.5 478.166666667 84.5 490.5 c 128
 77.5 502.833333333 69 511 59 515 c 1
 74.3333333333 519 85.8333333333 531 93.5 551 c 128
 101.166666667 571 106.5 593.833333333 109.5 619.5 c 128
 112.5 645.166666667 113.833333333 670.5 113.5 695.5 c 128
 113.166666667 720.5 113 740 113 754 c 2
 113 901 l 2
 113 933.666666667 118.666666667 956.5 130 969.5 c 128
 141.333333333 982.5 157.666666667 989 179 989 c 2
 374 989 l 1
 375 910 l 1
 252 910 l 2
 240 909.333333333 231.333333333 906.666666667 226 902 c 128
 220.666666667 897.333333333 217 891.333333333 215 884 c 128
 213 876.666666667 212.166666667 868.833333333 212.5 860.5 c 128
 212.833333333 852.166666667 212.666666667 844.333333333 212 837 c 2
 212 758 l 1
 212 694 l 2
 212 670.666666667 210.833333333 647.666666667 208.5 625 c 128
 206.166666667 602.333333333 201.5 580.666666667 194.5 560 c 128
 187.5 539.333333333 177 521.666666667 163 507 c 1
 178.333333333 494.333333333 189.833333333 478 197.5 458 c 128
 205.166666667 438 210.5 417.166666667 213.5 395.5 c 128
 216.5 373.833333333 217.833333333 352.833333333 217.5 332.5 c 128
 217.166666667 312.166666667 217 295.666666667 217 283 c 2
 217 125 l 2
805 263 m 1
 813 263 l 1
 813 248 l 1
 805 248 l 1
 267 248 l 1
 267 137 l 1
 247 138 l 1
 247 375 l 1
 267 375 l 1
 267 263 l 1
 805 263 l 1
EndSplineSet
Validated: 33
EndChar

StartChar: bar
Encoding: 124 124 112
Width: 555
Flags: HW
LayerCount: 2
Back
Fore
SplineSet
328 939 m 1
 328 12 l 1
 328 -30 l 1
 243 -30 l 1
 243 13 l 1
 243 939 l 1
 243 981 l 1
 328 981 l 1
 328 939 l 1
12 262 m 1
 3 262 l 1
 3 247 l 1
 11 247 l 1
 204 247 l 1
 204 137 l 1
 224 137 l 1
 224 374 l 1
 205 375 l 1
 204 262 l 1
 12 262 l 1
805 263 m 1
 813 263 l 1
 813 248 l 1
 805 248 l 1
 367 248 l 1
 367 137 l 1
 347 138 l 1
 347 375 l 1
 367 375 l 1
 367 263 l 1
 805 263 l 1
EndSplineSet
Validated: 9
EndChar

StartChar: braceright
Encoding: 125 125 113
Width: 555
Flags: HW
LayerCount: 2
Back
Fore
SplineSet
334 124 m 2
 334 282 l 2
 334 294.666666667 333.833333333 311.166666667 333.5 331.5 c 128
 333.166666667 351.833333333 334.5 372.833333333 337.5 394.5 c 128
 340.5 416.166666667 345.833333333 437 353.5 457 c 128
 361.166666667 477 372.666666667 493.333333333 388 506 c 1
 374 520.666666667 363.666666667 538.333333333 357 559 c 128
 350.333333333 579.666666667 345.666666667 601.333333333 343 624 c 128
 340.333333333 646.666666667 339 669.666666667 339 693 c 2
 339 757 l 1
 339 836 l 2
 338.333333333 843.333333333 338.166666667 851.166666667 338.5 859.5 c 128
 338.833333333 867.833333333 338.166666667 875.666666667 336.5 883 c 128
 334.833333333 890.333333333 331.333333333 896.333333333 326 901 c 128
 320.666666667 905.666666667 312 908.333333333 300 909 c 2
 177 909 l 1
 177 988 l 1
 373 988 l 2
 394.333333333 988 410.5 981.5 421.5 968.5 c 128
 432.5 955.5 438 932.666666667 438 900 c 2
 438 753 l 1
 438 694.5 l 2
 438 669.5 439.333333333 644.166666667 442 618.5 c 128
 444.666666667 592.833333333 449.833333333 570 457.5 550 c 128
 465.166666667 530 476.666666667 518 492 514 c 1
 481.333333333 510 472.833333333 501.666666667 466.5 489 c 128
 460.166666667 476.333333333 455 461.166666667 451 443.5 c 128
 447 425.833333333 444 407.333333333 442 388 c 128
 440 368.666666667 438.833333333 350.5 438.5 333.5 c 128
 438.166666667 316.5 438 301.833333333 438 289.5 c 2
 438 267 l 1
 438 49 l 2
 436.666666667 35 432 23.3333333333 424 14 c 128
 416 4.66666666667 405.333333333 0 392 0 c 2
 176 0 l 1
 177 76 l 1
 287 75 l 2
 296.333333333 75 306.5 78.8333333333 317.5 86.5 c 128
 328.5 94.1666666667 334 106.666666667 334 124 c 2
9 262 m 1
 1 262 l 1
 1 247 l 1
 9 247 l 1
 284 247 l 1
 284 137 l 1
 304 137 l 1
 304 374 l 1
 284 374 l 1
 284 262 l 1
 9 262 l 1
EndSplineSet
Validated: 41
EndChar

StartChar: asciitilde
Encoding: 126 126 114
Width: 498
Flags: HW
LayerCount: 2
Back
Fore
SplineSet
30 209 m 2
 30 216.333333333 33.5 222.833333333 40.5 228.5 c 128
 47.5 234.166666667 55.6666666667 237 65 237 c 2
 252 237 l 2
 261.333333333 237 269.5 234.166666667 276.5 228.5 c 128
 283.5 222.833333333 287 216.333333333 287 209 c 2
 287 147 l 1
 398 147 l 1
 398 179 l 2
 398 188.333333333 401.666666667 195.333333333 409 200 c 128
 416.333333333 204.666666667 424.333333333 207 433 207 c 128
 441.666666667 207 449.666666667 204.666666667 457 200 c 128
 464.333333333 195.333333333 468 188.333333333 468 179 c 2
 468 119 l 2
 468 111.666666667 464.5 105.166666667 457.5 99.5 c 128
 450.5 93.8333333333 442.333333333 91 433 91 c 2
 252 91 l 2
 242.666666667 91 234.5 93.8333333333 227.5 99.5 c 128
 220.5 105.166666667 217 111.666666667 217 119 c 2
 217 181 l 1
 100 181 l 1
 100 159 l 2
 100 149.666666667 96.3333333333 142.5 89 137.5 c 128
 81.6666666667 132.5 73.6666666667 130 65 130 c 128
 56.3333333333 130 48.3333333333 132.5 41 137.5 c 128
 33.6666666667 142.5 30 149.666666667 30 159 c 2
 30 209 l 2
EndSplineSet
Validated: 1
EndChar

StartChar: Ccedilla
Encoding: 226 8218 117
Width: 1161
Flags: HW
LayerCount: 2
Back
Fore
SplineSet
750 400 m 2
 750 336 l 2
 750 330 748.166666667 323.5 744.5 316.5 c 128
 740.833333333 309.5 736.166666667 302.833333333 730.5 296.5 c 128
 724.833333333 290.166666667 718.333333333 285 711 281 c 128
 703.666666667 277 696.333333333 275 689 275 c 2
 558 275 l 1
 558 196 l 1
 509 196 l 1
 509 172 l 1
 576 172 l 1
 576 130 l 1
 483 130 l 2
 471 130 465 135.333333333 465 146 c 2
 465 210 l 2
 465 222 471.666666667 228 485 228 c 2
 506 228 l 1
 506 275 l 1
 484.666666667 275 468.666666667 277.833333333 458 283.5 c 128
 447.333333333 289.166666667 439.666666667 297.666666667 435 309 c 128
 430.333333333 320.333333333 428 334.5 428 351.5 c 2
 428 411 l 1
 428 708 l 2
 428 734 436.333333333 755.833333333 453 773.5 c 128
 469.666666667 791.166666667 498 800 538 800 c 2
 636 800 l 2
 648.666666667 800 661.833333333 798.666666667 675.5 796 c 128
 689.166666667 793.333333333 701.333333333 788.833333333 712 782.5 c 128
 722.666666667 776.166666667 731.5 767.833333333 738.5 757.5 c 128
 745.5 747.166666667 749 734.666666667 749 720 c 2
 749 613 l 1
 703 613 l 2
 698.333333333 613.666666667 693 615.166666667 687 617.5 c 128
 681 619.833333333 678 625.333333333 678 634 c 2
 678 665 l 2
 678 683.666666667 673 696.333333333 663 703 c 128
 653 709.666666667 643.666666667 713 635 713 c 2
 500 713 l 1
 501 397 l 2
 501 379 502.833333333 365.5 506.5 356.5 c 128
 510.166666667 347.5 515.833333333 341.333333333 523.5 338 c 128
 531.166666667 334.666666667 540.666666667 333 552 333 c 2
 590 333 l 1
 681 333 l 1
 681 401 l 1
 681 432 l 1
 719 432 l 2
 732.333333333 432 740.833333333 429.166666667 744.5 423.5 c 128
 748.166666667 417.833333333 750 410 750 400 c 2
164 44 m 2
 164 21 l 2
 164 17 161.833333333 12.5 157.5 7.5 c 128
 153.166666667 2.5 148.333333333 0 143 0 c 2
 97 0 l 1
 97 -28 l 1
 80 -28 l 1
 80 -36 l 1
 103 -36 l 1
 103 -51 l 1
 71 -51 l 2
 66.3333333333 -51 64 -49 64 -45 c 2
 64 -23 l 2
 64 -18.3333333333 66.6666666667 -16 72 -16 c 2
 79 -16 l 1
 79 0 l 1
 71.6666666667 0 66 1 62 3 c 128
 58 5 55.1666666667 8 53.5 12 c 128
 51.8333333333 16 51 21 51 27 c 2
 51 48 l 1
 51 66 l 2
 51 76.6666666667 50.8333333333 88 50.5 100 c 128
 50.1666666667 112 50 123.166666667 50 133.5 c 2
 50 151 l 2
 50 160.333333333 53.1666666667 168.166666667 59.5 174.5 c 128
 65.8333333333 180.833333333 76 184 90 184 c 2
 124 184 l 2
 133.333333333 184 142.333333333 182 151 178 c 128
 159.666666667 174 164 166.666666667 164 156 c 2
 164 118 l 1
 148 118 l 1
 142 120 l 2
 140 120.666666667 139 122.666666667 139 126 c 2
 139 136 l 2
 139 142.666666667 137.333333333 147.166666667 134 149.5 c 128
 130.666666667 151.833333333 127.333333333 153 124 153 c 2
 77 153 l 1
 77 43 l 2
 77 29.6666666667 79.6666666667 22.5 85 21.5 c 128
 90.3333333333 20.5 98 20 108 20 c 2
 140 20 l 1
 140 44 l 1
 140 55 l 1
 153 55 l 2
 158.333333333 55 161.5 54 162.5 52 c 128
 163.5 50 164 47.3333333333 164 44 c 2
1065 492 m 256
 1065 424 1052.66666667 360 1028 300 c 128
 1003.33333333 240 969.833333333 187.833333333 927.5 143.5 c 128
 885.166666667 99.1666666667 835.333333333 64 778 38 c 128
 720.666666667 12 659.666666667 -1 595 -1 c 0
 533 -1 474.666666667 11.1666666667 420 35.5 c 128
 365.333333333 59.8333333333 317 92.3333333333 275 133 c 1
 335 183 l 1
 369.666666667 148.333333333 409.333333333 121.333333333 454 102 c 128
 498.666666667 82.6666666667 546.333333333 73 597 73 c 0
 650.333333333 73 700.333333333 84 747 106 c 128
 793.666666667 128 834.5 158 869.5 196 c 128
 904.5 234 932 278.333333333 952 329 c 128
 972 379.666666667 982 434 982 492 c 256
 982 550 972 604.5 952 655.5 c 128
 932 706.5 904.5 751 869.5 789 c 128
 834.5 827 793.666666667 857 747 879 c 128
 700.333333333 901 650.333333333 912 597 912 c 0
 531 912 470.333333333 895.666666667 415 863 c 128
 359.666666667 830.333333333 314.333333333 787 279 733 c 1
 227 772 l 1
 211.666666667 751.333333333 200.333333333 733.333333333 193 718 c 128
 185.666666667 702.666666667 180.333333333 692.333333333 177 687 c 1
 159 697 l 1
 165.666666667 713 174.333333333 728.833333333 185 744.5 c 128
 195.666666667 760.166666667 206.666666667 775.666666667 218 791 c 0
 240 820.333333333 264.833333333 847 292.5 871 c 128
 320.166666667 895 350 915.5 382 932.5 c 128
 414 949.5 448 962.666666667 484 972 c 128
 520 981.333333333 557 986 595 986 c 0
 659.666666667 986 720.666666667 973 778 947 c 128
 835.333333333 921 885.166666667 885.666666667 927.5 841 c 128
 969.833333333 796.333333333 1003.33333333 744 1028 684 c 128
 1052.66666667 624 1065 560 1065 492 c 256
224 846 m 1
 210 830.666666667 196.5 814.166666667 183.5 796.5 c 128
 170.5 778.833333333 158.333333333 760.333333333 147 741 c 128
 135.666666667 721.666666667 126 701.333333333 118 680 c 128
 110 658.666666667 104 637 100 615 c 0
 94.6666666667 585 92.6666666667 555.333333333 94 526 c 128
 95.3333333333 496.666666667 99.3333333333 468 106 440 c 128
 112.666666667 412 122 385.166666667 134 359.5 c 128
 146 333.833333333 159.666666667 310 175 288 c 1
 107 245 l 1
 69 297.666666667 41 355.333333333 23 418 c 128
 5 480.666666667 2.33333333333 547.666666667 15 619 c 0
 19.6666666667 646.333333333 26.6666666667 673.333333333 36 700 c 128
 45.3333333333 726.666666667 56.5 752.333333333 69.5 777 c 128
 82.5 801.666666667 97 824.833333333 113 846.5 c 128
 129 868.166666667 146 888 164 906 c 1
 214 863 l 1
 218.666666667 869 223.333333333 874.333333333 228 879 c 128
 232.666666667 883.666666667 237.833333333 888.5 243.5 893.5 c 128
 249.166666667 898.5 255.5 903.666666667 262.5 909 c 128
 269.5 914.333333333 278 920.666666667 288 928 c 1
 302 916 l 1
 286.666666667 904 272 892.166666667 258 880.5 c 128
 244 868.833333333 233 857.333333333 225 846 c 1
 224 846 l 1
1501 249 m 1
 1115 249 l 1
 1115 -67 l 1
 208 -67 l 1
 208 364 l 1
 208 372 l 1
 227 371 l 1
 227 364 l 1
 227 -50 l 1
 1097 -50 l 1
 1097 266 l 1
 1501 266 l 1
 1509 266 l 1
 1509 249 l 1
 1501 249 l 1
EndSplineSet
Validated: 33
EndChar

StartChar: dagger
Encoding: 202 160 147
Width: 1161
Flags: HW
LayerCount: 2
Back
Fore
SplineSet
701 686 m 1
 701 626 l 1
 604 626 l 1
 604 218 l 1
 536 218 l 1
 536 622 l 1
 438 621 l 1
 438 686 l 1
 536 686 l 1
 536 797 l 1
 604 797 l 1
 604 686 l 1
 701 686 l 1
141 164 m 1
 141 143 l 1
 107 143 l 1
 107 0 l 1
 83 0 l 1
 83 141 l 1
 49 141 l 1
 49 164 l 1
 83 164 l 1
 83 203 l 1
 107 203 l 1
 107 164 l 1
 141 164 l 1
1065 492 m 256
 1065 424 1052.66666667 360 1028 300 c 128
 1003.33333333 240 969.833333333 187.833333333 927.5 143.5 c 128
 885.166666667 99.1666666667 835.333333333 64 778 38 c 128
 720.666666667 12 659.666666667 -1 595 -1 c 0
 533 -1 474.666666667 11.1666666667 420 35.5 c 128
 365.333333333 59.8333333333 317 92.3333333333 275 133 c 1
 335 183 l 1
 369.666666667 148.333333333 409.333333333 121.333333333 454 102 c 128
 498.666666667 82.6666666667 546.333333333 73 597 73 c 0
 650.333333333 73 700.333333333 84 747 106 c 128
 793.666666667 128 834.5 158 869.5 196 c 128
 904.5 234 932 278.333333333 952 329 c 128
 972 379.666666667 982 434 982 492 c 256
 982 550 972 604.5 952 655.5 c 128
 932 706.5 904.5 751 869.5 789 c 128
 834.5 827 793.666666667 857 747 879 c 128
 700.333333333 901 650.333333333 912 597 912 c 0
 531 912 470.333333333 895.666666667 415 863 c 128
 359.666666667 830.333333333 314.333333333 787 279 733 c 1
 227 772 l 1
 211.666666667 751.333333333 200.333333333 733.333333333 193 718 c 128
 185.666666667 702.666666667 180.333333333 692.333333333 177 687 c 1
 159 697 l 1
 165.666666667 713 174.333333333 728.833333333 185 744.5 c 128
 195.666666667 760.166666667 206.666666667 775.666666667 218 791 c 0
 240 820.333333333 264.833333333 847 292.5 871 c 128
 320.166666667 895 350 915.5 382 932.5 c 128
 414 949.5 448 962.666666667 484 972 c 128
 520 981.333333333 557 986 595 986 c 0
 659.666666667 986 720.666666667 973 778 947 c 128
 835.333333333 921 885.166666667 885.666666667 927.5 841 c 128
 969.833333333 796.333333333 1003.33333333 744 1028 684 c 128
 1052.66666667 624 1065 560 1065 492 c 256
224 846 m 1
 210 830.666666667 196.5 814.166666667 183.5 796.5 c 128
 170.5 778.833333333 158.333333333 760.333333333 147 741 c 128
 135.666666667 721.666666667 126 701.333333333 118 680 c 128
 110 658.666666667 104 637 100 615 c 0
 94.6666666667 585 92.6666666667 555.333333333 94 526 c 128
 95.3333333333 496.666666667 99.3333333333 468 106 440 c 128
 112.666666667 412 122 385.166666667 134 359.5 c 128
 146 333.833333333 159.666666667 310 175 288 c 1
 107 245 l 1
 69 297.666666667 41 355.333333333 23 418 c 128
 5 480.666666667 2.33333333333 547.666666667 15 619 c 0
 19.6666666667 646.333333333 26.6666666667 673.333333333 36 700 c 128
 45.3333333333 726.666666667 56.5 752.333333333 69.5 777 c 128
 82.5 801.666666667 97 824.833333333 113 846.5 c 128
 129 868.166666667 146 888 164 906 c 1
 214 863 l 1
 218.666666667 869 223.333333333 874.333333333 228 879 c 128
 232.666666667 883.666666667 237.833333333 888.5 243.5 893.5 c 128
 249.166666667 898.5 255.5 903.666666667 262.5 909 c 128
 269.5 914.333333333 278 920.666666667 288 928 c 1
 302 916 l 1
 286.666666667 904 272 892.166666667 258 880.5 c 128
 244 868.833333333 233 857.333333333 225 846 c 1
 224 846 l 1
1501 249 m 1
 1115 249 l 1
 1115 -67 l 1
 208 -67 l 1
 208 364 l 1
 208 372 l 1
 227 371 l 1
 227 364 l 1
 227 -50 l 1
 1097 -50 l 1
 1097 266 l 1
 1501 266 l 1
 1509 266 l 1
 1509 249 l 1
 1501 249 l 1
EndSplineSet
Validated: 33
EndChar

StartChar: degree
Encoding: 193 161 148
Width: 299
Flags: HW
LayerCount: 2
Back
Fore
SplineSet
273 547 m 2
 273 542.333333333 271.666666667 537.333333333 269 532 c 128
 266.333333333 526.666666667 262.5 521.5 257.5 516.5 c 128
 252.5 511.5 246.666666667 507.333333333 240 504 c 128
 233.333333333 500.666666667 225.666666667 499 217 499 c 2
 170 499 l 1
 103 499 l 2
 95 499 87.5 500.666666667 80.5 504 c 128
 73.5 507.333333333 67.6666666667 511.5 63 516.5 c 128
 58.3333333333 521.5 54.6666666667 526.666666667 52 532 c 128
 49.3333333333 537.333333333 48 542.333333333 48 547 c 2
 48 621 l 2
 48 635.666666667 47.8333333333 649.5 47.5 662.5 c 128
 47.1666666667 675.5 47 683.666666667 47 687 c 0
 47 696.333333333 52.1666666667 706.5 62.5 717.5 c 128
 72.8333333333 728.5 86.3333333333 734 103 734 c 2
 164 734 l 1
 217 734 l 2
 234.333333333 734 248 728.5 258 717.5 c 128
 268 706.5 273 696.333333333 273 687 c 2
 273 621 l 1
 273 547 l 2
227 553 m 2
 227 621 l 1
 227 681 l 2
 227 686.333333333 223.833333333 691.833333333 217.5 697.5 c 128
 211.166666667 703.166666667 202.666666667 706 192 706 c 2
 168 706 l 1
 129 706 l 2
 118.333333333 706 109.666666667 703.166666667 103 697.5 c 128
 96.3333333333 691.833333333 93 686.666666667 93 682 c 2
 93 621 l 1
 93 553 l 2
 93 548.333333333 96.3333333333 543.166666667 103 537.5 c 128
 109.666666667 531.833333333 118.333333333 529 129 529 c 2
 192 529 l 2
 202 529 210.333333333 531.833333333 217 537.5 c 128
 223.666666667 543.166666667 227 548.333333333 227 553 c 2
119 622 m 256
 119 633.333333333 123.166666667 643.166666667 131.5 651.5 c 128
 139.833333333 659.833333333 149.666666667 664 161 664 c 256
 172.333333333 664 182 659.833333333 190 651.5 c 128
 198 643.166666667 202 633.333333333 202 622 c 256
 202 610.666666667 198 600.833333333 190 592.5 c 128
 182 584.166666667 172.333333333 580 161 580 c 256
 149.666666667 580 139.833333333 584.166666667 131.5 592.5 c 128
 123.166666667 600.833333333 119 610.666666667 119 622 c 256
EndSplineSet
Validated: 1
EndChar

StartChar: cent
Encoding: 162 162 149
Width: 1161
Flags: HW
LayerCount: 2
Back
Fore
SplineSet
754 359 m 2
 754 288 l 2
 754 281.333333333 752.166666667 274 748.5 266 c 128
 744.833333333 258 740.166666667 250.666666667 734.5 244 c 128
 728.833333333 237.333333333 722.333333333 231.833333333 715 227.5 c 128
 707.666666667 223.166666667 700.333333333 221 693 221 c 2
 630 221 l 1
 628.666666667 211.666666667 624.333333333 204.5 617 199.5 c 128
 609.666666667 194.5 602.333333333 191.666666667 595 191 c 2
 558 191 l 1
 557 221 l 1
 509 221 l 2
 487.666666667 221 471.5 224.166666667 460.5 230.5 c 128
 449.5 236.833333333 441.666666667 246.166666667 437 258.5 c 128
 432.333333333 270.833333333 429.833333333 286.333333333 429.5 305 c 128
 429.166666667 323.666666667 429 345.666666667 429 371 c 2
 429 697 l 2
 429 725.666666667 437.833333333 750 455.5 770 c 128
 473.166666667 790 502 800 542 800 c 2
 557 800 l 1
 557 824 569.333333333 835.666666667 594 835 c 2
 631 835 l 1
 631 800 l 1
 640 800 l 2
 652.666666667 800 665.833333333 798.5 679.5 795.5 c 128
 693.166666667 792.5 705.333333333 787.5 716 780.5 c 128
 726.666666667 773.5 735.5 764.5 742.5 753.5 c 128
 749.5 742.5 753 728.666666667 753 712 c 2
 753 593 l 1
 707 593 l 2
 702.333333333 594.333333333 697 596.333333333 691 599 c 128
 685 601.666666667 682 607.666666667 682 617 c 2
 682 650 l 2
 682 670.666666667 677 684.833333333 667 692.5 c 128
 657 700.166666667 647.333333333 704 638 704 c 2
 631 704 l 1
 631 284 l 1
 685 284 l 1
 685 359 l 1
 685 394 l 1
 723 394 l 2
 736.333333333 394 744.833333333 390.833333333 748.5 384.5 c 128
 752.166666667 378.166666667 754 369.666666667 754 359 c 2
558 704 m 1
 505 704 l 1
 505 355 l 2
 505 339.666666667 506 327.333333333 508 318 c 128
 510 308.666666667 513.166666667 301.5 517.5 296.5 c 128
 521.833333333 291.5 527.333333333 288.333333333 534 287 c 128
 540.666666667 285.666666667 548.333333333 285 557 285 c 1
 558 704 l 1
165 48 m 2
 165 23 l 2
 165 18.3333333333 162.833333333 13.3333333333 158.5 8 c 128
 154.166666667 2.66666666667 149.333333333 0 144 0 c 2
 122 0 l 1
 120.666666667 -6 116.333333333 -9.66666666667 109 -11 c 2
 96 -11 l 1
 96 0 l 1
 80 0 l 2
 72.6666666667 0 67 1 63 3 c 128
 59 5 56.1666666667 8.16666666667 54.5 12.5 c 128
 52.8333333333 16.8333333333 52 22.3333333333 52 29 c 2
 52 52 l 1
 52 167 l 2
 51.3333333333 177 54.1666666667 185.333333333 60.5 192 c 128
 66.8333333333 198.666666667 77 202 91 202 c 2
 96 202 l 1
 96 210.666666667 100.333333333 215 109 215 c 2
 122 215 l 1
 122 202 l 1
 125 202 l 2
 134.333333333 202.666666667 143.333333333 200.666666667 152 196 c 128
 160.666666667 191.333333333 165 183.333333333 165 172 c 2
 165 130 l 1
 149 130 l 2
 147 130.666666667 145 131.5 143 132.5 c 128
 141 133.5 140 135.666666667 140 139 c 2
 140 150 l 2
 140 157.333333333 138.333333333 162.333333333 135 165 c 128
 131.666666667 167.666666667 128.333333333 169 125 169 c 2
 122 169 l 1
 122 22 l 1
 141 22 l 1
 141 48 l 1
 141 60 l 1
 154 60 l 2
 159.333333333 60.6666666667 162.5 59.8333333333 163.5 57.5 c 128
 164.5 55.1666666667 165 52 165 48 c 2
96 169 m 1
 78 169 l 1
 78 47 l 2
 78 35.6666666667 79.5 28.6666666667 82.5 26 c 128
 85.5 23.3333333333 90 22 96 22 c 1
 96 169 l 1
1065 492 m 256
 1065 424 1052.66666667 360 1028 300 c 128
 1003.33333333 240 969.833333333 187.833333333 927.5 143.5 c 128
 885.166666667 99.1666666667 835.333333333 64 778 38 c 128
 720.666666667 12 659.666666667 -1 595 -1 c 0
 533 -1 474.666666667 11.1666666667 420 35.5 c 128
 365.333333333 59.8333333333 317 92.3333333333 275 133 c 1
 335 183 l 1
 369.666666667 148.333333333 409.333333333 121.333333333 454 102 c 128
 498.666666667 82.6666666667 546.333333333 73 597 73 c 0
 650.333333333 73 700.333333333 84 747 106 c 128
 793.666666667 128 834.5 158 869.5 196 c 128
 904.5 234 932 278.333333333 952 329 c 128
 972 379.666666667 982 434 982 492 c 256
 982 550 972 604.5 952 655.5 c 128
 932 706.5 904.5 751 869.5 789 c 128
 834.5 827 793.666666667 857 747 879 c 128
 700.333333333 901 650.333333333 912 597 912 c 0
 531 912 470.333333333 895.666666667 415 863 c 128
 359.666666667 830.333333333 314.333333333 787 279 733 c 1
 227 772 l 1
 211.666666667 751.333333333 200.333333333 733.333333333 193 718 c 128
 185.666666667 702.666666667 180.333333333 692.333333333 177 687 c 1
 159 697 l 1
 165.666666667 713 174.333333333 728.833333333 185 744.5 c 128
 195.666666667 760.166666667 206.666666667 775.666666667 218 791 c 0
 240 820.333333333 264.833333333 847 292.5 871 c 128
 320.166666667 895 350 915.5 382 932.5 c 128
 414 949.5 448 962.666666667 484 972 c 128
 520 981.333333333 557 986 595 986 c 0
 659.666666667 986 720.666666667 973 778 947 c 128
 835.333333333 921 885.166666667 885.666666667 927.5 841 c 128
 969.833333333 796.333333333 1003.33333333 744 1028 684 c 128
 1052.66666667 624 1065 560 1065 492 c 256
224 846 m 1
 210 830.666666667 196.5 814.166666667 183.5 796.5 c 128
 170.5 778.833333333 158.333333333 760.333333333 147 741 c 128
 135.666666667 721.666666667 126 701.333333333 118 680 c 128
 110 658.666666667 104 637 100 615 c 0
 94.6666666667 585 92.6666666667 555.333333333 94 526 c 128
 95.3333333333 496.666666667 99.3333333333 468 106 440 c 128
 112.666666667 412 122 385.166666667 134 359.5 c 128
 146 333.833333333 159.666666667 310 175 288 c 1
 107 245 l 1
 69 297.666666667 41 355.333333333 23 418 c 128
 5 480.666666667 2.33333333333 547.666666667 15 619 c 0
 19.6666666667 646.333333333 26.6666666667 673.333333333 36 700 c 128
 45.3333333333 726.666666667 56.5 752.333333333 69.5 777 c 128
 82.5 801.666666667 97 824.833333333 113 846.5 c 128
 129 868.166666667 146 888 164 906 c 1
 214 863 l 1
 218.666666667 869 223.333333333 874.333333333 228 879 c 128
 232.666666667 883.666666667 237.833333333 888.5 243.5 893.5 c 128
 249.166666667 898.5 255.5 903.666666667 262.5 909 c 128
 269.5 914.333333333 278 920.666666667 288 928 c 1
 302 916 l 1
 286.666666667 904 272 892.166666667 258 880.5 c 128
 244 868.833333333 233 857.333333333 225 846 c 1
 224 846 l 1
1501 249 m 1
 1115 249 l 1
 1115 -67 l 1
 208 -67 l 1
 208 364 l 1
 208 372 l 1
 227 371 l 1
 227 364 l 1
 227 -50 l 1
 1097 -50 l 1
 1097 266 l 1
 1501 266 l 1
 1509 266 l 1
 1509 249 l 1
 1501 249 l 1
EndSplineSet
Validated: 33
EndChar

StartChar: sterling
Encoding: 163 163 150
Width: 1161
Flags: HW
LayerCount: 2
Back
Fore
SplineSet
757 293 m 1
 757 247 l 2
 757 236.333333333 754.5 229.333333333 749.5 226 c 128
 744.5 222.666666667 736.666666667 221 726 221 c 2
 505 221 l 1
 504 488 l 1
 453 489 l 2
 443 488.333333333 435.166666667 490.333333333 429.5 495 c 128
 423.833333333 499.666666667 421 506 421 514 c 2
 421 561 l 1
 504 561 l 1
 504 769 l 2
 504 779 507 786.666666667 513 792 c 128
 519 797.333333333 529 800 543 800 c 2
 648 800 l 2
 652.666666667 800 656.666666667 798.5 660 795.5 c 128
 663.333333333 792.5 665 787.666666667 665 781 c 2
 665 728 l 1
 608 727 l 2
 600.666666667 727 595.666666667 724.833333333 593 720.5 c 128
 590.333333333 716.166666667 589 711 589 705 c 2
 589 561 l 1
 662 561 l 2
 672 561 679 559.333333333 683 556 c 128
 687 552.666666667 689 545.666666667 689 535 c 2
 689 488 l 1
 589 488 l 1
 589 321 l 2
 589 312.333333333 591.666666667 305.5 597 300.5 c 128
 602.333333333 295.5 609 293 617 293 c 2
 757 293 l 1
146 25 m 1
 146 9 l 2
 146 3 142.333333333 0 135 0 c 2
 58 0 l 1
 58 94 l 1
 40 94 l 2
 32.6666666667 94 29 97 29 103 c 2
 29 119 l 1
 58 119 l 1
 58 192 l 2
 58 199.333333333 62.6666666667 203 72 203 c 2
 108 203 l 2
 112 203 114 200.666666667 114 196 c 2
 114 177 l 1
 94 177 l 2
 89.3333333333 177 87 174.666666667 87 170 c 2
 87 119 l 1
 113 119 l 2
 119 119 122 116 122 110 c 2
 122 94 l 1
 87 94 l 1
 87 35 l 2
 87 28.3333333333 90.3333333333 25 97 25 c 2
 146 25 l 1
1065 492 m 256
 1065 424 1052.66666667 360 1028 300 c 128
 1003.33333333 240 969.833333333 187.833333333 927.5 143.5 c 128
 885.166666667 99.1666666667 835.333333333 64 778 38 c 128
 720.666666667 12 659.666666667 -1 595 -1 c 0
 533 -1 474.666666667 11.1666666667 420 35.5 c 128
 365.333333333 59.8333333333 317 92.3333333333 275 133 c 1
 335 183 l 1
 369.666666667 148.333333333 409.333333333 121.333333333 454 102 c 128
 498.666666667 82.6666666667 546.333333333 73 597 73 c 0
 650.333333333 73 700.333333333 84 747 106 c 128
 793.666666667 128 834.5 158 869.5 196 c 128
 904.5 234 932 278.333333333 952 329 c 128
 972 379.666666667 982 434 982 492 c 256
 982 550 972 604.5 952 655.5 c 128
 932 706.5 904.5 751 869.5 789 c 128
 834.5 827 793.666666667 857 747 879 c 128
 700.333333333 901 650.333333333 912 597 912 c 0
 531 912 470.333333333 895.666666667 415 863 c 128
 359.666666667 830.333333333 314.333333333 787 279 733 c 1
 227 772 l 1
 211.666666667 751.333333333 200.333333333 733.333333333 193 718 c 128
 185.666666667 702.666666667 180.333333333 692.333333333 177 687 c 1
 159 697 l 1
 165.666666667 713 174.333333333 728.833333333 185 744.5 c 128
 195.666666667 760.166666667 206.666666667 775.666666667 218 791 c 0
 240 820.333333333 264.833333333 847 292.5 871 c 128
 320.166666667 895 350 915.5 382 932.5 c 128
 414 949.5 448 962.666666667 484 972 c 128
 520 981.333333333 557 986 595 986 c 0
 659.666666667 986 720.666666667 973 778 947 c 128
 835.333333333 921 885.166666667 885.666666667 927.5 841 c 128
 969.833333333 796.333333333 1003.33333333 744 1028 684 c 128
 1052.66666667 624 1065 560 1065 492 c 256
224 846 m 1
 210 830.666666667 196.5 814.166666667 183.5 796.5 c 128
 170.5 778.833333333 158.333333333 760.333333333 147 741 c 128
 135.666666667 721.666666667 126 701.333333333 118 680 c 128
 110 658.666666667 104 637 100 615 c 0
 94.6666666667 585 92.6666666667 555.333333333 94 526 c 128
 95.3333333333 496.666666667 99.3333333333 468 106 440 c 128
 112.666666667 412 122 385.166666667 134 359.5 c 128
 146 333.833333333 159.666666667 310 175 288 c 1
 107 245 l 1
 69 297.666666667 41 355.333333333 23 418 c 128
 5 480.666666667 2.33333333333 547.666666667 15 619 c 0
 19.6666666667 646.333333333 26.6666666667 673.333333333 36 700 c 128
 45.3333333333 726.666666667 56.5 752.333333333 69.5 777 c 128
 82.5 801.666666667 97 824.833333333 113 846.5 c 128
 129 868.166666667 146 888 164 906 c 1
 214 863 l 1
 218.666666667 869 223.333333333 874.333333333 228 879 c 128
 232.666666667 883.666666667 237.833333333 888.5 243.5 893.5 c 128
 249.166666667 898.5 255.5 903.666666667 262.5 909 c 128
 269.5 914.333333333 278 920.666666667 288 928 c 1
 302 916 l 1
 286.666666667 904 272 892.166666667 258 880.5 c 128
 244 868.833333333 233 857.333333333 225 846 c 1
 224 846 l 1
1501 249 m 1
 1115 249 l 1
 1115 -67 l 1
 208 -67 l 1
 208 364 l 1
 208 372 l 1
 227 371 l 1
 227 364 l 1
 227 -50 l 1
 1097 -50 l 1
 1097 266 l 1
 1501 266 l 1
 1509 266 l 1
 1509 249 l 1
 1501 249 l 1
EndSplineSet
Validated: 33
EndChar

StartChar: section
Encoding: 219 164 151
Width: 1161
Flags: HW
LayerCount: 2
Back
Fore
SplineSet
767 682 m 1
 679 682 l 1
 679 702 l 2
 679 712 675.333333333 719.166666667 668 723.5 c 128
 660.666666667 727.833333333 652.333333333 730 643 730 c 2
 515 730 l 1
 515.666666667 717.333333333 515.833333333 705.833333333 515.5 695.5 c 128
 515.166666667 685.166666667 515 677.333333333 515 672 c 0
 515 659.333333333 520.166666667 649.833333333 530.5 643.5 c 128
 540.833333333 637.166666667 554 634 570 634 c 2
 598.5 634 l 2
 611.5 634 625 633.833333333 639 633.5 c 128
 653 633.166666667 666.333333333 633 679 633 c 2
 708 633 l 2
 725.333333333 633.666666667 739.5 631.5 750.5 626.5 c 128
 761.5 621.5 767 611.333333333 767 596 c 2
 767 477 l 1
 767 221 l 1
 468 221 l 2
 451.333333333 221 438.166666667 224.5 428.5 231.5 c 128
 418.833333333 238.5 414 248 414 260 c 2
 413 384 l 1
 488 384 l 2
 499.333333333 384 506.333333333 382 509 378 c 128
 511.666666667 374 513 367.333333333 513 358 c 2
 513 288 l 1
 627 288 l 2
 642.333333333 288 653.666666667 292 661 300 c 128
 668.333333333 308 672 317.666666667 672 329 c 2
 672 419 l 1
 414 419 l 1
 414 589 l 1
 414 746 l 1
 414 770.5 l 2
 414 777.5 415.333333333 783.166666667 418 787.5 c 128
 420.666666667 791.833333333 425.333333333 795 432 797 c 128
 438.666666667 799 448.333333333 800 461 800 c 2
 767 800 l 1
 767 682 l 1
673 482 m 1
 673 542 l 2
 673 554 669.166666667 561.833333333 661.5 565.5 c 128
 653.833333333 569.166666667 645.333333333 571 636 571 c 2
 595 571 l 1
 515 571 l 1
 515 521 l 2
 515 509 520.166666667 499.5 530.5 492.5 c 128
 540.833333333 485.5 554 482 570 482 c 2
 673 482 l 1
163 161 m 1
 132 161 l 1
 132 168 l 2
 132 171.333333333 130.666666667 173.833333333 128 175.5 c 128
 125.333333333 177.166666667 122.333333333 178 119 178 c 2
 74 178 l 1
 74.6666666667 173.333333333 74.8333333333 169.166666667 74.5 165.5 c 128
 74.1666666667 161.833333333 74 159.333333333 74 158 c 0
 74 148.666666667 80.3333333333 144 93 144 c 2
 142 144 l 2
 148 144 153 143.166666667 157 141.5 c 128
 161 139.833333333 163 136.333333333 163 131 c 2
 163 89 l 1
 162 0 l 1
 58 0 l 2
 45.3333333333 0 39 4.66666666667 39 14 c 2
 39 57 l 1
 65 57 l 2
 69 57 71.5 56.3333333333 72.5 55 c 128
 73.5 53.6666666667 74 51.3333333333 74 48 c 2
 74 23 l 1
 114 23 l 2
 119.333333333 23 123.166666667 24.5 125.5 27.5 c 128
 127.833333333 30.5 129 34 129 38 c 2
 129 69 l 1
 39 69 l 1
 39 129 l 1
 39 184 l 2
 39 190.666666667 39.3333333333 195.5 40 198.5 c 128
 40.6666666667 201.5 45.6666666667 203 55 203 c 2
 162 203 l 1
 163 161 l 1
130 91 m 1
 130 112 l 2
 130 116.666666667 128.666666667 119.5 126 120.5 c 128
 123.333333333 121.5 120.333333333 122 117 122 c 2
 102 122 l 1
 74 122 l 1
 74 105 l 2
 74 95.6666666667 80.3333333333 91 93 91 c 2
 130 91 l 1
1065 492 m 256
 1065 424 1052.66666667 360 1028 300 c 128
 1003.33333333 240 969.833333333 187.833333333 927.5 143.5 c 128
 885.166666667 99.1666666667 835.333333333 64 778 38 c 128
 720.666666667 12 659.666666667 -1 595 -1 c 0
 533 -1 474.666666667 11.1666666667 420 35.5 c 128
 365.333333333 59.8333333333 317 92.3333333333 275 133 c 1
 335 183 l 1
 369.666666667 148.333333333 409.333333333 121.333333333 454 102 c 128
 498.666666667 82.6666666667 546.333333333 73 597 73 c 0
 650.333333333 73 700.333333333 84 747 106 c 128
 793.666666667 128 834.5 158 869.5 196 c 128
 904.5 234 932 278.333333333 952 329 c 128
 972 379.666666667 982 434 982 492 c 256
 982 550 972 604.5 952 655.5 c 128
 932 706.5 904.5 751 869.5 789 c 128
 834.5 827 793.666666667 857 747 879 c 128
 700.333333333 901 650.333333333 912 597 912 c 0
 531 912 470.333333333 895.666666667 415 863 c 128
 359.666666667 830.333333333 314.333333333 787 279 733 c 1
 227 772 l 1
 211.666666667 751.333333333 200.333333333 733.333333333 193 718 c 128
 185.666666667 702.666666667 180.333333333 692.333333333 177 687 c 1
 159 697 l 1
 165.666666667 713 174.333333333 728.833333333 185 744.5 c 128
 195.666666667 760.166666667 206.666666667 775.666666667 218 791 c 0
 240 820.333333333 264.833333333 847 292.5 871 c 128
 320.166666667 895 350 915.5 382 932.5 c 128
 414 949.5 448 962.666666667 484 972 c 128
 520 981.333333333 557 986 595 986 c 0
 659.666666667 986 720.666666667 973 778 947 c 128
 835.333333333 921 885.166666667 885.666666667 927.5 841 c 128
 969.833333333 796.333333333 1003.33333333 744 1028 684 c 128
 1052.66666667 624 1065 560 1065 492 c 256
224 846 m 1
 210 830.666666667 196.5 814.166666667 183.5 796.5 c 128
 170.5 778.833333333 158.333333333 760.333333333 147 741 c 128
 135.666666667 721.666666667 126 701.333333333 118 680 c 128
 110 658.666666667 104 637 100 615 c 0
 94.6666666667 585 92.6666666667 555.333333333 94 526 c 128
 95.3333333333 496.666666667 99.3333333333 468 106 440 c 128
 112.666666667 412 122 385.166666667 134 359.5 c 128
 146 333.833333333 159.666666667 310 175 288 c 1
 107 245 l 1
 69 297.666666667 41 355.333333333 23 418 c 128
 5 480.666666667 2.33333333333 547.666666667 15 619 c 0
 19.6666666667 646.333333333 26.6666666667 673.333333333 36 700 c 128
 45.3333333333 726.666666667 56.5 752.333333333 69.5 777 c 128
 82.5 801.666666667 97 824.833333333 113 846.5 c 128
 129 868.166666667 146 888 164 906 c 1
 214 863 l 1
 218.666666667 869 223.333333333 874.333333333 228 879 c 128
 232.666666667 883.666666667 237.833333333 888.5 243.5 893.5 c 128
 249.166666667 898.5 255.5 903.666666667 262.5 909 c 128
 269.5 914.333333333 278 920.666666667 288 928 c 1
 302 916 l 1
 286.666666667 904 272 892.166666667 258 880.5 c 128
 244 868.833333333 233 857.333333333 225 846 c 1
 224 846 l 1
1501 249 m 1
 1115 249 l 1
 1115 -67 l 1
 208 -67 l 1
 208 364 l 1
 208 372 l 1
 227 371 l 1
 227 364 l 1
 227 -50 l 1
 1097 -50 l 1
 1097 266 l 1
 1501 266 l 1
 1509 266 l 1
 1509 249 l 1
 1501 249 l 1
EndSplineSet
Validated: 33
EndChar

StartChar: bullet
Encoding: 180 165 152
Width: 1161
Flags: HW
LayerCount: 2
Back
Fore
SplineSet
393 518 m 256
 393 544.666666667 398.166666667 569.666666667 408.5 593 c 128
 418.833333333 616.333333333 432.833333333 636.666666667 450.5 654 c 128
 468.166666667 671.333333333 489 685 513 695 c 128
 537 705 562.666666667 710 590 710 c 256
 617.333333333 710 643 705 667 695 c 128
 691 685 712 671.333333333 730 654 c 128
 748 636.666666667 762.166666667 616.333333333 772.5 593 c 128
 782.833333333 569.666666667 788 544.666666667 788 518 c 256
 788 491.333333333 782.833333333 466.333333333 772.5 443 c 128
 762.166666667 419.666666667 748 399.333333333 730 382 c 128
 712 364.666666667 691 351 667 341 c 128
 643 331 617.333333333 326 590 326 c 256
 562.666666667 326 537 331 513 341 c 128
 489 351 468.166666667 364.666666667 450.5 382 c 128
 432.833333333 399.333333333 418.833333333 419.666666667 408.5 443 c 128
 398.166666667 466.333333333 393 491.333333333 393 518 c 256
22 130 m 0
 22 149.333333333 28.6666666667 165.5 42 178.5 c 128
 55.3333333333 191.5 71.6666666667 198 91 198 c 256
 110.333333333 198 126.833333333 191.5 140.5 178.5 c 128
 154.166666667 165.5 161 149.333333333 161 130 c 0
 161 111.333333333 154.166666667 95.5 140.5 82.5 c 128
 126.833333333 69.5 110.333333333 63 91 63 c 256
 71.6666666667 63 55.3333333333 69.5 42 82.5 c 128
 28.6666666667 95.5 22 111.333333333 22 130 c 0
1065 492 m 256
 1065 424 1052.66666667 360 1028 300 c 128
 1003.33333333 240 969.833333333 187.833333333 927.5 143.5 c 128
 885.166666667 99.1666666667 835.333333333 64 778 38 c 128
 720.666666667 12 659.666666667 -1 595 -1 c 0
 533 -1 474.666666667 11.1666666667 420 35.5 c 128
 365.333333333 59.8333333333 317 92.3333333333 275 133 c 1
 335 183 l 1
 369.666666667 148.333333333 409.333333333 121.333333333 454 102 c 128
 498.666666667 82.6666666667 546.333333333 73 597 73 c 0
 650.333333333 73 700.333333333 84 747 106 c 128
 793.666666667 128 834.5 158 869.5 196 c 128
 904.5 234 932 278.333333333 952 329 c 128
 972 379.666666667 982 434 982 492 c 256
 982 550 972 604.5 952 655.5 c 128
 932 706.5 904.5 751 869.5 789 c 128
 834.5 827 793.666666667 857 747 879 c 128
 700.333333333 901 650.333333333 912 597 912 c 0
 531 912 470.333333333 895.666666667 415 863 c 128
 359.666666667 830.333333333 314.333333333 787 279 733 c 1
 227 772 l 1
 211.666666667 751.333333333 200.333333333 733.333333333 193 718 c 128
 185.666666667 702.666666667 180.333333333 692.333333333 177 687 c 1
 159 697 l 1
 165.666666667 713 174.333333333 728.833333333 185 744.5 c 128
 195.666666667 760.166666667 206.666666667 775.666666667 218 791 c 0
 240 820.333333333 264.833333333 847 292.5 871 c 128
 320.166666667 895 350 915.5 382 932.5 c 128
 414 949.5 448 962.666666667 484 972 c 128
 520 981.333333333 557 986 595 986 c 0
 659.666666667 986 720.666666667 973 778 947 c 128
 835.333333333 921 885.166666667 885.666666667 927.5 841 c 128
 969.833333333 796.333333333 1003.33333333 744 1028 684 c 128
 1052.66666667 624 1065 560 1065 492 c 256
224 846 m 1
 210 830.666666667 196.5 814.166666667 183.5 796.5 c 128
 170.5 778.833333333 158.333333333 760.333333333 147 741 c 128
 135.666666667 721.666666667 126 701.333333333 118 680 c 128
 110 658.666666667 104 637 100 615 c 0
 94.6666666667 585 92.6666666667 555.333333333 94 526 c 128
 95.3333333333 496.666666667 99.3333333333 468 106 440 c 128
 112.666666667 412 122 385.166666667 134 359.5 c 128
 146 333.833333333 159.666666667 310 175 288 c 1
 107 245 l 1
 69 297.666666667 41 355.333333333 23 418 c 128
 5 480.666666667 2.33333333333 547.666666667 15 619 c 0
 19.6666666667 646.333333333 26.6666666667 673.333333333 36 700 c 128
 45.3333333333 726.666666667 56.5 752.333333333 69.5 777 c 128
 82.5 801.666666667 97 824.833333333 113 846.5 c 128
 129 868.166666667 146 888 164 906 c 1
 214 863 l 1
 218.666666667 869 223.333333333 874.333333333 228 879 c 128
 232.666666667 883.666666667 237.833333333 888.5 243.5 893.5 c 128
 249.166666667 898.5 255.5 903.666666667 262.5 909 c 128
 269.5 914.333333333 278 920.666666667 288 928 c 1
 302 916 l 1
 286.666666667 904 272 892.166666667 258 880.5 c 128
 244 868.833333333 233 857.333333333 225 846 c 1
 224 846 l 1
1501 249 m 1
 1115 249 l 1
 1115 -67 l 1
 208 -67 l 1
 208 364 l 1
 208 372 l 1
 227 371 l 1
 227 364 l 1
 227 -50 l 1
 1097 -50 l 1
 1097 266 l 1
 1501 266 l 1
 1509 266 l 1
 1509 249 l 1
 1501 249 l 1
EndSplineSet
Validated: 33
EndChar

StartChar: paragraph
Encoding: 268 166 153
Width: 1161
Flags: HW
LayerCount: 2
Back
Fore
SplineSet
505 540 m 1
 505 713 l 1
 495 713 l 2
 483 713 471.333333333 708.833333333 460 700.5 c 128
 448.666666667 692.166666667 443 679.333333333 443 662 c 2
 443 540 l 1
 505 540 l 1
631 800 m 1
 823 800 l 1
 823 713 l 1
 728 713 l 1
 728 252 l 2
 728 225.333333333 718.333333333 212 699 212 c 2
 655 212 l 1
 655 713 l 1
 579 713 l 1
 579 251 l 2
 579 225 569.333333333 212 550 212 c 2
 506 212 l 1
 505 470 l 1
 392 470 l 2
 375.333333333 470 362.5 472.833333333 353.5 478.5 c 128
 344.5 484.166666667 338 490.833333333 334 498.5 c 128
 330 506.166666667 327.666666667 513.833333333 327 521.5 c 128
 326.333333333 529.166666667 326 535 326 539 c 2
 326 720 l 2
 326 726.666666667 327.5 734.5 330.5 743.5 c 128
 333.5 752.5 338.833333333 761.166666667 346.5 769.5 c 128
 354.166666667 777.833333333 364 785 376 791 c 128
 388 797 403 800 421 800 c 2
 511 800 l 1
 631 800 l 1
82 115 m 1
 82 175 l 1
 78 175 l 2
 74 175 70 173.5 66 170.5 c 128
 62 167.5 60 163.333333333 60 158 c 2
 60 115 l 1
 82 115 l 1
84 206 m 1
 126 206 l 1
 193 206 l 1
 193 175 l 1
 160 175 l 1
 159 14 l 2
 159 4.66666666667 155.666666667 0 149 0 c 2
 134 0 l 1
 134 175 l 1
 108 175 l 1
 108 14 l 2
 108 4.66666666667 104.333333333 0 97 0 c 2
 82 0 l 1
 82 90 l 1
 42 90 l 2
 30.6666666667 90 24 93.3333333333 22 100 c 128
 20 106.666666667 19 111.666666667 19 115 c 2
 19 178 l 2
 19 182.666666667 21.3333333333 188.5 26 195.5 c 128
 30.6666666667 202.5 39.3333333333 206 52 206 c 2
 84 206 l 1
1065 492 m 256
 1065 424 1052.66666667 360 1028 300 c 128
 1003.33333333 240 969.833333333 187.833333333 927.5 143.5 c 128
 885.166666667 99.1666666667 835.333333333 64 778 38 c 128
 720.666666667 12 659.666666667 -1 595 -1 c 0
 533 -1 474.666666667 11.1666666667 420 35.5 c 128
 365.333333333 59.8333333333 317 92.3333333333 275 133 c 1
 335 183 l 1
 369.666666667 148.333333333 409.333333333 121.333333333 454 102 c 128
 498.666666667 82.6666666667 546.333333333 73 597 73 c 0
 650.333333333 73 700.333333333 84 747 106 c 128
 793.666666667 128 834.5 158 869.5 196 c 128
 904.5 234 932 278.333333333 952 329 c 128
 972 379.666666667 982 434 982 492 c 256
 982 550 972 604.5 952 655.5 c 128
 932 706.5 904.5 751 869.5 789 c 128
 834.5 827 793.666666667 857 747 879 c 128
 700.333333333 901 650.333333333 912 597 912 c 0
 531 912 470.333333333 895.666666667 415 863 c 128
 359.666666667 830.333333333 314.333333333 787 279 733 c 1
 227 772 l 1
 211.666666667 751.333333333 200.333333333 733.333333333 193 718 c 128
 185.666666667 702.666666667 180.333333333 692.333333333 177 687 c 1
 159 697 l 1
 165.666666667 713 174.333333333 728.833333333 185 744.5 c 128
 195.666666667 760.166666667 206.666666667 775.666666667 218 791 c 0
 240 820.333333333 264.833333333 847 292.5 871 c 128
 320.166666667 895 350 915.5 382 932.5 c 128
 414 949.5 448 962.666666667 484 972 c 128
 520 981.333333333 557 986 595 986 c 0
 659.666666667 986 720.666666667 973 778 947 c 128
 835.333333333 921 885.166666667 885.666666667 927.5 841 c 128
 969.833333333 796.333333333 1003.33333333 744 1028 684 c 128
 1052.66666667 624 1065 560 1065 492 c 256
224 846 m 1
 210 830.666666667 196.5 814.166666667 183.5 796.5 c 128
 170.5 778.833333333 158.333333333 760.333333333 147 741 c 128
 135.666666667 721.666666667 126 701.333333333 118 680 c 128
 110 658.666666667 104 637 100 615 c 0
 94.6666666667 585 92.6666666667 555.333333333 94 526 c 128
 95.3333333333 496.666666667 99.3333333333 468 106 440 c 128
 112.666666667 412 122 385.166666667 134 359.5 c 128
 146 333.833333333 159.666666667 310 175 288 c 1
 107 245 l 1
 69 297.666666667 41 355.333333333 23 418 c 128
 5 480.666666667 2.33333333333 547.666666667 15 619 c 0
 19.6666666667 646.333333333 26.6666666667 673.333333333 36 700 c 128
 45.3333333333 726.666666667 56.5 752.333333333 69.5 777 c 128
 82.5 801.666666667 97 824.833333333 113 846.5 c 128
 129 868.166666667 146 888 164 906 c 1
 214 863 l 1
 218.666666667 869 223.333333333 874.333333333 228 879 c 128
 232.666666667 883.666666667 237.833333333 888.5 243.5 893.5 c 128
 249.166666667 898.5 255.5 903.666666667 262.5 909 c 128
 269.5 914.333333333 278 920.666666667 288 928 c 1
 302 916 l 1
 286.666666667 904 272 892.166666667 258 880.5 c 128
 244 868.833333333 233 857.333333333 225 846 c 1
 224 846 l 1
1501 249 m 1
 1115 249 l 1
 1115 -67 l 1
 208 -67 l 1
 208 364 l 1
 208 372 l 1
 227 371 l 1
 227 364 l 1
 227 -50 l 1
 1097 -50 l 1
 1097 266 l 1
 1501 266 l 1
 1509 266 l 1
 1509 249 l 1
 1501 249 l 1
EndSplineSet
Validated: 33
EndChar

StartChar: germandbls
Encoding: 164 167 154
Width: 1161
Flags: HW
LayerCount: 2
Back
Fore
SplineSet
759 723 m 2
 759 698.5 l 2
 759 689.5 758.833333333 680.166666667 758.5 670.5 c 128
 758.166666667 660.833333333 758 651.666666667 758 643 c 2
 758 621 l 2
 758 601.666666667 753.833333333 586 745.5 574 c 128
 737.166666667 562 720.333333333 555.666666667 695 555 c 1
 707.666666667 555 718 551.666666667 726 545 c 128
 734 538.333333333 740.333333333 530.5 745 521.5 c 128
 749.666666667 512.5 753 503.166666667 755 493.5 c 128
 757 483.833333333 758 475.666666667 758 469 c 2
 758 292 l 2
 758 284 755.166666667 276.166666667 749.5 268.5 c 128
 743.833333333 260.833333333 736 253.666666667 726 247 c 128
 716 240.333333333 704.5 234.5 691.5 229.5 c 128
 678.5 224.5 664.666666667 220.333333333 650 217 c 0
 638 214.333333333 627.5 215.333333333 618.5 220 c 128
 609.5 224.666666667 602.666666667 230.5 598 237.5 c 128
 593.333333333 244.5 591.666666667 252 593 260 c 128
 594.333333333 268 599.333333333 274 608 278 c 1
 624 278 638.666666667 282.666666667 652 292 c 128
 665.333333333 301.333333333 672 315.666666667 672 335 c 2
 672 457 l 2
 672 475 665 488.666666667 651 498 c 128
 637 507.333333333 622.333333333 512 607 512 c 2
 525 512 l 1
 525 221 l 1
 408 221 l 2
 400.666666667 221 394.666666667 223.333333333 390 228 c 128
 385.333333333 232.666666667 383 238.666666667 383 246 c 2
 383 280 l 1
 459 280 l 1
 459 746 l 2
 459 758 462.833333333 770 470.5 782 c 128
 478.166666667 794 492 800 512 800 c 2
 638 800 l 2
 658.666666667 800 676.5 797.166666667 691.5 791.5 c 128
 706.5 785.833333333 719 779 729 771 c 128
 739 763 746.5 754.5 751.5 745.5 c 128
 756.5 736.5 759 729 759 723 c 2
672 686 m 2
 672 694 670.166666667 701.166666667 666.5 707.5 c 128
 662.833333333 713.833333333 658 719 652 723 c 128
 646 727 639.333333333 730 632 732 c 128
 624.666666667 734 617.666666667 735 611 735 c 2
 525 735 l 1
 525 595 l 1
 611 595 l 2
 625 595 638.666666667 599.333333333 652 608 c 128
 665.333333333 616.666666667 672 629.333333333 672 646 c 2
 672 686 l 2
167 176 m 2
 167 140 l 2
 167 133.333333333 165.666666667 127.833333333 163 123.5 c 128
 160.333333333 119.166666667 154.333333333 117 145 117 c 1
 154.333333333 117 160.333333333 113.166666667 163 105.5 c 128
 165.666666667 97.8333333333 167 91.6666666667 167 87 c 2
 167 25 l 2
 167 19 163.333333333 13.6666666667 156 9 c 128
 148.666666667 4.33333333333 139.666666667 1 129 -1 c 0
 121 -3 115 -0.833333333333 111 5.5 c 128
 107 11.8333333333 108.333333333 16.6666666667 115 20 c 0
 120.333333333 20 125.333333333 21.6666666667 130 25 c 128
 134.666666667 28.3333333333 137 33.3333333333 137 40 c 2
 137 82 l 2
 137 88.6666666667 134.5 93.6666666667 129.5 97 c 128
 124.5 100.333333333 119.333333333 102 114 102 c 2
 85 102 l 1
 85 0 l 1
 45 0 l 2
 39 0 36 3 36 9 c 2
 36 21 l 1
 62 21 l 1
 62 184 l 2
 62 188 63.3333333333 192.166666667 66 196.5 c 128
 68.6666666667 200.833333333 73.6666666667 203 81 203 c 2
 125 203 l 2
 139.666666667 203 150.333333333 199.666666667 157 193 c 128
 163.666666667 186.333333333 167 180.666666667 167 176 c 2
137 163 m 2
 137 168.333333333 134.666666667 172.5 130 175.5 c 128
 125.333333333 178.5 120.666666667 180 116 180 c 2
 86 180 l 1
 86 131 l 1
 116 131 l 2
 120.666666667 131 125.333333333 132.5 130 135.5 c 128
 134.666666667 138.5 137 143 137 149 c 2
 137 163 l 2
1065 492 m 256
 1065 424 1052.66666667 360 1028 300 c 128
 1003.33333333 240 969.833333333 187.833333333 927.5 143.5 c 128
 885.166666667 99.1666666667 835.333333333 64 778 38 c 128
 720.666666667 12 659.666666667 -1 595 -1 c 0
 533 -1 474.666666667 11.1666666667 420 35.5 c 128
 365.333333333 59.8333333333 317 92.3333333333 275 133 c 1
 335 183 l 1
 369.666666667 148.333333333 409.333333333 121.333333333 454 102 c 128
 498.666666667 82.6666666667 546.333333333 73 597 73 c 0
 650.333333333 73 700.333333333 84 747 106 c 128
 793.666666667 128 834.5 158 869.5 196 c 128
 904.5 234 932 278.333333333 952 329 c 128
 972 379.666666667 982 434 982 492 c 256
 982 550 972 604.5 952 655.5 c 128
 932 706.5 904.5 751 869.5 789 c 128
 834.5 827 793.666666667 857 747 879 c 128
 700.333333333 901 650.333333333 912 597 912 c 0
 531 912 470.333333333 895.666666667 415 863 c 128
 359.666666667 830.333333333 314.333333333 787 279 733 c 1
 227 772 l 1
 211.666666667 751.333333333 200.333333333 733.333333333 193 718 c 128
 185.666666667 702.666666667 180.333333333 692.333333333 177 687 c 1
 159 697 l 1
 165.666666667 713 174.333333333 728.833333333 185 744.5 c 128
 195.666666667 760.166666667 206.666666667 775.666666667 218 791 c 0
 240 820.333333333 264.833333333 847 292.5 871 c 128
 320.166666667 895 350 915.5 382 932.5 c 128
 414 949.5 448 962.666666667 484 972 c 128
 520 981.333333333 557 986 595 986 c 0
 659.666666667 986 720.666666667 973 778 947 c 128
 835.333333333 921 885.166666667 885.666666667 927.5 841 c 128
 969.833333333 796.333333333 1003.33333333 744 1028 684 c 128
 1052.66666667 624 1065 560 1065 492 c 256
224 846 m 1
 210 830.666666667 196.5 814.166666667 183.5 796.5 c 128
 170.5 778.833333333 158.333333333 760.333333333 147 741 c 128
 135.666666667 721.666666667 126 701.333333333 118 680 c 128
 110 658.666666667 104 637 100 615 c 0
 94.6666666667 585 92.6666666667 555.333333333 94 526 c 128
 95.3333333333 496.666666667 99.3333333333 468 106 440 c 128
 112.666666667 412 122 385.166666667 134 359.5 c 128
 146 333.833333333 159.666666667 310 175 288 c 1
 107 245 l 1
 69 297.666666667 41 355.333333333 23 418 c 128
 5 480.666666667 2.33333333333 547.666666667 15 619 c 0
 19.6666666667 646.333333333 26.6666666667 673.333333333 36 700 c 128
 45.3333333333 726.666666667 56.5 752.333333333 69.5 777 c 128
 82.5 801.666666667 97 824.833333333 113 846.5 c 128
 129 868.166666667 146 888 164 906 c 1
 214 863 l 1
 218.666666667 869 223.333333333 874.333333333 228 879 c 128
 232.666666667 883.666666667 237.833333333 888.5 243.5 893.5 c 128
 249.166666667 898.5 255.5 903.666666667 262.5 909 c 128
 269.5 914.333333333 278 920.666666667 288 928 c 1
 302 916 l 1
 286.666666667 904 272 892.166666667 258 880.5 c 128
 244 868.833333333 233 857.333333333 225 846 c 1
 224 846 l 1
1501 249 m 1
 1115 249 l 1
 1115 -67 l 1
 208 -67 l 1
 208 364 l 1
 208 372 l 1
 227 371 l 1
 227 364 l 1
 227 -50 l 1
 1097 -50 l 1
 1097 266 l 1
 1501 266 l 1
 1509 266 l 1
 1509 249 l 1
 1501 249 l 1
EndSplineSet
Validated: 33
EndChar

StartChar: registered
Encoding: 172 168 155
Width: 1161
Flags: HW
LayerCount: 2
Back
Fore
SplineSet
658 618 m 2
 658 533 l 1
 658 525 l 2
 658 521.666666667 657.166666667 518.166666667 655.5 514.5 c 128
 653.833333333 510.833333333 651.5 507.666666667 648.5 505 c 128
 645.5 502.333333333 641 501 635 501 c 1
 635 368 l 1
 615 368 l 2
 609 368 603.166666667 369.666666667 597.5 373 c 128
 591.833333333 376.333333333 589 382 589 390 c 2
 589 499 l 1
 547 499 l 1
 547 368 l 1
 514 368 l 1
 514 620 l 1
 514 657 l 1
 604 657 l 2
 614 657 622.5 655.5 629.5 652.5 c 128
 636.5 649.5 642.166666667 646 646.5 642 c 128
 650.833333333 638 653.833333333 633.833333333 655.5 629.5 c 128
 657.166666667 625.166666667 658 621.333333333 658 618 c 2
623 531 m 1
 623 552 l 1
 623 599 l 2
 623 607.666666667 619.666666667 614 613 618 c 128
 606.333333333 622 599.666666667 624 593 624 c 2
 548 624 l 1
 548 531 l 1
 623 531 l 1
790 338 m 2
 790 326.666666667 787.666666667 314.333333333 783 301 c 128
 778.333333333 287.666666667 771.666666667 275 763 263 c 128
 754.333333333 251 744 241 732 233 c 128
 720 225 706.666666667 221 692 221 c 2
 609 221 l 1
 494 221 l 2
 479.333333333 221 466 225 454 233 c 128
 442 241 431.833333333 251 423.5 263 c 128
 415.166666667 275 408.666666667 287.666666667 404 301 c 128
 399.333333333 314.333333333 397 326.666666667 397 338 c 2
 397 520 l 1
 397 573.5 l 2
 397 591.166666667 396.833333333 607.5 396.5 622.5 c 128
 396.166666667 637.5 396 650.5 396 661.5 c 2
 396 684 l 2
 396 694.666666667 398.333333333 706.833333333 403 720.5 c 128
 407.666666667 734.166666667 414.333333333 746.833333333 423 758.5 c 128
 431.666666667 770.166666667 442 780 454 788 c 128
 466 796 479.333333333 800 494 800 c 2
 600 800 l 1
 692 800 l 2
 706.666666667 800 719.833333333 796 731.5 788 c 128
 743.166666667 780 753.333333333 770.166666667 762 758.5 c 128
 770.666666667 746.833333333 777.333333333 734.166666667 782 720.5 c 128
 786.666666667 706.833333333 789 694.666666667 789 684 c 2
 789 647.5 l 2
 789 635.833333333 789.166666667 623.5 789.5 610.5 c 128
 789.833333333 597.5 790 583.666666667 790 569 c 2
 790 520 l 1
 790 338 l 2
710 354 m 2
 710 520 l 1
 710 669 l 2
 710 675 708.5 681.5 705.5 688.5 c 128
 702.5 695.5 698.333333333 702 693 708 c 128
 687.666666667 714 681.166666667 719.166666667 673.5 723.5 c 128
 665.833333333 727.833333333 657.666666667 730 649 730 c 2
 607 730 l 1
 538 730 l 2
 529.333333333 730 521.166666667 728 513.5 724 c 128
 505.833333333 720 499.333333333 715 494 709 c 128
 488.666666667 703 484.333333333 696.5 481 689.5 c 128
 477.666666667 682.5 476 676 476 670 c 2
 476 520 l 1
 476 354 l 2
 476 348 477.5 341.5 480.5 334.5 c 128
 483.5 327.5 487.833333333 321 493.5 315 c 128
 499.166666667 309 505.666666667 304 513 300 c 128
 520.333333333 296 528.666666667 294 538 294 c 2
 648 294 l 2
 656.666666667 294 664.833333333 296 672.5 300 c 128
 680.166666667 304 686.833333333 309 692.5 315 c 128
 698.166666667 321 702.5 327.5 705.5 334.5 c 128
 708.5 341.5 710 348 710 354 c 2
133 139 m 2
 133 109 l 2
 133 107.666666667 132.666666667 105.5 132 102.5 c 128
 131.333333333 99.5 128.666666667 98 124 98 c 1
 124 51 l 1
 118 51 l 2
 112 51 109 53.6666666667 109 59 c 2
 109 97 l 1
 94 97 l 1
 94 51 l 1
 82 51 l 1
 82 140 l 1
 82 153 l 1
 114 153 l 2
 121.333333333 153 126.333333333 151.166666667 129 147.5 c 128
 131.666666667 143.833333333 133 141 133 139 c 2
120 108 m 1
 120 116 l 1
 120 132 l 2
 120 135.333333333 118.833333333 137.666666667 116.5 139 c 128
 114.166666667 140.333333333 112 141 110 141 c 2
 94 141 l 1
 94 108 l 1
 120 108 l 1
179 41 m 2
 179 33.6666666667 175.833333333 25 169.5 15 c 128
 163.166666667 5 154.666666667 0 144 0 c 2
 115 0 l 1
 75 0 l 2
 65 0 56.8333333333 5 50.5 15 c 128
 44.1666666667 25 41 33.6666666667 41 41 c 2
 41 105 l 1
 41 162 l 2
 41 170 44.1666666667 178.833333333 50.5 188.5 c 128
 56.8333333333 198.166666667 65 203 75 203 c 2
 112 203 l 1
 144 203 l 2
 154.666666667 203 163.166666667 198.166666667 169.5 188.5 c 128
 175.833333333 178.833333333 179 170 179 162 c 2
 179 105 l 1
 179 41 l 2
151 47 m 2
 151 105 l 1
 151 157 l 2
 151 161 149 165.5 145 170.5 c 128
 141 175.5 135.666666667 178 129 178 c 2
 115 178 l 1
 91 178 l 2
 84.3333333333 178 79 175.5 75 170.5 c 128
 71 165.5 69 161 69 157 c 2
 69 105 l 1
 69 47 l 2
 69 43 71 38.5 75 33.5 c 128
 79 28.5 84 26 90 26 c 2
 129 26 l 2
 135.666666667 26 141 28.5 145 33.5 c 128
 149 38.5 151 43 151 47 c 2
1065 492 m 256
 1065 424 1052.66666667 360 1028 300 c 128
 1003.33333333 240 969.833333333 187.833333333 927.5 143.5 c 128
 885.166666667 99.1666666667 835.333333333 64 778 38 c 128
 720.666666667 12 659.666666667 -1 595 -1 c 0
 533 -1 474.666666667 11.1666666667 420 35.5 c 128
 365.333333333 59.8333333333 317 92.3333333333 275 133 c 1
 335 183 l 1
 369.666666667 148.333333333 409.333333333 121.333333333 454 102 c 128
 498.666666667 82.6666666667 546.333333333 73 597 73 c 0
 650.333333333 73 700.333333333 84 747 106 c 128
 793.666666667 128 834.5 158 869.5 196 c 128
 904.5 234 932 278.333333333 952 329 c 128
 972 379.666666667 982 434 982 492 c 256
 982 550 972 604.5 952 655.5 c 128
 932 706.5 904.5 751 869.5 789 c 128
 834.5 827 793.666666667 857 747 879 c 128
 700.333333333 901 650.333333333 912 597 912 c 0
 531 912 470.333333333 895.666666667 415 863 c 128
 359.666666667 830.333333333 314.333333333 787 279 733 c 1
 227 772 l 1
 211.666666667 751.333333333 200.333333333 733.333333333 193 718 c 128
 185.666666667 702.666666667 180.333333333 692.333333333 177 687 c 1
 159 697 l 1
 165.666666667 713 174.333333333 728.833333333 185 744.5 c 128
 195.666666667 760.166666667 206.666666667 775.666666667 218 791 c 0
 240 820.333333333 264.833333333 847 292.5 871 c 128
 320.166666667 895 350 915.5 382 932.5 c 128
 414 949.5 448 962.666666667 484 972 c 128
 520 981.333333333 557 986 595 986 c 0
 659.666666667 986 720.666666667 973 778 947 c 128
 835.333333333 921 885.166666667 885.666666667 927.5 841 c 128
 969.833333333 796.333333333 1003.33333333 744 1028 684 c 128
 1052.66666667 624 1065 560 1065 492 c 256
224 846 m 1
 210 830.666666667 196.5 814.166666667 183.5 796.5 c 128
 170.5 778.833333333 158.333333333 760.333333333 147 741 c 128
 135.666666667 721.666666667 126 701.333333333 118 680 c 128
 110 658.666666667 104 637 100 615 c 0
 94.6666666667 585 92.6666666667 555.333333333 94 526 c 128
 95.3333333333 496.666666667 99.3333333333 468 106 440 c 128
 112.666666667 412 122 385.166666667 134 359.5 c 128
 146 333.833333333 159.666666667 310 175 288 c 1
 107 245 l 1
 69 297.666666667 41 355.333333333 23 418 c 128
 5 480.666666667 2.33333333333 547.666666667 15 619 c 0
 19.6666666667 646.333333333 26.6666666667 673.333333333 36 700 c 128
 45.3333333333 726.666666667 56.5 752.333333333 69.5 777 c 128
 82.5 801.666666667 97 824.833333333 113 846.5 c 128
 129 868.166666667 146 888 164 906 c 1
 214 863 l 1
 218.666666667 869 223.333333333 874.333333333 228 879 c 128
 232.666666667 883.666666667 237.833333333 888.5 243.5 893.5 c 128
 249.166666667 898.5 255.5 903.666666667 262.5 909 c 128
 269.5 914.333333333 278 920.666666667 288 928 c 1
 302 916 l 1
 286.666666667 904 272 892.166666667 258 880.5 c 128
 244 868.833333333 233 857.333333333 225 846 c 1
 224 846 l 1
1501 249 m 1
 1115 249 l 1
 1115 -67 l 1
 208 -67 l 1
 208 364 l 1
 208 372 l 1
 227 371 l 1
 227 364 l 1
 227 -50 l 1
 1097 -50 l 1
 1097 266 l 1
 1501 266 l 1
 1509 266 l 1
 1509 249 l 1
 1501 249 l 1
EndSplineSet
Validated: 33
EndChar

StartChar: copyright
Encoding: 169 169 156
Width: 1161
Flags: HW
LayerCount: 2
Back
Fore
SplineSet
775 338 m 2
 775 326.666666667 772.666666667 314.333333333 768 301 c 128
 763.333333333 287.666666667 756.666666667 275 748 263 c 128
 739.333333333 251 729.166666667 241 717.5 233 c 128
 705.833333333 225 692.666666667 221 678 221 c 2
 595 221 l 1
 479 221 l 2
 464.333333333 221 451 225 439 233 c 128
 427 241 416.833333333 251 408.5 263 c 128
 400.166666667 275 393.666666667 287.666666667 389 301 c 128
 384.333333333 314.333333333 382 326.666666667 382 338 c 2
 382 520 l 1
 382 684 l 2
 382 694.666666667 384.333333333 706.833333333 389 720.5 c 128
 393.666666667 734.166666667 400.166666667 746.833333333 408.5 758.5 c 128
 416.833333333 770.166666667 427 780 439 788 c 128
 451 796 464.333333333 800 479 800 c 2
 585 800 l 1
 677 800 l 2
 691.666666667 800 705 796 717 788 c 128
 729 780 739.333333333 770.166666667 748 758.5 c 128
 756.666666667 746.833333333 763.333333333 734.166666667 768 720.5 c 128
 772.666666667 706.833333333 775 694.666666667 775 684 c 2
 775 520 l 1
 775 338 l 2
696 354 m 2
 696 520 l 1
 696 579.5 l 2
 696 593.833333333 695.833333333 605.833333333 695.5 615.5 c 128
 695.166666667 625.166666667 695 633.666666667 695 641 c 2
 695 669 l 2
 695 675 693.5 681.5 690.5 688.5 c 128
 687.5 695.5 683.333333333 702 678 708 c 128
 672.666666667 714 666.166666667 719.166666667 658.5 723.5 c 128
 650.833333333 727.833333333 642.666666667 730 634 730 c 2
 592 730 l 1
 524 730 l 2
 514.666666667 730 506.166666667 728 498.5 724 c 128
 490.833333333 720 484.333333333 715 479 709 c 128
 473.666666667 703 469.333333333 696.5 466 689.5 c 128
 462.666666667 682.5 461 676 461 670 c 2
 461 641.5 l 2
 461 633.833333333 461.166666667 625.333333333 461.5 616 c 128
 461.833333333 606.666666667 462 594.666666667 462 580 c 2
 462 520 l 1
 462 354 l 2
 462 348 463.5 341.5 466.5 334.5 c 128
 469.5 327.5 473.833333333 321 479.5 315 c 128
 485.166666667 309 491.666666667 304 499 300 c 128
 506.333333333 296 514.333333333 294 523 294 c 2
 633 294 l 2
 641.666666667 294 650 296 658 300 c 128
 666 304 672.666666667 309 678 315 c 128
 683.333333333 321 687.666666667 327.5 691 334.5 c 128
 694.333333333 341.5 696 348 696 354 c 2
659 433 m 2
 659 397 l 2
 659 390.333333333 655.666666667 383.166666667 649 375.5 c 128
 642.333333333 367.833333333 635.333333333 364 628 364 c 2
 591 364 l 1
 536 364 l 2
 525.333333333 364 517.166666667 365.5 511.5 368.5 c 128
 505.833333333 371.5 501.833333333 376.166666667 499.5 382.5 c 128
 497.166666667 388.833333333 496 396.666666667 496 406 c 2
 496 439 l 1
 496 602 l 2
 496 616 500.333333333 628 509 638 c 128
 517.666666667 648 532.333333333 653 553 653 c 2
 601 653 l 2
 614.333333333 653 627.166666667 649.833333333 639.5 643.5 c 128
 651.833333333 637.166666667 658 625.666666667 658 609 c 2
 658 550 l 1
 635 550 l 2
 632.333333333 550.666666667 629.5 551.5 626.5 552.5 c 128
 623.5 553.5 622 556.666666667 622 562 c 2
 622 578 l 2
 622 588.666666667 619.5 595.833333333 614.5 599.5 c 128
 609.5 603.166666667 605 605 601 605 c 2
 534 605 l 1
 534 431 l 2
 534 421 535 413.5 537 408.5 c 128
 539 403.5 541.833333333 400 545.5 398 c 128
 549.166666667 396 553.666666667 395 559 395 c 2
 578 395 l 1
 624 395 l 1
 624 433 l 1
 624 450 l 1
 643 450 l 2
 649.666666667 450 654 448.5 656 445.5 c 128
 658 442.5 659 438.333333333 659 433 c 2
182 41 m 2
 182 33.6666666667 178.833333333 25 172.5 15 c 128
 166.166666667 5 158 0 148 0 c 2
 119 0 l 1
 79 0 l 2
 68.3333333333 0 60 5 54 15 c 128
 48 25 45 33.6666666667 45 41 c 2
 45 105 l 1
 45 162 l 2
 45 170 48 178.833333333 54 188.5 c 128
 60 198.166666667 68.3333333333 203 79 203 c 2
 116 203 l 1
 148 203 l 2
 158 203 166.166666667 198.166666667 172.5 188.5 c 128
 178.833333333 178.833333333 182 170 182 162 c 2
 182 105 l 1
 182 41 l 2
154 47 m 2
 154 105 l 1
 154 157 l 2
 154 161 152 165.5 148 170.5 c 128
 144 175.5 139 178 133 178 c 2
 118 178 l 1
 94 178 l 2
 88 178 82.8333333333 175.5 78.5 170.5 c 128
 74.1666666667 165.5 72 161 72 157 c 2
 72 105 l 1
 72 47 l 2
 72 43 74 38.5 78 33.5 c 128
 82 28.5 87.3333333333 26 94 26 c 2
 133 26 l 2
 139 26 144 28.5 148 33.5 c 128
 152 38.5 154 43 154 47 c 2
141 74 m 2
 141 62 l 2
 141 59.3333333333 140 56.6666666667 138 54 c 128
 136 51.3333333333 133.666666667 50 131 50 c 2
 118 50 l 1
 98 50 l 2
 90.6666666667 50 86.5 52.1666666667 85.5 56.5 c 128
 84.5 60.8333333333 84 67.3333333333 84 76 c 2
 84 133 l 2
 84 138.333333333 85.5 142.666666667 88.5 146 c 128
 91.5 149.333333333 96.6666666667 151 104 151 c 2
 121 151 l 2
 125.666666667 151 130.166666667 149.833333333 134.5 147.5 c 128
 138.833333333 145.166666667 141 141.333333333 141 136 c 2
 141 115 l 1
 133 115 l 2
 130.333333333 115 129 116.333333333 129 119 c 2
 129 125 l 2
 129 128.333333333 128 130.666666667 126 132 c 128
 124 133.333333333 122.333333333 134 121 134 c 2
 98 134 l 1
 98 73 l 2
 98 65.6666666667 99.1666666667 61.8333333333 101.5 61.5 c 128
 103.833333333 61.1666666667 107.666666667 61 113 61 c 2
 129 61 l 1
 129 74 l 1
 129 80 l 1
 136 80 l 2
 139.333333333 80 141 78 141 74 c 2
1065 492 m 256
 1065 424 1052.66666667 360 1028 300 c 128
 1003.33333333 240 969.833333333 187.833333333 927.5 143.5 c 128
 885.166666667 99.1666666667 835.333333333 64 778 38 c 128
 720.666666667 12 659.666666667 -1 595 -1 c 0
 533 -1 474.666666667 11.1666666667 420 35.5 c 128
 365.333333333 59.8333333333 317 92.3333333333 275 133 c 1
 335 183 l 1
 369.666666667 148.333333333 409.333333333 121.333333333 454 102 c 128
 498.666666667 82.6666666667 546.333333333 73 597 73 c 0
 650.333333333 73 700.333333333 84 747 106 c 128
 793.666666667 128 834.5 158 869.5 196 c 128
 904.5 234 932 278.333333333 952 329 c 128
 972 379.666666667 982 434 982 492 c 256
 982 550 972 604.5 952 655.5 c 128
 932 706.5 904.5 751 869.5 789 c 128
 834.5 827 793.666666667 857 747 879 c 128
 700.333333333 901 650.333333333 912 597 912 c 0
 531 912 470.333333333 895.666666667 415 863 c 128
 359.666666667 830.333333333 314.333333333 787 279 733 c 1
 227 772 l 1
 211.666666667 751.333333333 200.333333333 733.333333333 193 718 c 128
 185.666666667 702.666666667 180.333333333 692.333333333 177 687 c 1
 159 697 l 1
 165.666666667 713 174.333333333 728.833333333 185 744.5 c 128
 195.666666667 760.166666667 206.666666667 775.666666667 218 791 c 0
 240 820.333333333 264.833333333 847 292.5 871 c 128
 320.166666667 895 350 915.5 382 932.5 c 128
 414 949.5 448 962.666666667 484 972 c 128
 520 981.333333333 557 986 595 986 c 0
 659.666666667 986 720.666666667 973 778 947 c 128
 835.333333333 921 885.166666667 885.666666667 927.5 841 c 128
 969.833333333 796.333333333 1003.33333333 744 1028 684 c 128
 1052.66666667 624 1065 560 1065 492 c 256
224 846 m 1
 210 830.666666667 196.5 814.166666667 183.5 796.5 c 128
 170.5 778.833333333 158.333333333 760.333333333 147 741 c 128
 135.666666667 721.666666667 126 701.333333333 118 680 c 128
 110 658.666666667 104 637 100 615 c 0
 94.6666666667 585 92.6666666667 555.333333333 94 526 c 128
 95.3333333333 496.666666667 99.3333333333 468 106 440 c 128
 112.666666667 412 122 385.166666667 134 359.5 c 128
 146 333.833333333 159.666666667 310 175 288 c 1
 107 245 l 1
 69 297.666666667 41 355.333333333 23 418 c 128
 5 480.666666667 2.33333333333 547.666666667 15 619 c 0
 19.6666666667 646.333333333 26.6666666667 673.333333333 36 700 c 128
 45.3333333333 726.666666667 56.5 752.333333333 69.5 777 c 128
 82.5 801.666666667 97 824.833333333 113 846.5 c 128
 129 868.166666667 146 888 164 906 c 1
 214 863 l 1
 218.666666667 869 223.333333333 874.333333333 228 879 c 128
 232.666666667 883.666666667 237.833333333 888.5 243.5 893.5 c 128
 249.166666667 898.5 255.5 903.666666667 262.5 909 c 128
 269.5 914.333333333 278 920.666666667 288 928 c 1
 302 916 l 1
 286.666666667 904 272 892.166666667 258 880.5 c 128
 244 868.833333333 233 857.333333333 225 846 c 1
 224 846 l 1
1501 249 m 1
 1115 249 l 1
 1115 -67 l 1
 208 -67 l 1
 208 364 l 1
 208 372 l 1
 227 371 l 1
 227 364 l 1
 227 -50 l 1
 1097 -50 l 1
 1097 266 l 1
 1501 266 l 1
 1509 266 l 1
 1509 249 l 1
 1501 249 l 1
EndSplineSet
Validated: 33
EndChar

StartChar: trademark
Encoding: 187 170 157
Width: 679
Flags: HW
LayerCount: 2
Back
Fore
SplineSet
359 745 m 1
 310 745 l 1
 310 540 l 2
 310 528.666666667 305 522.666666667 295 522 c 2
 272 523 l 1
 272 745 l 1
 225 745 l 1
 225 768 l 2
 225.666666667 772 227.333333333 775.5 230 778.5 c 128
 232.666666667 781.5 237.666666667 783 245 783 c 2
 359 783 l 1
 359 745 l 1
570 739 m 1
 570 523 l 1
 548 523 l 2
 538.666666667 523 534 527 534 535 c 2
 534 653 l 1
 534 707 l 2
 534 720.333333333 531.666666667 729 527 733 c 128
 522.333333333 737 517.666666667 739 513 739 c 256
 508.333333333 739 503.5 736.666666667 498.5 732 c 128
 493.5 727.333333333 491 719.333333333 491 708 c 2
 491 671 l 1
 491 523 l 1
 468 523 l 2
 463.333333333 523 459.833333333 523.666666667 457.5 525 c 128
 455.166666667 526.333333333 454 529.666666667 454 535 c 2
 454 671 l 1
 454 709 l 2
 454 721.666666667 451.666666667 730 447 734 c 128
 442.333333333 738 437.333333333 740 432 740 c 256
 426.666666667 740 421.833333333 737.333333333 417.5 732 c 128
 413.166666667 726.666666667 411 718.666666667 411 708 c 2
 411 654 l 1
 411 523 l 1
 389 523 l 2
 385.666666667 523 382.666666667 523.666666667 380 525 c 128
 377.333333333 526.333333333 376 529.666666667 376 535 c 2
 376 783 l 1
 406 783 l 1
 406 771 l 2
 406 774.333333333 408.333333333 777.166666667 413 779.5 c 128
 417.666666667 781.833333333 421.666666667 783 425 783 c 2
 450 783 l 2
 455.333333333 783 460.166666667 781.5 464.5 778.5 c 128
 468.833333333 775.5 471.666666667 770.333333333 473 763 c 1
 474.333333333 770.333333333 477.166666667 775.5 481.5 778.5 c 128
 485.833333333 781.5 490.666666667 783 496 783 c 2
 529 783 l 2
 537.666666667 783 546.5 778.833333333 555.5 770.5 c 128
 564.5 762.166666667 569.333333333 751.666666667 570 739 c 1
620 777 m 1
 632.666666667 758.333333333 641.666666667 739.5 647 720.5 c 128
 652.333333333 701.5 655 680.333333333 655 657 c 0
 655 623.666666667 648.333333333 592.5 635 563.5 c 128
 621.666666667 534.5 603.5 509.333333333 580.5 488 c 128
 557.5 466.666666667 530.5 449.666666667 499.5 437 c 128
 468.5 424.333333333 435.333333333 418 400 418 c 0
 385.333333333 418 369.166666667 420 351.5 424 c 128
 333.833333333 428 318.333333333 432 305 436 c 0
 278.333333333 445.333333333 254.833333333 458.333333333 234.5 475 c 128
 214.166666667 491.666666667 196.666666667 511.333333333 182 534 c 1
 167 534 l 1
 169.666666667 528.666666667 172.166666667 524.166666667 174.5 520.5 c 128
 176.833333333 516.833333333 179.666666667 512.666666667 183 508 c 0
 205.666666667 476 234.666666667 452.333333333 270 437 c 1
 260 421 l 1
 240 429 222.666666667 439 208 451 c 128
 193.333333333 463 179.666666667 478.333333333 167 497 c 0
 159 507.666666667 152 520 146 534 c 1
 62 534 l 1
 62 654 l 1
 48 654 l 1
 39 654 l 1
 39 665 l 1
 47 665 l 1
 129 665 l 1
 133.666666667 699 145.166666667 731 163.5 761 c 128
 181.833333333 791 207 817 239 839 c 0
 275.666666667 865 315 880 357 884 c 128
 399 888 439 882.666666667 477 868 c 1
 494 891 l 1
 503 903 l 1
 527 884 l 1
 518 872 l 1
 489 835 l 1
 480 823 l 1
 456 842 l 1
 466 855 l 1
 430.666666667 869.666666667 394.666666667 875 358 871 c 128
 321.333333333 867 285 852.666666667 249 828 c 0
 219 807.333333333 195.666666667 783 179 755 c 128
 162.333333333 727 151.666666667 697 147 665 c 1
 202 665 l 1
 211 665 l 1
 211 654 l 1
 204 654 l 1
 145 654 l 1
 142.333333333 634.666666667 142.5 616.5 145.5 599.5 c 128
 148.5 582.5 154.333333333 564.666666667 163 546 c 1
 225 546 l 1
 233 546 l 1
 233 534 l 1
 227 534 l 1
 204 534 l 1
 225.333333333 502.666666667 253 478 287 460 c 128
 321 442 359.333333333 433 402 433 c 0
 434.666666667 433 465.333333333 438.833333333 494 450.5 c 128
 522.666666667 462.166666667 547.833333333 478.166666667 569.5 498.5 c 128
 591.166666667 518.833333333 608.166666667 542.5 620.5 569.5 c 128
 632.833333333 596.5 639 625.666666667 639 657 c 0
 639 697.666666667 628.333333333 735.333333333 607 770 c 1
 620 778 l 1
 620 777 l 1
141 546 m 1
 133.666666667 564.666666667 128.666666667 582.5 126 599.5 c 128
 123.333333333 616.5 123.666666667 634.666666667 127 654 c 1
 73 654 l 1
 73 546 l 1
 141 546 l 1
78 669 m 1
 65 669 l 1
 63.6666666667 672.333333333 61.5 675.5 58.5 678.5 c 128
 55.5 681.5 51.6666666667 683.333333333 47 684 c 0
 41.6666666667 684 36.6666666667 682 32 678 c 128
 27.3333333333 674 25 669.333333333 25 664 c 256
 25 658.666666667 27 653.5 31 648.5 c 128
 35 643.5 40 641 46 641 c 0
 50 641 54 641.666666667 58 643 c 1
 58 631 l 2
 56 630.333333333 54.1666666667 629.833333333 52.5 629.5 c 128
 50.8333333333 629.166666667 49 629 47 629 c 0
 37.6666666667 629 29.8333333333 632 23.5 638 c 128
 17.1666666667 644 14 651.666666667 14 661 c 256
 14 670.333333333 17.1666666667 678 23.5 684 c 128
 29.8333333333 690 37.6666666667 693 47 693 c 0
 54.3333333333 693 60.6666666667 690.666666667 66 686 c 128
 71.3333333333 681.333333333 75.3333333333 675.666666667 78 669 c 1
EndSplineSet
Validated: 33
EndChar

StartChar: acute
Encoding: 199 171 158
Width: 401
Flags: HW
LayerCount: 2
Back
Fore
SplineSet
346 506 m 2
 114 418 l 2
 106 414.666666667 99.1666666667 414.833333333 93.5 418.5 c 128
 87.8333333333 422.166666667 83.8333333333 426.833333333 81.5 432.5 c 128
 79.1666666667 438.166666667 79 444.166666667 81 450.5 c 128
 83 456.833333333 88 461.666666667 96 465 c 2
 328 553 l 2
 336 555.666666667 342.833333333 555.333333333 348.5 552 c 128
 354.166666667 548.666666667 358.166666667 544.166666667 360.5 538.5 c 128
 362.833333333 532.833333333 363 526.666666667 361 520 c 128
 359 513.333333333 354 508.666666667 346 506 c 2
EndSplineSet
Validated: 1
EndChar

StartChar: dieresis
Encoding: 194 172 159
Width: 393
Flags: HW
LayerCount: 2
Back
Fore
SplineSet
341 499 m 2
 341 493.666666667 339 489 335 485 c 128
 331 481 326.333333333 479 321 479 c 2
 252 479 l 2
 246.666666667 479 242 481 238 485 c 128
 234 489 232 493.666666667 232 499 c 2
 232 568 l 2
 232 573.333333333 234 578 238 582 c 128
 242 586 246.666666667 588 252 588 c 2
 321 588 l 2
 326.333333333 588 331 586 335 582 c 128
 339 578 341 573.333333333 341 568 c 2
 341 499 l 2
171 499 m 2
 171 493.666666667 169 489 165 485 c 128
 161 481 156.333333333 479 151 479 c 2
 82 479 l 2
 76.6666666667 479 72 481 68 485 c 128
 64 489 62 493.666666667 62 499 c 2
 62 568 l 2
 62 573.333333333 64 578 68 582 c 128
 72 586 76.6666666667 588 82 588 c 2
 151 588 l 2
 156.333333333 588 161 586 165 582 c 128
 169 578 171 573.333333333 171 568 c 2
 171 499 l 2
EndSplineSet
Validated: 1
EndChar

